<svg xmlns="http://www.w3.org/2000/svg" xmlns:xlink="http://www.w3.org/1999/xlink" viewBox="0 0 342.39 325.32"><defs><style>.cls-1,.cls-209,.cls-212,.cls-36{fill:none;}.cls-2{clip-path:url(#clip-path);}.cls-3{fill:#9e005d;fill-opacity:0.1;}.cls-4{clip-path:url(#clip-path-2);}.cls-5{clip-path:url(#clip-path-3);}.cls-6{clip-path:url(#clip-path-4);}.cls-7{clip-path:url(#clip-path-5);}.cls-8{clip-path:url(#clip-path-6);}.cls-9{clip-path:url(#clip-path-7);}.cls-10{fill:url(#radial-gradient);}.cls-11{fill:url(#radial-gradient-2);}.cls-12{fill:url(#radial-gradient-3);}.cls-13{fill:url(#radial-gradient-4);}.cls-14{fill:url(#radial-gradient-5);}.cls-15{fill:url(#radial-gradient-6);}.cls-16{fill:url(#radial-gradient-7);}.cls-17{fill:url(#radial-gradient-8);}.cls-18{fill:url(#radial-gradient-9);}.cls-19{fill:url(#radial-gradient-10);}.cls-20{fill:url(#radial-gradient-11);}.cls-21{fill:url(#radial-gradient-12);}.cls-22{fill:url(#radial-gradient-13);}.cls-23{fill:url(#radial-gradient-14);}.cls-24{fill:url(#radial-gradient-15);}.cls-25{fill:url(#linear-gradient);}.cls-26{fill:url(#linear-gradient-2);}.cls-27{fill:url(#linear-gradient-3);}.cls-28{fill:url(#linear-gradient-4);}.cls-29{fill:url(#radial-gradient-16);}.cls-30{fill:url(#radial-gradient-17);}.cls-31{fill:url(#radial-gradient-18);}.cls-32{fill:url(#radial-gradient-19);}.cls-33{fill:url(#radial-gradient-20);}.cls-34{fill:url(#radial-gradient-21);}.cls-35{fill:url(#radial-gradient-22);}.cls-36{stroke:#1b1464;}.cls-209,.cls-210,.cls-211,.cls-212,.cls-36{stroke-miterlimit:10;}.cls-37{fill:url(#radial-gradient-23);}.cls-38{fill:url(#radial-gradient-24);}.cls-39{fill:url(#radial-gradient-25);}.cls-40{fill:url(#radial-gradient-26);}.cls-41{fill:url(#radial-gradient-27);}.cls-42{fill:url(#radial-gradient-28);}.cls-43{fill:url(#radial-gradient-29);}.cls-44{fill:url(#radial-gradient-30);}.cls-45{fill:url(#radial-gradient-31);}.cls-46{fill:url(#radial-gradient-32);}.cls-47{fill:url(#radial-gradient-33);}.cls-48{fill:url(#radial-gradient-34);}.cls-49{fill:url(#radial-gradient-35);}.cls-50{fill:url(#radial-gradient-36);}.cls-51{fill:url(#radial-gradient-37);}.cls-52{fill:url(#linear-gradient-5);}.cls-53{fill:#1b1464;}.cls-54{fill:url(#linear-gradient-6);}.cls-55{fill:url(#linear-gradient-7);}.cls-56{fill:url(#linear-gradient-8);}.cls-57{fill:url(#linear-gradient-9);}.cls-58{fill:url(#linear-gradient-10);}.cls-59{fill:url(#radial-gradient-38);}.cls-60{fill:url(#radial-gradient-39);}.cls-61{fill:url(#linear-gradient-11);}.cls-62{fill:url(#radial-gradient-40);}.cls-63{fill:url(#linear-gradient-12);}.cls-64{fill:url(#linear-gradient-13);}.cls-65{fill:url(#linear-gradient-14);}.cls-66{fill:url(#radial-gradient-41);}.cls-67{fill:url(#radial-gradient-42);}.cls-68{fill:url(#radial-gradient-43);}.cls-69{fill:url(#radial-gradient-44);}.cls-70{fill:url(#radial-gradient-45);}.cls-71{fill:url(#radial-gradient-46);}.cls-72{fill:url(#radial-gradient-47);}.cls-73{fill:url(#radial-gradient-48);}.cls-74{fill:url(#radial-gradient-49);}.cls-75{fill:url(#radial-gradient-50);}.cls-76{fill:url(#radial-gradient-51);}.cls-77{fill:url(#radial-gradient-52);}.cls-78{fill:url(#radial-gradient-53);}.cls-79{fill:url(#radial-gradient-54);}.cls-80{fill:url(#radial-gradient-55);}.cls-81{fill:url(#radial-gradient-56);}.cls-82{fill:url(#radial-gradient-57);}.cls-83{fill:#070638;}.cls-84{fill:url(#radial-gradient-58);}.cls-85{fill:url(#radial-gradient-59);}.cls-86{fill:url(#radial-gradient-60);}.cls-87{fill:url(#radial-gradient-61);}.cls-88{fill:url(#radial-gradient-62);}.cls-89{fill:url(#radial-gradient-63);}.cls-90{fill:url(#radial-gradient-64);}.cls-91{fill:url(#radial-gradient-65);}.cls-92{fill:url(#radial-gradient-66);}.cls-93{fill:url(#radial-gradient-67);}.cls-94{fill:url(#radial-gradient-68);}.cls-95{fill:url(#radial-gradient-69);}.cls-96{fill:url(#radial-gradient-70);}.cls-97{fill:url(#radial-gradient-71);}.cls-98{fill:url(#radial-gradient-72);}.cls-99{fill:url(#radial-gradient-73);}.cls-100{fill:url(#radial-gradient-74);}.cls-101{fill:url(#radial-gradient-75);}.cls-102{fill:url(#radial-gradient-76);}.cls-103{fill:url(#radial-gradient-77);}.cls-104{fill:url(#radial-gradient-78);}.cls-105{fill:url(#radial-gradient-79);}.cls-106{fill:url(#radial-gradient-80);}.cls-107{fill:url(#radial-gradient-81);}.cls-108{fill:url(#radial-gradient-82);}.cls-109{fill:url(#radial-gradient-83);}.cls-110{fill:url(#radial-gradient-84);}.cls-111{fill:url(#radial-gradient-85);}.cls-112{fill:url(#radial-gradient-86);}.cls-113{fill:url(#radial-gradient-87);}.cls-114{fill:url(#radial-gradient-88);}.cls-115{fill:url(#radial-gradient-89);}.cls-116{fill:url(#radial-gradient-90);}.cls-117{fill:url(#radial-gradient-91);}.cls-118{fill:url(#radial-gradient-92);}.cls-119{fill:url(#radial-gradient-93);}.cls-120{fill:url(#radial-gradient-94);}.cls-121{fill:url(#radial-gradient-95);}.cls-122{fill:url(#radial-gradient-96);}.cls-123{fill:url(#radial-gradient-97);}.cls-124{fill:url(#radial-gradient-98);}.cls-125{fill:url(#radial-gradient-99);}.cls-126{fill:url(#radial-gradient-100);}.cls-127{fill:url(#radial-gradient-101);}.cls-128{fill:url(#radial-gradient-102);}.cls-129{fill:url(#radial-gradient-103);}.cls-130{fill:url(#radial-gradient-104);}.cls-131{fill:url(#radial-gradient-105);}.cls-132{fill:url(#radial-gradient-106);}.cls-133{fill:url(#radial-gradient-107);}.cls-134{fill:url(#radial-gradient-108);}.cls-135{fill:url(#radial-gradient-109);}.cls-136{fill:url(#radial-gradient-110);}.cls-137{fill:url(#radial-gradient-111);}.cls-138{fill:url(#radial-gradient-112);}.cls-139{fill:url(#radial-gradient-113);}.cls-140{fill:url(#radial-gradient-114);}.cls-141{fill:url(#radial-gradient-115);}.cls-142{fill:url(#radial-gradient-116);}.cls-143{fill:url(#radial-gradient-117);}.cls-144{fill:url(#radial-gradient-118);}.cls-145{fill:url(#radial-gradient-119);}.cls-146{fill:url(#radial-gradient-120);}.cls-147{fill:url(#radial-gradient-121);}.cls-148{fill:url(#radial-gradient-122);}.cls-149{fill:url(#radial-gradient-123);}.cls-150{fill:url(#radial-gradient-124);}.cls-151{fill:url(#radial-gradient-125);}.cls-152{fill:url(#radial-gradient-126);}.cls-153{fill:url(#radial-gradient-127);}.cls-154{fill:url(#radial-gradient-128);}.cls-155{fill:url(#radial-gradient-129);}.cls-156{fill:url(#radial-gradient-130);}.cls-157{fill:url(#radial-gradient-131);}.cls-158{fill:url(#radial-gradient-132);}.cls-159{fill:url(#radial-gradient-133);}.cls-160{fill:url(#radial-gradient-134);}.cls-161{fill:url(#radial-gradient-135);}.cls-162{fill:url(#radial-gradient-136);}.cls-163{fill:url(#radial-gradient-137);}.cls-164{fill:url(#radial-gradient-138);}.cls-165{fill:url(#radial-gradient-139);}.cls-166{fill:url(#radial-gradient-140);}.cls-167{fill:url(#radial-gradient-141);}.cls-168{fill:url(#radial-gradient-142);}.cls-169{fill:url(#radial-gradient-143);}.cls-170{fill:url(#radial-gradient-144);}.cls-171{fill:url(#radial-gradient-145);}.cls-172{fill:url(#radial-gradient-146);}.cls-173{fill:url(#radial-gradient-147);}.cls-174{fill:url(#radial-gradient-148);}.cls-175{fill:url(#radial-gradient-149);}.cls-176{fill:url(#radial-gradient-150);}.cls-177{fill:url(#radial-gradient-151);}.cls-178{fill:url(#radial-gradient-152);}.cls-179{fill:url(#radial-gradient-153);}.cls-180{fill:url(#radial-gradient-154);}.cls-181{fill:url(#radial-gradient-155);}.cls-182{fill:url(#radial-gradient-156);}.cls-183{fill:url(#radial-gradient-157);}.cls-184{fill:url(#radial-gradient-158);}.cls-185{fill:url(#radial-gradient-159);}.cls-186{fill:url(#radial-gradient-160);}.cls-187{fill:url(#radial-gradient-161);}.cls-188{fill:url(#radial-gradient-162);}.cls-189{fill:url(#radial-gradient-163);}.cls-190{fill:url(#radial-gradient-164);}.cls-191{fill:url(#radial-gradient-165);}.cls-192{fill:url(#radial-gradient-166);}.cls-193{fill:url(#radial-gradient-167);}.cls-194{fill:url(#radial-gradient-168);}.cls-195{fill:url(#radial-gradient-169);}.cls-196{fill:url(#radial-gradient-170);}.cls-197{fill:url(#radial-gradient-171);}.cls-198{fill:url(#radial-gradient-172);}.cls-199{fill:url(#radial-gradient-173);}.cls-200{fill:url(#radial-gradient-174);}.cls-201{fill:url(#radial-gradient-175);}.cls-202{fill:url(#radial-gradient-176);}.cls-203{fill:url(#radial-gradient-177);}.cls-204{fill:url(#radial-gradient-178);}.cls-205{fill:url(#radial-gradient-179);}.cls-206{fill:url(#radial-gradient-180);}.cls-207{fill:url(#radial-gradient-181);}.cls-208{fill:url(#radial-gradient-182);}.cls-209,.cls-210,.cls-211,.cls-212{stroke:#c06;}.cls-210{fill:#c06;}.cls-212{stroke-width:0.5px;}.cls-213{fill:url(#radial-gradient-183);}.cls-214{fill:url(#radial-gradient-184);}</style><clipPath id="clip-path" transform="translate(0 -0.05)"><rect class="cls-1" x="65.86" y="115.58" width="20.11" height="18.25"/></clipPath><clipPath id="clip-path-2" transform="translate(0 -0.05)"><rect class="cls-1" x="7.93" y="298.17" width="30.02" height="27.21" transform="translate(-0.69 0.05) rotate(-0.13)"/></clipPath><clipPath id="clip-path-3" transform="translate(0 -0.05)"><rect class="cls-1" x="252.23" y="247.16" width="20.02" height="18.14" transform="translate(-0.57 0.58) rotate(-0.13)"/></clipPath><clipPath id="clip-path-4" transform="translate(0 -0.05)"><rect class="cls-1" x="254.76" y="51.39" width="27.29" height="24.73" transform="translate(-0.14 0.6) rotate(-0.13)"/></clipPath><clipPath id="clip-path-5" transform="translate(0 -0.05)"><rect class="cls-1" x="310.99" y="269.74" width="20.02" height="18.14" transform="translate(-0.62 0.71) rotate(-0.13)"/></clipPath><clipPath id="clip-path-6" transform="translate(0 -0.05)"><rect class="cls-1" x="82.19" y="176.02" width="37.07" height="33.59" transform="translate(-0.43 0.22) rotate(-0.13)"/></clipPath><clipPath id="clip-path-7" transform="translate(0 -0.05)"><rect class="cls-1" x="211.55" y="0.03" width="28.96" height="24.88" transform="translate(-0.03 0.5) rotate(-0.13)"/></clipPath><radialGradient id="radial-gradient" cx="-631.86" cy="-750.42" r="3.84" gradientTransform="matrix(-1.72, -0.31, -0.4, 1.88, -1357.86, 1407.38)" gradientUnits="userSpaceOnUse"><stop offset="0" stop-color="#9e005d"/><stop offset="0.99" stop-color="#0d0c44"/></radialGradient><radialGradient id="radial-gradient-2" cx="762.07" cy="-583.44" r="3.84" gradientTransform="matrix(1.77, -0.12, -0.01, 1.9, -1327.26, 1392.14)" xlink:href="#radial-gradient"/><radialGradient id="radial-gradient-3" cx="-1018.39" cy="-1886.24" r="3.84" gradientTransform="matrix(1.53, 0.67, -0.6, 1.4, 443.78, 3519.02)" xlink:href="#radial-gradient"/><radialGradient id="radial-gradient-4" cx="1093.19" cy="-479.76" r="3.84" gradientTransform="matrix(1.76, -0.28, 0.14, 1.88, -1837.87, 1399.76)" xlink:href="#radial-gradient"/><radialGradient id="radial-gradient-5" cx="-179.47" cy="-3995.3" r="3.84" gradientTransform="matrix(-1.62, -0.46, -0.32, 1.05, -1531.12, 4311.25)" xlink:href="#radial-gradient"/><radialGradient id="radial-gradient-6" cx="-1139.47" cy="-687.38" r="3.84" gradientTransform="matrix(1.58, 0.74, -0.79, 1.75, 1288.07, 2233.38)" xlink:href="#radial-gradient"/><radialGradient id="radial-gradient-7" cx="1130.4" cy="-1640.98" r="3.84" gradientTransform="matrix(1.69, -0.22, 0.08, 1.5, -1763.27, 2898.19)" xlink:href="#radial-gradient"/><radialGradient id="radial-gradient-8" cx="64.89" cy="-7.71" r="18.55" gradientTransform="translate(12.45 188.19)" gradientUnits="userSpaceOnUse"><stop offset="0" stop-color="#9e005d"/><stop offset="0" stop-color="#0d0c44"/></radialGradient><radialGradient id="radial-gradient-9" cx="-656.25" cy="-1033.15" r="3.84" gradientTransform="matrix(-1.51, -0.13, -0.11, 1.56, -867, 1765.74)" xlink:href="#radial-gradient"/><radialGradient id="radial-gradient-10" cx="849.27" cy="-853.49" r="3.84" gradientTransform="matrix(1.5, -0.22, 0.23, 1.55, -842.73, 1751.16)" xlink:href="#radial-gradient"/><radialGradient id="radial-gradient-11" cx="-1056.65" cy="-2241.1" r="3.84" gradientTransform="matrix(1.39, 0.44, -0.34, 1.19, 931.3, 3362.81)" xlink:href="#radial-gradient"/><radialGradient id="radial-gradient-12" cx="1202.63" cy="-741.58" r="3.84" gradientTransform="matrix(1.47, -0.35, 0.35, 1.52, -1277.95, 1793.08)" xlink:href="#radial-gradient"/><radialGradient id="radial-gradient-13" cx="-177.79" cy="-4492.39" r="3.84" gradientTransform="matrix(-1.44, -0.26, -0.14, 0.88, -658.33, 4147.34)" xlink:href="#radial-gradient"/><radialGradient id="radial-gradient-14" cx="-1181.48" cy="-968.03" r="3.84" gradientTransform="matrix(1.44, 0.49, -0.46, 1.49, 1494.58, 2254.72)" xlink:href="#radial-gradient"/><radialGradient id="radial-gradient-15" cx="1237.63" cy="-1974.67" r="3.84" gradientTransform="matrix(1.42, -0.3, 0.25, 1.22, -1030.19, 3010.55)" xlink:href="#radial-gradient"/><linearGradient id="linear-gradient" x1="120.46" y1="-80.36" x2="127.85" y2="-80.36" gradientTransform="translate(12.46 188.34) rotate(-0.13)" gradientUnits="userSpaceOnUse"><stop offset="0.46" stop-color="#9e005d"/><stop offset="0.51" stop-color="#8a025a"/><stop offset="0.68" stop-color="#540650"/><stop offset="0.82" stop-color="#2e094a"/><stop offset="0.93" stop-color="#160b46"/><stop offset="1" stop-color="#0d0c44"/></linearGradient><linearGradient id="linear-gradient-2" x1="133.87" y1="-73.86" x2="139.77" y2="-73.86" xlink:href="#linear-gradient"/><linearGradient id="linear-gradient-3" x1="143.14" y1="-80.2" x2="150.53" y2="-80.2" xlink:href="#linear-gradient"/><linearGradient id="linear-gradient-4" x1="136.85" y1="-61.48" x2="142.75" y2="-61.48" xlink:href="#linear-gradient"/><radialGradient id="radial-gradient-16" cx="-1322.19" cy="-273.44" r="3.84" gradientTransform="matrix(-2.46, 0.44, 0.44, 2.41, -2871.72, 1453.14)" xlink:href="#radial-gradient"/><radialGradient id="radial-gradient-17" cx="1327.79" cy="36.26" r="3.84" gradientTransform="matrix(2.3, -0.96, 0.98, 2.25, -2838.89, 1420.88)" xlink:href="#radial-gradient"/><radialGradient id="radial-gradient-18" cx="-206.45" cy="-1484.6" r="3.84" gradientTransform="matrix(2.38, 0.09, -0.08, 1.94, 627.85, 3119.33)" xlink:href="#radial-gradient"/><radialGradient id="radial-gradient-19" cx="1605.16" cy="185.03" r="3.84" gradientTransform="matrix(2.21, -1.15, 1.17, 2.16, -3515.06, 1666.84)" xlink:href="#radial-gradient"/><radialGradient id="radial-gradient-20" cx="-939.67" cy="-3273.99" r="3.84" gradientTransform="matrix(-2.39, 0.2, 0.12, 1.39, -1590.13, 4974.48)" xlink:href="#radial-gradient"/><radialGradient id="radial-gradient-21" cx="-357.19" cy="-383.92" r="3.84" gradientTransform="matrix(2.49, 0.14, -0.14, 2.44, 1082.88, 1204.13)" xlink:href="#radial-gradient"/><radialGradient id="radial-gradient-22" cx="1684" cy="-819.94" r="3.84" gradientTransform="matrix(2.14, -1.04, 0.88, 1.74, -2635.29, 3407.79)" xlink:href="#radial-gradient"/><radialGradient id="radial-gradient-23" cx="-1550.17" cy="-905.04" r="3.84" gradientTransform="matrix(-1.34, 0.3, 0.24, 1.64, -1781.32, 2163.86)" xlink:href="#radial-gradient"/><radialGradient id="radial-gradient-24" cx="1691.66" cy="-528.1" r="3.84" gradientTransform="matrix(1.26, -0.66, 0.54, 1.54, -1763.37, 2141.86)" xlink:href="#radial-gradient"/><radialGradient id="radial-gradient-25" cx="-114.63" cy="-2324.1" r="3.84" gradientTransform="matrix(1.3, 0.06, -0.04, 1.32, 133.53, 3301.93)" xlink:href="#radial-gradient"/><radialGradient id="radial-gradient-26" cx="2014.9" cy="-346.96" r="3.84" gradientTransform="matrix(1.21, -0.78, 0.64, 1.48, -2133.18, 2309.5)" xlink:href="#radial-gradient"/><radialGradient id="radial-gradient-27" cx="-1115.59" cy="-4412.31" r="3.84" gradientTransform="matrix(-1.31, 0.14, 0.07, 0.95, -1079.2, 4567.22)" xlink:href="#radial-gradient"/><radialGradient id="radial-gradient-28" cx="-282.26" cy="-1051.21" r="3.84" gradientTransform="matrix(1.36, 0.09, -0.08, 1.67, 381.87, 1995.13)" xlink:href="#radial-gradient"/><radialGradient id="radial-gradient-29" cx="2097.77" cy="-1504.16" r="3.84" gradientTransform="matrix(1.17, -0.71, 0.48, 1.19, -1651.4, 3497.8)" xlink:href="#radial-gradient"/><radialGradient id="radial-gradient-30" cx="-1573.81" cy="-936.92" r="3.84" gradientTransform="matrix(-1.38, 0.29, 0.25, 1.62, -1910.13, 2187.71)" xlink:href="#radial-gradient"/><radialGradient id="radial-gradient-31" cx="1721.85" cy="-553.86" r="3.84" gradientTransform="matrix(1.29, -0.65, 0.55, 1.51, -1891.66, 2166.08)" xlink:href="#radial-gradient"/><radialGradient id="radial-gradient-32" cx="-97.6" cy="-2369.74" r="3.84" gradientTransform="matrix(1.34, 0.06, -0.04, 1.3, 59.72, 3306.42)" xlink:href="#radial-gradient"/><radialGradient id="radial-gradient-33" cx="2047.14" cy="-370.11" r="3.84" gradientTransform="matrix(1.24, -0.77, 0.66, 1.45, -2272.13, 2330.93)" xlink:href="#radial-gradient"/><radialGradient id="radial-gradient-34" cx="-1137.03" cy="-4471.72" r="3.84" gradientTransform="matrix(-1.35, 0.14, 0.07, 0.93, -1188.04, 4550.53)" xlink:href="#radial-gradient"/><radialGradient id="radial-gradient-35" cx="-266.68" cy="-1087.72" r="3.84" gradientTransform="matrix(1.4, 0.09, -0.08, 1.64, 315.33, 2021.6)" xlink:href="#radial-gradient"/><radialGradient id="radial-gradient-36" cx="2130.83" cy="-1534.41" r="3.84" gradientTransform="matrix(1.2, -0.7, 0.5, 1.17, -1776.6, 3499.17)" xlink:href="#radial-gradient"/><radialGradient id="radial-gradient-37" cx="692.48" cy="-5449.49" fx="659.6617722711169" r="32.82" gradientTransform="matrix(-3.77, 0.01, -0.01, -3.1, 2744.58, -16639.98)" xlink:href="#radial-gradient-8"/><linearGradient id="linear-gradient-5" x1="-3.03" y1="-29.83" x2="20.51" y2="-29.83" gradientTransform="translate(124.89 169.08) rotate(-5.86)" gradientUnits="userSpaceOnUse"><stop offset="0" stop-color="#662d91"/><stop offset="0.12" stop-color="#522685"/><stop offset="0.31" stop-color="#3a1e77"/><stop offset="0.52" stop-color="#29196c"/><stop offset="0.73" stop-color="#1e1566"/><stop offset="0.99" stop-color="#1b1464"/></linearGradient><linearGradient id="linear-gradient-6" x1="216.07" y1="10.11" x2="69.96" y2="8.52" gradientTransform="translate(12.46 188.34) rotate(-0.13)" gradientUnits="userSpaceOnUse"><stop offset="0.34" stop-color="#662d91"/><stop offset="0.53" stop-color="#642c90"/><stop offset="0.63" stop-color="#5c2a8b"/><stop offset="0.71" stop-color="#4f2583"/><stop offset="0.77" stop-color="#3c1f78"/><stop offset="0.83" stop-color="#241769"/><stop offset="0.85" stop-color="#1b1464"/></linearGradient><linearGradient id="linear-gradient-7" x1="115.91" y1="-54.04" x2="133.73" y2="-12.54" gradientTransform="translate(12.46 188.34) rotate(-0.13)" gradientUnits="userSpaceOnUse"><stop offset="0.26" stop-color="#1b1464"/><stop offset="0.62" stop-color="#662d91"/></linearGradient><linearGradient id="linear-gradient-8" x1="143.61" y1="-41.14" x2="163.25" y2="-41.14" gradientTransform="translate(12.46 188.34) rotate(-0.13)" xlink:href="#linear-gradient-5"/><linearGradient id="linear-gradient-9" x1="127.99" y1="-11.34" x2="142.51" y2="-11.34" gradientTransform="translate(12.46 188.34) rotate(-0.13)" xlink:href="#linear-gradient-5"/><linearGradient id="linear-gradient-10" x1="148.48" y1="-9.33" x2="189.08" y2="-9.33" gradientTransform="translate(12.46 188.34) rotate(-0.13)" xlink:href="#linear-gradient-5"/><radialGradient id="radial-gradient-38" cx="-13.61" cy="-367.27" r="10.06" gradientTransform="matrix(2.5, -0.01, 0.01, 2.37, 138.95, 1115.32)" gradientUnits="userSpaceOnUse"><stop offset="0" stop-color="#9e005d"/><stop offset="0.22" stop-color="#ad1463"/><stop offset="0.66" stop-color="#d44673"/><stop offset="1" stop-color="#f67280"/></radialGradient><radialGradient id="radial-gradient-39" cx="23.62" cy="-405.72" r="29.71" xlink:href="#radial-gradient-38"/><linearGradient id="linear-gradient-11" x1="154.73" y1="-9.01" x2="147.93" y2="-9.21" xlink:href="#linear-gradient-6"/><radialGradient id="radial-gradient-40" cx="-2.38" cy="-403.95" r="7.81" gradientTransform="matrix(2.5, -0.01, 0.01, 2.37, 138.95, 1115.32)" gradientUnits="userSpaceOnUse"><stop offset="0.38" stop-color="#9e005d"/><stop offset="0.52" stop-color="#ad1463"/><stop offset="0.79" stop-color="#d44673"/><stop offset="1" stop-color="#f67280"/></radialGradient><linearGradient id="linear-gradient-12" x1="76.21" y1="-13.13" x2="112.14" y2="-13.13" gradientTransform="translate(43.67 184.51) rotate(-2.13)" xlink:href="#linear-gradient-6"/><linearGradient id="linear-gradient-13" x1="54.76" y1="-13.44" x2="104.87" y2="-13.3" gradientTransform="translate(43.67 184.51) rotate(-2.13)" gradientUnits="userSpaceOnUse"><stop offset="0.34" stop-color="#662d91"/><stop offset="0.56" stop-color="#41217b"/><stop offset="0.81" stop-color="#1b1464"/></linearGradient><linearGradient id="linear-gradient-14" x1="167.69" y1="-217.97" x2="176.55" y2="-217.97" gradientTransform="matrix(1.12, 0.12, -0.12, 1.17, -92.47, 383.62)" xlink:href="#linear-gradient-5"/><radialGradient id="radial-gradient-41" cx="-155.36" cy="-392.38" r="1.54" gradientTransform="matrix(2.43, -0.57, 0.6, 2.3, 739.48, 962.33)" xlink:href="#radial-gradient-38"/><radialGradient id="radial-gradient-42" cx="4.32" cy="-396.46" fx="-34.097061733513236" fy="-405.2999472323869" r="62.11" gradientTransform="matrix(2.5, -0.01, 0.01, 2.37, 138.95, 1115.32)" gradientUnits="userSpaceOnUse"><stop offset="0.36" stop-color="#1b1464"/><stop offset="0.39" stop-color="#470d62"/><stop offset="0.42" stop-color="#76065f"/><stop offset="0.45" stop-color="#93025e"/><stop offset="0.46" stop-color="#9e005d"/><stop offset="0.51" stop-color="#a8045c"/><stop offset="0.59" stop-color="#c30e5b"/><stop offset="0.63" stop-color="#d4145a"/></radialGradient><radialGradient id="radial-gradient-43" cx="-1312.92" cy="-258.98" r="3.84" gradientTransform="matrix(-2.46, 0.44, 0.44, 2.41, -2871.72, 1453.14)" xlink:href="#radial-gradient"/><radialGradient id="radial-gradient-44" cx="1315.51" cy="48.27" r="3.84" gradientTransform="matrix(2.3, -0.96, 0.98, 2.25, -2838.89, 1420.88)" xlink:href="#radial-gradient"/><radialGradient id="radial-gradient-45" cx="-212.7" cy="-1464.29" r="3.84" gradientTransform="matrix(2.38, 0.09, -0.08, 1.94, 627.85, 3119.33)" xlink:href="#radial-gradient"/><radialGradient id="radial-gradient-46" cx="1591.92" cy="195.97" r="3.84" gradientTransform="matrix(2.21, -1.15, 1.17, 2.16, -3515.06, 1666.84)" xlink:href="#radial-gradient"/><radialGradient id="radial-gradient-47" cx="-931.44" cy="-3247.28" r="3.84" gradientTransform="matrix(-2.39, 0.2, 0.12, 1.39, -1590.13, 4974.48)" xlink:href="#radial-gradient"/><radialGradient id="radial-gradient-48" cx="-362.84" cy="-367.7" r="3.84" gradientTransform="matrix(2.49, 0.14, -0.14, 2.44, 1082.88, 1204.13)" xlink:href="#radial-gradient"/><radialGradient id="radial-gradient-49" cx="1670.46" cy="-805.71" r="3.84" gradientTransform="matrix(2.14, -1.04, 0.88, 1.74, -2635.29, 3407.79)" xlink:href="#radial-gradient"/><radialGradient id="radial-gradient-50" cx="-815.06" cy="-226.08" r="3.84" gradientTransform="matrix(2.5, -0.06, 0.1, 2.44, 2224.35, 748.72)" xlink:href="#radial-gradient"/><radialGradient id="radial-gradient-51" cx="-854.11" cy="-1265.86" r="3.84" gradientTransform="matrix(2.39, -0.01, 0.04, 1.94, 2254.24, 2697.28)" xlink:href="#radial-gradient"/><radialGradient id="radial-gradient-52" cx="822.97" cy="-31.37" r="3.84" gradientTransform="matrix(-2.46, -0.49, -0.46, 2.39, 2185.11, 723.71)" xlink:href="#radial-gradient"/><radialGradient id="radial-gradient-53" cx="-714.04" cy="-1289.64" r="3.84" gradientTransform="matrix(-2.31, 0.56, 0.5, 1.88, -828.5, 3073.75)" xlink:href="#radial-gradient"/><radialGradient id="radial-gradient-54" cx="1107.75" cy="75.47" r="3.84" gradientTransform="matrix(-2.41, -0.68, -0.66, 2.35, 2900.68, 829.73)" xlink:href="#radial-gradient"/><radialGradient id="radial-gradient-55" cx="-419.08" cy="-3110.04" r="3.84" gradientTransform="matrix(2.38, -0.28, 0.19, 1.39, 1750.77, 4446.54)" xlink:href="#radial-gradient"/><radialGradient id="radial-gradient-56" cx="-839.42" cy="-219.98" r="3.84" gradientTransform="matrix(-2.41, 0.63, 0.68, 2.36, -1697.34, 1291.67)" xlink:href="#radial-gradient"/><radialGradient id="radial-gradient-57" cx="1160.91" cy="-941.55" r="3.84" gradientTransform="matrix(-2.32, -0.6, -0.48, 1.87, 2425.87, 2706.89)" xlink:href="#radial-gradient"/><radialGradient id="radial-gradient-58" cx="1420.79" cy="89.18" r="2.3" gradientTransform="matrix(2.31, -0.92, 0.94, 2.27, -3059.17, 1201.31)" xlink:href="#radial-gradient"/><radialGradient id="radial-gradient-59" cx="2004.45" cy="2829.88" r="2.3" gradientTransform="matrix(1.63, -3.57, 2.93, 1.29, -11238.44, 3593.61)" xlink:href="#radial-gradient"/><radialGradient id="radial-gradient-60" cx="3739.42" cy="4110.25" r="2.3" gradientTransform="matrix(0.12, -2.45, 2.49, 0.12, -10376.17, 8741.91)" xlink:href="#radial-gradient"/><radialGradient id="radial-gradient-61" cx="1313.01" cy="6337.23" r="2.3" gradientTransform="matrix(-2.62, -2.95, 2.42, -2.06, -11590.26, 17028.52)" xlink:href="#radial-gradient"/><radialGradient id="radial-gradient-62" cx="-132" cy="8214.93" r="2.3" gradientTransform="matrix(-2.44, -0.53, 0.53, -2.39, -4414, 19647.19)" xlink:href="#radial-gradient"/><radialGradient id="radial-gradient-63" cx="-2215.28" cy="6562.66" r="2.3" gradientTransform="matrix(-3.4, 2.03, -1.67, -2.69, 3713.25, 22223.31)" xlink:href="#radial-gradient"/><radialGradient id="radial-gradient-64" cx="2217.78" cy="538.3" r="2.3" gradientTransform="matrix(2.11, -1.31, 1.34, 2.07, -5070.74, 1865.7)" xlink:href="#radial-gradient"/><radialGradient id="radial-gradient-65" cx="1948.09" cy="5492.5" r="2.3" gradientTransform="matrix(-1.4, -3.66, 3, -1.1, -13434.58, 13268.5)" xlink:href="#radial-gradient"/><radialGradient id="radial-gradient-66" cx="3740.59" cy="3895.49" r="2.3" gradientTransform="matrix(0.22, -2.44, 2.49, 0.22, -10185.09, 8341.09)" xlink:href="#radial-gradient"/><radialGradient id="radial-gradient-67" cx="1406.5" cy="6217.14" r="2.3" gradientTransform="matrix(-2.5, -3.05, 2.5, -1.97, -11740.73, 16572.22)" xlink:href="#radial-gradient"/><radialGradient id="radial-gradient-68" cx="4035.52" cy="3907.08" r="2.3" gradientTransform="matrix(0.31, -2.43, 2.48, 0.31, -10638.18, 8677.83)" xlink:href="#radial-gradient"/><radialGradient id="radial-gradient-69" cx="1534.92" cy="6382.26" r="2.3" gradientTransform="matrix(-2.38, -3.14, 2.58, -1.87, -12509.33, 16845.19)" xlink:href="#radial-gradient"/><radialGradient id="radial-gradient-70" cx="1373.61" cy="8087.2" r="2.3" gradientTransform="matrix(-2.12, -1.3, 1.32, -2.07, -7511.1, 18635.42)" xlink:href="#radial-gradient"/><radialGradient id="radial-gradient-71" cx="-1478.79" cy="7300.55" r="2.3" gradientTransform="matrix(-3.9, 0.79, -0.65, -3.08, -737.84, 23741.51)" xlink:href="#radial-gradient"/><radialGradient id="radial-gradient-72" cx="2893.68" cy="7177.26" r="2.3" gradientTransform="matrix(-1.52, -1.94, 1.98, -1.49, -9513.32, 16370.35)" xlink:href="#radial-gradient"/><radialGradient id="radial-gradient-73" cx="-397.18" cy="7606.51" r="2.3" gradientTransform="matrix(-3.94, -0.6, 0.49, -3.11, -4981.91, 23472.44)" xlink:href="#radial-gradient"/><radialGradient id="radial-gradient-74" cx="1537.91" cy="7965.06" r="2.3" gradientTransform="matrix(-2.06, -1.38, 1.41, -2.02, -7774.03, 18275.28)" xlink:href="#radial-gradient"/><radialGradient id="radial-gradient-75" cx="-1351.58" cy="7320.25" r="2.3" gradientTransform="matrix(-3.93, 0.63, -0.52, -3.1, -1217.03, 23646.14)" xlink:href="#radial-gradient"/><radialGradient id="radial-gradient-76" cx="2312.89" cy="6722.41" r="2.3" gradientTransform="matrix(-1.33, -1.62, 1.52, -1.41, -6861.86, 13319.68)" xlink:href="#radial-gradient"/><radialGradient id="radial-gradient-77" cx="-463.09" cy="7038.46" r="2.32" gradientTransform="matrix(-3.21, -0.31, 0.23, -2.75, -2825.99, 19301.2)" xlink:href="#radial-gradient"/><radialGradient id="radial-gradient-78" cx="-1904.96" cy="7707" r="2.3" gradientTransform="matrix(-1.94, 0.6, -0.57, -2.06, 962.59, 17139.22)" xlink:href="#radial-gradient"/><radialGradient id="radial-gradient-79" cx="-2797.6" cy="5323.65" r="2.3" gradientTransform="matrix(-1.61, 2.97, -2.25, -1.38, 7750.67, 15777.96)" xlink:href="#radial-gradient"/><radialGradient id="radial-gradient-80" cx="-311.24" cy="7965.96" r="2.3" gradientTransform="matrix(-2.02, -0.16, 0.14, -2.14, -1510.38, 17099.36)" xlink:href="#radial-gradient"/><radialGradient id="radial-gradient-81" cx="-2188.61" cy="6326.3" r="2.3" gradientTransform="matrix(-2.48, 2.18, -1.66, -2.13, 5305.81, 18345.91)" xlink:href="#radial-gradient"/><radialGradient id="radial-gradient-82" cx="-1753.37" cy="7718.06" r="2.3" gradientTransform="matrix(-1.96, 0.51, -0.49, -2.09, 599.15, 17097.29)" xlink:href="#radial-gradient"/><radialGradient id="radial-gradient-83" cx="-2733.8" cy="5411.38" r="2.3" gradientTransform="matrix(-1.72, 2.9, -2.2, -1.48, 7434.52, 16029.87)" xlink:href="#radial-gradient"/><radialGradient id="radial-gradient-84" cx="-1680.8" cy="-844.94" r="2.3" gradientTransform="matrix(1.49, 1.51, -0.99, 1.54, 1976.34, 3968.62)" xlink:href="#radial-gradient"/><radialGradient id="radial-gradient-85" cx="1005.47" cy="636.76" r="2.3" gradientTransform="matrix(2.81, 0.05, 0.4, 2.77, -2763.28, -1682.8)" xlink:href="#radial-gradient"/><radialGradient id="radial-gradient-86" cx="3283.81" cy="903.24" r="2.3" gradientTransform="matrix(1.52, -0.76, 0.93, 2.02, -5524.41, 797.76)" xlink:href="#radial-gradient"/><radialGradient id="radial-gradient-87" cx="2495.01" cy="4289.41" r="2.3" gradientTransform="matrix(0.73, -3.11, 2.22, 1.2, -11016.94, 2727.02)" xlink:href="#radial-gradient"/><radialGradient id="radial-gradient-88" cx="2174.81" cy="-221.47" r="2.3" gradientTransform="matrix(1.75, -0.01, 0.34, 2.16, -3407.13, 631.3)" xlink:href="#radial-gradient"/><radialGradient id="radial-gradient-89" cx="2480.07" cy="3060.75" r="2.3" gradientTransform="matrix(1.64, -2.39, 1.88, 2, -9489.67, -47.83)" xlink:href="#radial-gradient"/><radialGradient id="radial-gradient-90" cx="3155.38" cy="709.59" r="2.3" gradientTransform="matrix(1.56, -0.68, 0.87, 2.05, -5205.42, 809.41)" xlink:href="#radial-gradient"/><radialGradient id="radial-gradient-91" cx="2520.72" cy="4111.48" r="2.3" gradientTransform="matrix(0.84, -3.04, 2.2, 1.3, -10802.04, 2448.45)" xlink:href="#radial-gradient"/><radialGradient id="radial-gradient-92" cx="2217.08" cy="-1461.38" r="2.3" gradientTransform="matrix(2.12, -0.33, 0.72, 1.67, -3335.33, 3291.35)" xlink:href="#radial-gradient"/><radialGradient id="radial-gradient-93" cx="3035.88" cy="2386.47" r="2.3" gradientTransform="matrix(1.65, -2.23, 2.56, 1.26, -10795.24, 3868.11)" xlink:href="#radial-gradient"/><radialGradient id="radial-gradient-94" cx="5481.05" cy="4181.3" r="2.3" gradientTransform="matrix(0.24, -1.66, 2.23, 0.4, -10300.73, 7497.66)" xlink:href="#radial-gradient"/><radialGradient id="radial-gradient-95" cx="2070.25" cy="7313.8" r="2.3" gradientTransform="matrix(-2.19, -2.35, 2.28, -1.1, -11836.78, 13003.14)" xlink:href="#radial-gradient"/><radialGradient id="radial-gradient-96" cx="5378.48" cy="2082.86" r="2.3" gradientTransform="matrix(1, -1.41, 2.01, 0.96, -9224.62, 5704.7)" xlink:href="#radial-gradient"/><radialGradient id="radial-gradient-97" cx="2932.14" cy="6079.01" r="2.3" gradientTransform="matrix(-1.06, -2.68, 2.75, -0.37, -13286.49, 10195.23)" xlink:href="#radial-gradient"/><radialGradient id="radial-gradient-98" cx="5483.67" cy="3895.89" r="2.3" gradientTransform="matrix(0.33, -1.64, 2.22, 0.47, -10107.81, 7248.48)" xlink:href="#radial-gradient"/><radialGradient id="radial-gradient-99" cx="2194.98" cy="7154.77" r="2.3" gradientTransform="matrix(-2.07, -2.41, 2.35, -1.02, -11946.96, 12671.87)" xlink:href="#radial-gradient"/><radialGradient id="radial-gradient-100" cx="-4810.05" cy="4206.97" r="19.4" gradientTransform="matrix(-0.08, 2.45, 1.77, 0, -7570.34, 11921.59)" xlink:href="#radial-gradient"/><radialGradient id="radial-gradient-101" cx="-843.29" cy="-355.44" r="4.15" gradientTransform="matrix(2.46, 0.42, -0.43, 2.41, 2182.82, 1441.9)" xlink:href="#radial-gradient"/><radialGradient id="radial-gradient-102" cx="-886.61" cy="-1428" r="4.15" gradientTransform="matrix(2.34, 0.46, -0.38, 1.9, 1789.22, 3354.8)" xlink:href="#radial-gradient"/><radialGradient id="radial-gradient-103" cx="879.1" cy="-151.17" r="4.15" gradientTransform="matrix(-2.3, -0.95, -0.97, 2.25, 2149.85, 1409.78)" xlink:href="#radial-gradient"/><radialGradient id="radial-gradient-104" cx="-714.42" cy="-1456.49" r="4.15" gradientTransform="matrix(-2.38, 0.1, 0.08, 1.94, -1309.29, 3123.64)" xlink:href="#radial-gradient"/><radialGradient id="radial-gradient-105" cx="1173.6" cy="-39.25" r="4.15" gradientTransform="matrix(-2.21, -1.14, -1.16, 2.17, 2827.11, 1652.73)" xlink:href="#radial-gradient"/><radialGradient id="radial-gradient-106" cx="-436.05" cy="-3339.9" r="4.15" gradientTransform="matrix(2.39, 0.19, -0.12, 1.39, 916.91, 4968.9)" xlink:href="#radial-gradient"/><radialGradient id="radial-gradient-107" cx="-842.32" cy="-352.42" r="4.15" gradientTransform="matrix(-2.49, 0.15, 0.15, 2.44, -1772.84, 1210.49)" xlink:href="#radial-gradient"/><radialGradient id="radial-gradient-108" cx="1226.58" cy="-1088.21" r="4.15" gradientTransform="matrix(-2.14, -1.03, -0.87, 1.74, 1955.1, 3397.58)" xlink:href="#radial-gradient"/><radialGradient id="radial-gradient-109" cx="-837.78" cy="-353.24" r="4.15" gradientTransform="matrix(2.46, 0.42, -0.43, 2.41, 2182.82, 1441.9)" xlink:href="#radial-gradient"/><radialGradient id="radial-gradient-110" cx="-880.81" cy="-1425.37" r="4.15" gradientTransform="matrix(2.34, 0.46, -0.38, 1.9, 1789.22, 3354.8)" xlink:href="#radial-gradient"/><radialGradient id="radial-gradient-111" cx="873.25" cy="-150.25" r="4.15" gradientTransform="matrix(-2.3, -0.95, -0.97, 2.25, 2149.85, 1409.78)" xlink:href="#radial-gradient"/><radialGradient id="radial-gradient-112" cx="-719.55" cy="-1452.29" r="4.15" gradientTransform="matrix(-2.38, 0.1, 0.08, 1.94, -1309.29, 3123.64)" xlink:href="#radial-gradient"/><radialGradient id="radial-gradient-113" cx="1167.69" cy="-38.83" r="4.15" gradientTransform="matrix(-2.21, -1.14, -1.16, 2.17, 2827.11, 1652.73)" xlink:href="#radial-gradient"/><radialGradient id="radial-gradient-114" cx="-430.56" cy="-3335.17" r="4.15" gradientTransform="matrix(2.39, 0.19, -0.12, 1.39, 916.91, 4968.9)" xlink:href="#radial-gradient"/><radialGradient id="radial-gradient-115" cx="-847.16" cy="-349" r="4.15" gradientTransform="matrix(-2.49, 0.15, 0.15, 2.44, -1772.84, 1210.49)" xlink:href="#radial-gradient"/><radialGradient id="radial-gradient-116" cx="1220.41" cy="-1087.49" r="4.15" gradientTransform="matrix(-2.14, -1.03, -0.87, 1.74, 1955.1, 3397.58)" xlink:href="#radial-gradient"/><radialGradient id="radial-gradient-117" cx="963.26" cy="-94.03" r="2.3" gradientTransform="matrix(-2.32, -0.91, -0.93, 2.27, 2369.15, 1189.23)" xlink:href="#radial-gradient"/><radialGradient id="radial-gradient-118" cx="1876.74" cy="2480.83" r="2.3" gradientTransform="matrix(-1.64, -3.56, -2.92, 1.3, 10558.98, 3545.11)" xlink:href="#radial-gradient"/><radialGradient id="radial-gradient-119" cx="3713.43" cy="3618.09" r="2.3" gradientTransform="matrix(-0.13, -2.44, -2.49, 0.13, 9719.64, 8697.2)" xlink:href="#radial-gradient"/><radialGradient id="radial-gradient-120" cx="1514.28" cy="6046.59" r="2.3" gradientTransform="matrix(2.61, -2.96, -2.43, -2.05, 10970.59, 16978.33)" xlink:href="#radial-gradient"/><radialGradient id="radial-gradient-121" cx="348.8" cy="8106.61" r="2.3" gradientTransform="matrix(2.44, -0.54, -0.54, -2.39, 3806.06, 19628.9)" xlink:href="#radial-gradient"/><radialGradient id="radial-gradient-122" cx="-1950.86" cy="6760.33" r="2.3" gradientTransform="matrix(3.41, 2.02, 1.66, -2.7, -4309.65, 22241.16)" xlink:href="#radial-gradient"/><radialGradient id="radial-gradient-123" cx="1799.93" cy="276.96" r="2.3" gradientTransform="matrix(-2.11, -1.3, -1.33, 2.07, 4383.66, 1844.67)" xlink:href="#radial-gradient"/><radialGradient id="radial-gradient-124" cx="2054.99" cy="5132.82" r="2.3" gradientTransform="matrix(1.39, -3.67, -3.01, -1.09, 12798.16, 13210.14)" xlink:href="#radial-gradient"/><radialGradient id="radial-gradient-125" cx="3694.67" cy="3404.79" r="2.3" gradientTransform="matrix(-0.23, -2.44, -2.49, 0.23, 9526.78, 8297.23)" xlink:href="#radial-gradient"/><radialGradient id="radial-gradient-126" cx="1598.12" cy="5916.59" r="2.3" gradientTransform="matrix(2.48, -3.06, -2.51, -1.96, 11119.02, 16521.36)" xlink:href="#radial-gradient"/><radialGradient id="radial-gradient-127" cx="3971.13" cy="3418.46" r="2.3" gradientTransform="matrix(-0.32, -2.43, -2.48, 0.32, 9981.36, 8631.95)" xlink:href="#radial-gradient"/><radialGradient id="radial-gradient-128" cx="1717.28" cy="6072.95" r="2.3" gradientTransform="matrix(2.36, -3.15, -2.58, -1.86, 11888.83, 16790.91)" xlink:href="#radial-gradient"/><radialGradient id="radial-gradient-129" cx="1789.94" cy="7823.45" r="2.3" gradientTransform="matrix(2.11, -1.31, -1.33, -2.07, 6898.62, 18603.36)" xlink:href="#radial-gradient"/><radialGradient id="radial-gradient-130" cx="-1176.25" cy="7376.18" r="2.3" gradientTransform="matrix(3.91, 0.77, 0.64, -3.08, 148.15, 23739.54)" xlink:href="#radial-gradient"/><radialGradient id="radial-gradient-131" cx="3191.7" cy="6784.72" r="2.3" gradientTransform="matrix(1.51, -1.95, -1.99, -1.48, 8890.74, 16329.4)" xlink:href="#radial-gradient"/><radialGradient id="radial-gradient-132" cx="-92.43" cy="7546.11" r="2.3" gradientTransform="matrix(3.94, -0.61, -0.5, -3.11, 4390.98, 23451.59)" xlink:href="#radial-gradient"/><radialGradient id="radial-gradient-133" cx="1943.21" cy="7684.65" r="2.3" gradientTransform="matrix(2.06, -1.39, -1.42, -2.01, 7159.94, 18242.05)" xlink:href="#radial-gradient"/><radialGradient id="radial-gradient-134" cx="-1046.83" cy="7380.59" r="2.3" gradientTransform="matrix(3.94, 0.62, 0.51, -3.11, 626.91, 23642.04)" xlink:href="#radial-gradient"/><radialGradient id="radial-gradient-135" cx="2710.41" cy="6261.33" r="2.3" gradientTransform="matrix(1.32, -1.63, -1.53, -1.4, 6225.73, 13290.56)" xlink:href="#radial-gradient"/><radialGradient id="radial-gradient-136" cx="-83.66" cy="6993.04" r="2.32" gradientTransform="matrix(3.21, -0.33, -0.24, -2.75, 2216.52, 19289.98)" xlink:href="#radial-gradient"/><radialGradient id="radial-gradient-137" cx="-1319.52" cy="7873.98" r="2.3" gradientTransform="matrix(1.94, 0.59, 0.56, -2.07, -1581.65, 17144.88)" xlink:href="#radial-gradient"/><radialGradient id="radial-gradient-138" cx="-2604.99" cy="5732.35" r="2.3" gradientTransform="matrix(1.62, 2.96, 2.25, -1.39, -8375.71, 15813.84)" xlink:href="#radial-gradient"/><radialGradient id="radial-gradient-139" cx="295.65" cy="7917.97" r="2.3" gradientTransform="matrix(2.01, -0.17, -0.15, -2.14, 891.12, 17094.01)" xlink:href="#radial-gradient"/><radialGradient id="radial-gradient-140" cx="-1893.25" cy="6625.71" r="2.3" gradientTransform="matrix(2.49, 2.17, 1.65, -2.14, -5919.45, 18370.88)" xlink:href="#radial-gradient"/><radialGradient id="radial-gradient-141" cx="-1161.64" cy="7861.17" r="2.3" gradientTransform="matrix(1.96, 0.51, 0.48, -2.09, -1218.4, 17101.34)" xlink:href="#radial-gradient"/><radialGradient id="radial-gradient-142" cx="-2528.02" cy="5810.06" r="2.3" gradientTransform="matrix(1.73, 2.89, 2.19, -1.49, -8058.44, 16064.34)" xlink:href="#radial-gradient"/><radialGradient id="radial-gradient-143" cx="-2179.4" cy="-351.3" r="2.3" gradientTransform="matrix(-1.48, 1.52, 1, 1.53, -2653.99, 3978.93)" xlink:href="#radial-gradient"/><radialGradient id="radial-gradient-144" cx="566.21" cy="646.12" r="2.3" gradientTransform="matrix(-2.81, 0.06, -0.39, 2.77, 2060.43, -1693.54)" xlink:href="#radial-gradient"/><radialGradient id="radial-gradient-145" cx="2626.36" cy="658.23" r="2.3" gradientTransform="matrix(-1.53, -0.75, -0.93, 2.02, 4832.58, 774.72)" xlink:href="#radial-gradient"/><radialGradient id="radial-gradient-146" cx="2303.6" cy="3798.1" r="2.3" gradientTransform="matrix(-0.74, -3.1, -2.22, 1.21, 10333.63, 2679.51)" xlink:href="#radial-gradient"/><radialGradient id="radial-gradient-147" cx="1473.18" cy="-221.47" r="2.3" gradientTransform="matrix(-1.75, 0, -0.33, 2.16, 2714.57, 617.68)" xlink:href="#radial-gradient"/><radialGradient id="radial-gradient-148" cx="2162.62" cy="2683.42" r="2.3" gradientTransform="matrix(-1.65, -2.38, -1.87, 2, 8794.03, -88.51)" xlink:href="#radial-gradient"/><radialGradient id="radial-gradient-149" cx="2488.53" cy="491.42" r="2.3" gradientTransform="matrix(-1.56, -0.67, -0.86, 2.05, 4513.64, 787.78)" xlink:href="#radial-gradient"/><radialGradient id="radial-gradient-150" cx="2313.44" cy="3630.21" r="2.3" gradientTransform="matrix(-0.85, -3.04, -2.19, 1.31, 10117.5, 2401.9)" xlink:href="#radial-gradient"/><radialGradient id="radial-gradient-151" cx="1672.59" cy="-1565.45" r="2.3" gradientTransform="matrix(-2.12, -0.32, -0.71, 1.67, 2654.61, 3278.03)" xlink:href="#radial-gradient"/><radialGradient id="radial-gradient-152" cx="2834.57" cy="2035.15" r="2.3" gradientTransform="matrix(-1.66, -2.22, -2.55, 1.27, 10117.01, 3821.58)" xlink:href="#radial-gradient"/><radialGradient id="radial-gradient-153" cx="5346.69" cy="3643.48" r="2.3" gradientTransform="matrix(-0.24, -1.65, -2.23, 0.41, 9638.66, 7453.29)" xlink:href="#radial-gradient"/><radialGradient id="radial-gradient-154" cx="2242.26" cy="6939.21" r="2.3" gradientTransform="matrix(2.18, -2.36, -2.28, -1.09, 11199.19, 12951.89)" xlink:href="#radial-gradient"/><radialGradient id="radial-gradient-155" cx="5064.76" cy="1625.83" r="2.3" gradientTransform="matrix(-1.01, -1.41, -2, 0.96, 8554.58, 5665.14)" xlink:href="#radial-gradient"/><radialGradient id="radial-gradient-156" cx="2988.03" cy="5653.38" r="2.3" gradientTransform="matrix(1.05, -2.69, -2.75, -0.35, 12636.39, 10137.55)" xlink:href="#radial-gradient"/><radialGradient id="radial-gradient-157" cx="5327.62" cy="3363.96" r="2.3" gradientTransform="matrix(-0.33, -1.64, -2.21, 0.48, 9444.63, 7204.97)" xlink:href="#radial-gradient"/><radialGradient id="radial-gradient-158" cx="2354.62" cy="6771.83" r="2.3" gradientTransform="matrix(2.06, -2.42, -2.35, -1.01, 11307.9, 12620.13)" xlink:href="#radial-gradient"/><radialGradient id="radial-gradient-159" cx="-4969.93" cy="3680.97" r="19.4" gradientTransform="matrix(0.1, 1.76, -2.78, -0.34, 10996.02, 10194.21)" xlink:href="#radial-gradient"/><radialGradient id="radial-gradient-160" cx="-1327.61" cy="-266.08" r="4.15" gradientTransform="matrix(-2.46, 0.44, 0.44, 2.41, -2871.72, 1453.14)" xlink:href="#radial-gradient"/><radialGradient id="radial-gradient-161" cx="-1390.99" cy="-1301.84" r="4.15" gradientTransform="matrix(-2.34, 0.47, 0.39, 1.9, -2469.61, 3364.28)" xlink:href="#radial-gradient"/><radialGradient id="radial-gradient-162" cx="1331.04" cy="44.58" r="4.15" gradientTransform="matrix(2.3, -0.96, 0.98, 2.25, -2838.89, 1420.88)" xlink:href="#radial-gradient"/><radialGradient id="radial-gradient-163" cx="-199.58" cy="-1476.88" r="4.15" gradientTransform="matrix(2.38, 0.09, -0.08, 1.94, 627.85, 3119.33)" xlink:href="#radial-gradient"/><radialGradient id="radial-gradient-164" cx="1607.6" cy="193.55" r="4.15" gradientTransform="matrix(2.21, -1.15, 1.17, 2.16, -3515.06, 1666.84)" xlink:href="#radial-gradient"/><radialGradient id="radial-gradient-165" cx="-946.04" cy="-3261.71" r="4.15" gradientTransform="matrix(-2.39, 0.2, 0.12, 1.39, -1590.13, 4974.48)" xlink:href="#radial-gradient"/><radialGradient id="radial-gradient-166" cx="-350.49" cy="-378.08" r="4.15" gradientTransform="matrix(2.49, 0.14, -0.14, 2.44, 1082.88, 1204.13)" xlink:href="#radial-gradient"/><radialGradient id="radial-gradient-167" cx="1686.77" cy="-809.14" r="4.15" gradientTransform="matrix(2.14, -1.04, 0.88, 1.74, -2635.29, 3407.79)" xlink:href="#radial-gradient"/><radialGradient id="radial-gradient-168" cx="-1322.49" cy="-264.8" r="4.15" gradientTransform="matrix(-2.46, 0.44, 0.44, 2.41, -2871.72, 1453.14)" xlink:href="#radial-gradient"/><radialGradient id="radial-gradient-169" cx="1325.76" cy="44.68" r="4.15" gradientTransform="matrix(2.3, -0.96, 0.98, 2.25, -2838.89, 1420.88)" xlink:href="#radial-gradient"/><radialGradient id="radial-gradient-170" cx="-204.53" cy="-1473.91" r="4.15" gradientTransform="matrix(2.38, 0.09, -0.08, 1.94, 627.85, 3119.33)" xlink:href="#radial-gradient"/><radialGradient id="radial-gradient-171" cx="1602.33" cy="193.22" r="4.15" gradientTransform="matrix(2.21, -1.15, 1.17, 2.16, -3515.06, 1666.84)" xlink:href="#radial-gradient"/><radialGradient id="radial-gradient-172" cx="-940.86" cy="-3258.65" r="4.15" gradientTransform="matrix(-2.39, 0.2, 0.12, 1.39, -1590.13, 4974.48)" xlink:href="#radial-gradient"/><radialGradient id="radial-gradient-173" cx="-355.18" cy="-375.64" r="4.15" gradientTransform="matrix(2.49, 0.14, -0.14, 2.44, 1082.88, 1204.13)" xlink:href="#radial-gradient"/><radialGradient id="radial-gradient-174" cx="1681.25" cy="-809.39" r="4.15" gradientTransform="matrix(2.14, -1.04, 0.88, 1.74, -2635.29, 3407.79)" xlink:href="#radial-gradient"/><radialGradient id="radial-gradient-175" cx="3243.27" cy="7227.2" r="2.3" gradientTransform="matrix(1, 1.82, 1.99, -0.72, -17352.97, -590.22)" xlink:href="#radial-gradient"/><radialGradient id="radial-gradient-176" cx="-260.64" cy="7822.57" r="2.32" gradientTransform="matrix(-1.04, 2.9, 2.73, 0.95, -21411.57, -6557.93)" xlink:href="#radial-gradient"/><radialGradient id="radial-gradient-177" cx="-1972.09" cy="8763.37" r="2.3" gradientTransform="matrix(-1.38, 1.42, 1.74, 1.35, -17756.28, -8916.7)" xlink:href="#radial-gradient"/><radialGradient id="radial-gradient-178" cx="-3285.21" cy="5881.38" r="2.3" gradientTransform="matrix(-3.52, 0.15, 0.39, 2.52, -13618.73, -14190.71)" xlink:href="#radial-gradient"/><radialGradient id="radial-gradient-179" cx="-5.23" cy="8979.26" r="2.3" gradientTransform="matrix(-0.69, 1.8, 2.12, 0.77, -18749.34, -6771.87)" xlink:href="#radial-gradient"/><radialGradient id="radial-gradient-180" cx="-2488.76" cy="7060.49" r="2.3" gradientTransform="matrix(-3.13, 1.23, 1.35, 2.32, -17103.31, -13157.63)" xlink:href="#radial-gradient"/><radialGradient id="radial-gradient-181" cx="-1777.63" cy="8776.28" r="2.3" gradientTransform="matrix(-1.31, 1.47, 1.8, 1.29, -17867.6, -8586.44)" xlink:href="#radial-gradient"/><radialGradient id="radial-gradient-182" cx="-3202.82" cy="5993.21" r="2.3" gradientTransform="matrix(-3.5, 0.27, 0.5, 2.51, -13992.38, -14023.69)" xlink:href="#radial-gradient"/><radialGradient id="radial-gradient-183" cx="19.69" cy="13.98" r="18.55" gradientTransform="translate(12.5 188.29)" xlink:href="#radial-gradient-8"/><radialGradient id="radial-gradient-184" cx="66.6" cy="14.09" r="18.55" gradientTransform="translate(12.5 188.19)" xlink:href="#radial-gradient-8"/></defs><title>Asset 2</title><g id="Layer_2" data-name="Layer 2"><g id="Layer_1-2" data-name="Layer 1"><g class="cls-2"><path class="cls-3" d="M76.65,133.83c-2.94-5.05-10.21-6.58-10.76-12.86,0-.17-.26-3.34,1.16-4.71s4.07-.47,5.63,1.28,1.43,4,2.48,4.29c1.75.49,2.86-5.06,5.8-5.57,2-.35,4.57,1.66,5,4.07C86.81,125.77,76.65,133.83,76.65,133.83Z" transform="translate(0 -0.05)"/></g><g class="cls-4"><path class="cls-3" d="M24.06,325.37c-4.4-7.51-15.26-9.78-16.1-19.14,0-.25-.4-5,1.71-7s6.08-.71,8.41,1.9c2.53,2.82,2.14,5.94,3.72,6.38,2.61.73,4.25-7.55,8.63-8.32,3-.53,6.83,2.46,7.43,6C39.21,313.32,24.06,325.37,24.06,325.37Z" transform="translate(0 -0.05)"/></g><g class="cls-5"><path class="cls-3" d="M263,265.29c-2.94-5-10.18-6.52-10.74-12.76,0-.17-.27-3.32,1.14-4.69s4.05-.47,5.61,1.27,1.43,4,2.48,4.26c1.74.48,2.83-5,5.75-5.55,2-.35,4.56,1.64,4.95,4C273.08,257.26,263,265.29,263,265.29Z" transform="translate(0 -0.05)"/></g><g class="cls-6"><path class="cls-3" d="M269.42,76.12c-4-6.83-13.88-8.89-14.64-17.39,0-.24-.36-4.53,1.56-6.4s5.52-.64,7.64,1.73c2.3,2.57,1.95,5.4,3.38,5.8,2.37.66,3.87-6.86,7.85-7.56,2.69-.48,6.21,2.23,6.75,5.5C283.18,65.17,269.42,76.12,269.42,76.12Z" transform="translate(0 -0.05)"/></g><g class="cls-7"><path class="cls-3" d="M321.74,287.88c-2.93-5-10.18-6.52-10.74-12.76,0-.17-.26-3.32,1.15-4.69s4.05-.47,5.6,1.27,1.43,4,2.48,4.25c1.74.49,2.84-5,5.76-5.55,2-.35,4.55,1.64,4.95,4C331.84,279.84,321.74,287.88,321.74,287.88Z" transform="translate(0 -0.05)"/></g><g class="cls-8"><path class="cls-3" d="M102.1,209.6c-5.43-9.27-18.84-12.07-19.88-23.62,0-.32-.49-6.15,2.12-8.69s7.49-.87,10.38,2.35c3.12,3.49,2.64,7.33,4.59,7.88,3.22.89,5.25-9.33,10.65-10.28,3.67-.65,8.44,3,9.17,7.47C120.8,194.73,102.1,209.6,102.1,209.6Z" transform="translate(0 -0.05)"/></g><g class="cls-9"><path class="cls-3" d="M227.11,24.91C222.86,18,212.38,16,211.57,7.41c0-.23-.38-4.55,1.66-6.43s5.86-.65,8.11,1.73c2.44,2.59,2.07,5.44,3.59,5.84,2.51.67,4.1-6.9,8.32-7.61,2.87-.48,6.59,2.25,7.17,5.53C241.72,13.89,227.11,24.91,227.11,24.91Z" transform="translate(0 -0.05)"/></g><path class="cls-10" d="M29,203.86c.07,0-.24-7.16,4-12.92a14.82,14.82,0,0,1,6.1-5.05c.08.13-5.21,2.88-8.15,8.78A18,18,0,0,0,29,203.86Z" transform="translate(0 -0.05)"/><path class="cls-11" d="M28.09,203.23c-.07,0,1.77-7-1.2-13.2a12.67,12.67,0,0,0-4.95-5.64c-.1.12,4.53,3.4,6.17,9.54A17.76,17.76,0,0,1,28.09,203.23Z" transform="translate(0 -0.05)"/><path class="cls-12" d="M26.36,202.44c-.05,0,3.73-4.45,3.16-10.27a12.19,12.19,0,0,0-2.37-6.3c-.13,0,2.73,4.46,2.17,9.71A12,12,0,0,1,26.36,202.44Z" transform="translate(0 -0.05)"/><path class="cls-13" d="M26.67,202.53c-.07,0,1.23-7.15-2.24-13A12.46,12.46,0,0,0,19,184.41c-.1.13,4.8,3,6.93,8.9A17.46,17.46,0,0,1,26.67,202.53Z" transform="translate(0 -0.05)"/><path class="cls-14" d="M29.46,203.85a8.4,8.4,0,0,1,3.37-7,11.64,11.64,0,0,1,5.53-2c.08.09-4.77.87-7.33,3.91A6.38,6.38,0,0,0,29.46,203.85Z" transform="translate(0 -0.05)"/><path class="cls-15" d="M27.17,201c-.06,0,4.46-5.68,4.44-12.79a14.31,14.31,0,0,0-1.94-7.58c-.14.06,2.51,5.31,1.38,11.78A18.25,18.25,0,0,1,27.17,201Z" transform="translate(0 -0.05)"/><path class="cls-16" d="M25.91,203.11c-.07,0,1.4-5.69-1.72-10.33a10.93,10.93,0,0,0-5-4.1c-.1.1,4.48,2.36,6.32,7.09A11.69,11.69,0,0,1,25.91,203.11Z" transform="translate(0 -0.05)"/><rect class="cls-17" x="76.7" y="165.87" width="1.47" height="35.13" transform="translate(-0.41 0.12) rotate(-0.13)"/><path class="cls-18" d="M238.8,249.34c.06,0-1.08-5.83,1.86-10.82a11.41,11.41,0,0,1,4.59-4.55,18.25,18.25,0,0,0-5.89,7.73A14,14,0,0,0,238.8,249.34Z" transform="translate(0 -0.05)"/><path class="cls-19" d="M237.94,248.89c-.05,0,.66-5.88-2.64-10.69a11.64,11.64,0,0,0-4.92-4.25,18.53,18.53,0,0,1,6.45,7.35A14,14,0,0,1,237.94,248.89Z" transform="translate(0 -0.05)"/><path class="cls-20" d="M236.38,248.37a11.93,11.93,0,0,0,1.43-8.61,10.67,10.67,0,0,0-2.8-5c-.1,0,2.88,3.45,3.05,7.77A9.12,9.12,0,0,1,236.38,248.37Z" transform="translate(0 -0.05)"/><path class="cls-21" d="M236.64,248.41s.18-5.92-3.5-10.42a11.51,11.51,0,0,0-5.23-3.82,18.49,18.49,0,0,1,7,6.77A13.87,13.87,0,0,1,236.64,248.41Z" transform="translate(0 -0.05)"/><path class="cls-22" d="M239.2,249.3a6.34,6.34,0,0,1,2-6,9.74,9.74,0,0,1,4.47-2c.08.07-4,1.05-5.78,3.7A4.89,4.89,0,0,0,239.2,249.3Z" transform="translate(0 -0.05)"/><path class="cls-23" d="M236.88,247.1s3.12-4.95,2.22-10.74a12.15,12.15,0,0,0-2.58-6.05c-.12.05,2.79,4.15,2.62,9.51A13.64,13.64,0,0,1,236.88,247.1Z" transform="translate(0 -0.05)"/><path class="cls-24" d="M236.07,248.94c-.06,0,.49-4.74-2.73-8.3a10.11,10.11,0,0,0-4.76-3c-.07.08,4.12,1.61,6.27,5.34A9.32,9.32,0,0,1,236.07,248.94Z" transform="translate(0 -0.05)"/><path class="cls-25" d="M136.71,110.88h0c-1.08-1.76-3.75-2.29-4-4.48,0-.06-.1-1.16.42-1.64s1.5-.17,2.07.44.53,1.39.92,1.5c.64.17,1-1.77,2.12-2a1.79,1.79,0,0,1,1.83,1.41C140.44,108.06,136.71,110.88,136.71,110.88Z" transform="translate(0 -0.05)"/><path class="cls-26" d="M149.33,116.5h0c-.86-1.29-3-1.67-3.16-3.27,0,0-.08-.85.34-1.2s1.19-.12,1.65.32.42,1,.73,1.09c.51.13.84-1.29,1.7-1.42a1.43,1.43,0,0,1,1.46,1C152.31,114.44,149.33,116.5,149.33,116.5Z" transform="translate(0 -0.05)"/><path class="cls-27" d="M159.39,111h0c-1.08-1.76-3.76-2.29-4-4.48a2.31,2.31,0,0,1,.42-1.65c.52-.48,1.49-.16,2.07.45s.52,1.39.91,1.49c.64.17,1-1.77,2.13-2a1.81,1.81,0,0,1,1.83,1.42C163.12,108.17,159.39,111,159.39,111Z" transform="translate(0 -0.05)"/><path class="cls-28" d="M152.34,128.87h0c-.86-1.28-3-1.67-3.16-3.27a1.57,1.57,0,0,1,.33-1.2c.42-.35,1.2-.12,1.66.32s.42,1,.73,1.09c.51.13.83-1.29,1.69-1.42a1.41,1.41,0,0,1,1.46,1C155.32,126.81,152.34,128.87,152.34,128.87Z" transform="translate(0 -0.05)"/><path class="cls-29" d="M254.84,232.17c.09,0-4.05-8.38-1.36-17.18,1.69-5.53,5.36-8.89,5.49-8.81s-5.44,5.82-6.29,14.18A20.9,20.9,0,0,0,254.84,232.17Z" transform="translate(0 -0.05)"/><path class="cls-30" d="M253.29,231.85c-.08,0-1.3-9.19-8.47-15.08-4.5-3.71-9.45-4.54-9.52-4.39s7.8,1.92,13.19,8.44A20.88,20.88,0,0,1,253.29,231.85Z" transform="translate(0 -0.05)"/><path class="cls-31" d="M250.59,231.72c-.09,0,2.64-7-1.15-13.65a16.55,16.55,0,0,0-6.44-6.35c-.15.1,6,4,8,10.49A13.87,13.87,0,0,1,250.59,231.72Z" transform="translate(0 -0.05)"/><path class="cls-32" d="M251,231.67c-.08,0-2.08-9-9.72-14.33-4.81-3.33-9.81-3.74-9.87-3.59s7.94,1.28,13.86,7.33A20.91,20.91,0,0,1,251,231.67Z" transform="translate(0 -0.05)"/><path class="cls-33" d="M255.45,232a9.65,9.65,0,0,1,.82-9.9,16.5,16.5,0,0,1,6.32-5c.15.07-5.9,3.25-7.74,8A7.39,7.39,0,0,0,255.45,232Z" transform="translate(0 -0.05)"/><path class="cls-34" d="M250.88,229.58c-.09,0,3-8.8-.74-17.21-2.35-5.29-6.41-8.18-6.53-8.08s6.11,5.12,8,13.31A20.77,20.77,0,0,1,250.88,229.58Z" transform="translate(0 -0.05)"/><path class="cls-35" d="M250.33,232.71c-.09,0-1.1-7.39-7.66-11.43a17,17,0,0,0-8.77-2.56c-.08.17,7.2.72,12.11,5.48A14,14,0,0,1,250.33,232.71Z" transform="translate(0 -0.05)"/><path class="cls-36" d="M17.47,199.89A80.6,80.6,0,0,1,47.35,195c14.33.44,20.87,4.68,34.73,6.56,16.72,2.27,27.18-1.17,39.4-3.13,31.64-5.06,40.41,8.43,73.15,6.48a159.6,159.6,0,0,0,26.12-3.73" transform="translate(0 -0.05)"/><path class="cls-37" d="M82.46,225.76A22.52,22.52,0,0,1,81.71,214a13.11,13.11,0,0,1,3-6,21.88,21.88,0,0,0-3.44,9.67A17.16,17.16,0,0,0,82.46,225.76Z" transform="translate(0 -0.05)"/><path class="cls-38" d="M81.62,225.54c-.05,0-.72-6.27-4.64-10.3a9.47,9.47,0,0,0-5.21-3A16,16,0,0,1,79,218,16.52,16.52,0,0,1,81.62,225.54Z" transform="translate(0 -0.05)"/><path class="cls-39" d="M80.14,225.45a15,15,0,0,0-.63-9.31A10.1,10.1,0,0,0,76,211.8,16.09,16.09,0,0,1,80.34,219,11.62,11.62,0,0,1,80.14,225.45Z" transform="translate(0 -0.05)"/><path class="cls-40" d="M80.38,225.42s-1.14-6.17-5.32-9.79a9.16,9.16,0,0,0-5.4-2.45,15.37,15.37,0,0,1,7.59,5A15.91,15.91,0,0,1,80.38,225.42Z" transform="translate(0 -0.05)"/><path class="cls-41" d="M82.8,225.61a8,8,0,0,1,.44-6.75,9.51,9.51,0,0,1,3.46-3.39c.08.05-3.22,2.22-4.23,5.48A6.05,6.05,0,0,0,82.8,225.61Z" transform="translate(0 -0.05)"/><path class="cls-42" d="M80.3,224s1.63-6-.41-11.74a12.31,12.31,0,0,0-3.58-5.52,20.75,20.75,0,0,1,4.37,9.09A17.45,17.45,0,0,1,80.3,224Z" transform="translate(0 -0.05)"/><path class="cls-43" d="M80,226.13s-.61-5-4.2-7.81A7.83,7.83,0,0,0,71,216.58c-.05.11,3.94.49,6.62,3.73A10.79,10.79,0,0,1,80,226.13Z" transform="translate(0 -0.05)"/><path class="cls-44" d="M32.26,223.63c.05,0-2.28-5.62-.77-11.52a12.76,12.76,0,0,1,3.09-5.91A21.27,21.27,0,0,0,31,215.71,16.12,16.12,0,0,0,32.26,223.63Z" transform="translate(0 -0.05)"/><path class="cls-45" d="M31.39,223.42c-.05,0-.74-6.16-4.77-10.12a10,10,0,0,0-5.36-3A16.63,16.63,0,0,1,28.68,216,15.77,15.77,0,0,1,31.39,223.42Z" transform="translate(0 -0.05)"/><path class="cls-46" d="M29.86,223.33a14.1,14.1,0,0,0-.64-9.15,10.23,10.23,0,0,0-3.63-4.27,15.74,15.74,0,0,1,4.48,7A10.87,10.87,0,0,1,29.86,223.33Z" transform="translate(0 -0.05)"/><path class="cls-47" d="M30.12,223.3c-.05,0-1.18-6.07-5.48-9.62a9.68,9.68,0,0,0-5.55-2.41,16,16,0,0,1,7.8,4.92A15.44,15.44,0,0,1,30.12,223.3Z" transform="translate(0 -0.05)"/><path class="cls-48" d="M32.6,223.49a7.53,7.53,0,0,1,.46-6.64,9.7,9.7,0,0,1,3.55-3.33c.09,0-3.31,2.18-4.35,5.39A5.78,5.78,0,0,0,32.6,223.49Z" transform="translate(0 -0.05)"/><path class="cls-49" d="M30,221.9c-.05,0,1.68-5.9-.42-11.55a12.11,12.11,0,0,0-3.68-5.42,20.23,20.23,0,0,1,4.49,8.93A16.53,16.53,0,0,1,30,221.9Z" transform="translate(0 -0.05)"/><path class="cls-50" d="M29.72,224s-.62-5-4.32-7.67a8.42,8.42,0,0,0-4.93-1.72c0,.11,4.05.49,6.82,3.67A10.41,10.41,0,0,1,29.72,224Z" transform="translate(0 -0.05)"/><path class="cls-51" d="M309.11,239.22l6.46,1.85a30,30,0,0,0,9.63.41c4.95-.61,7.46-2.26,11.78-1.32,2.2.49,4.61,3.06,4.89,2.72.05,0,0-.16,0-.18-.33-.86-4.28-.17-5.32,0a29.24,29.24,0,0,0-7.32,2.35c-8.61,3.84-9.38,1.13-13.64,4.19-4.52,3.26-5.51,6.19-9.45,7.74a14.82,14.82,0,0,0-3.46,1.7c-2.12,1.47-2.63,2.9-5.34,3.56-6.42,1.56-18.06-2.81-18.45-2.64a.59.59,0,0,0-.26.19c-.35.58.95,2,1.51,2.58a18.08,18.08,0,0,0,3.82,3.08,8.32,8.32,0,0,1-9-1.29c-4.41-3-13,5.31-24.4,7.9A56.31,56.31,0,0,1,233,273c-2.41-.16-18.2-1.26-19.12-5.62-.74-3.51,8.75-6.43,7.94-8.3-1.09-2.57-19.2,2-42.46,2.27-15,.19-31.91-1.4-32.39-4.72s13.85-5.93,13.25-9.19c-.8-4.31-26.48-2-31.34-11.7a6.58,6.58,0,0,1-.59-2.36,5.48,5.48,0,0,0-.48-1.12c-2-3.59-7.52-3.84-24.34-3.23-6.48.24-14.62.6-14.62.6a49.83,49.83,0,0,0-13-3.38c-4.36-.42-3.48.6-11.92.59-3.57,0-8.82-.19-8.87.33,0,.11.22.19.21.26-.11.41-8.67-1.69-8.67-1.69a106.86,106.86,0,0,1-32-.49A107.66,107.66,0,0,1,.12,221.72c2.08.38,5,.81,5.3.12a.2.2,0,0,0,0-.14c-.14-.54-2.86-.3-5.31,0l-.12.14c36.17,2.24,45-4.08,45-4.08a36.73,36.73,0,0,1,6.74-3.72c3.64-1.56,6.82-2.87,9.62-1.67s2.74,3.6,4.77,5.91c3.88,4.41,10.66,3.37,19.51,2.8,13.83-.9,9.18.88,26-.06,7.31-.41,16.7-1.22,27.62-2.9a71.66,71.66,0,0,0,23.3,4.66,66.51,66.51,0,0,0,12.09-.51c8.32-1.17,9.9-3.15,14-2,4.73,1.37,5.87,4.94,10.16,4.81a9.31,9.31,0,0,0,5.71-2.35c-.06-.13-5.73,2.32-5.71,2.35s5.89-2.12,5.79-2.43-8.22,1.9-8.21,1.95,4.57-1.33,8.21-1.95c9.52-1.62,13.4,1.77,25.14,3.81,18.31,3.19,34-.69,39.15-2,1.51-.39,2.75-.75,3.59-1h0a5.73,5.73,0,0,1-3.59,1c-1.79-.14-3.85-1.22-4.36-2.89s1.14-3,.48-3.87c-1.4-1.76-7.31.35-7.25,1.47,0,.68,2.27.43,4.84,1.92,2.82,1.64,2.79,3.5,5.33,6.76a10.54,10.54,0,0,1,1.86,1.67,11.22,11.22,0,0,1,2.5,5.08,8.66,8.66,0,0,0,2.91,3.38c3.51,2.31,8.55,1.41,10.15,1.43,9.35,1.71,11.45,2,14,1.9A29.11,29.11,0,0,0,309.11,239.22Z" transform="translate(0 -0.05)"/><path class="cls-52" d="M134,151.89c.2-.8-1.63-1.32-2.26-3.51-.38-1.32-.32-3.24.79-4,1.28-.83,2.74.94,4.61.47,2.89-.71,3.81-5.94,4.18-8a27.16,27.16,0,0,0-.17-9.51v0l-.51-.65c-.52-.65-1-1.31-1.54-2-1-.24-12.82-2.84-17.73,2.13a11.39,11.39,0,0,0-1.62,2.18,10.48,10.48,0,0,0-.2,10c1.63,2.84,3.64,2.36,4.39,4.7,1,3.23-2.47,5.35-1.37,7.45C124.15,154.26,133.52,153.63,134,151.89Z" transform="translate(0 -0.05)"/><path class="cls-53" d="M119.87,150.28a7.29,7.29,0,0,1,5,0c1,.43,1.67,1.09,2.56.87s.82-.84,1.69-1.61a5.51,5.51,0,0,1,4.11-1.3c1.62.21,2.62,1.49,3.47,2.49,3.85,4.56,5.78,6.84,6.83,9.15,2,4.35,3.92,8.64,2.22,12-2.73,5.36-15.33,7.94-23.15,2.38C113.44,167.68,115.41,152.43,119.87,150.28Z" transform="translate(0 -0.05)"/><path class="cls-54" d="M75.1,231.09c-.61-1.2,4.74-3.71,11.3-9.54a74.5,74.5,0,0,0,17.64-24c3.47-7.57,4.57-13.91,5.76-20.52a69.4,69.4,0,0,0,1.52-16.08s0-.34-.44-8.31c0,0,2.08-.31,3.25-.54a25.29,25.29,0,0,0,4.53-1.35c3.08-1.23,4.54-2.54,5-2.16s-.9,1.6-.7,3.35c.37,3.28,6,5.75,6,5.75a13.21,13.21,0,0,0,0,8.58,14.22,14.22,0,0,0,6.1,7.36l5.52,1.86s.83,1.74,1.14,2.27a10.45,10.45,0,0,0,3.4,3.48A327.05,327.05,0,0,1,111.19,227a56,56,0,0,1-15,12.23c-8.39,4.62-17.54,6.69-18,5.8-.26-.55,3-1.82,8.19-5.78a54.3,54.3,0,0,0,12.15-12.49c.5-.74.61-.95,5.78-10.06-7.27,6.18-11,9.31-14.27,11C83.52,231.11,75.79,232.45,75.1,231.09Z" transform="translate(0 -0.05)"/><path class="cls-55" d="M131.75,148.22h0c-2,.24,4.16-1,5.94-.15.41.19.86.48,2.7,3.61,1.26,2.15,2,3.53,3.41,6.29,1.24,2.35,2,3.74,2,3.75s-.35-.56-1.71-2.94a3.48,3.48,0,0,1-.28-.81,19,19,0,0,1,2,3.75c.94,2.3,2.38,5.95.81,9.23-1.18,2.46-4.08,4.59-5.78,4s-.93-3.8-1.9-9.26C138.92,165.64,138.41,162.73,131.75,148.22Z" transform="translate(0 -0.05)"/><path class="cls-56" d="M156.21,155c.16-.61,1.53-.35,2.72-1.62.72-.76,1.37-2.07.9-2.92-.56-1-2.18-.28-3.17-1.22-2.72-2.62,3.65-13.14,3.65-13.14l2.26-1.08c4.68,2.56,7.87,4.34,10.78,7.34,2.06,2.14,2.26,3.11,2.27,3.75,0,2.28-2.3,4.22-4.09,5.1-2.8,1.38-4.39.26-5.86,1.65-1.85,1.75-.22,4.37-1.77,5.47C161.74,159.86,155.87,156.31,156.21,155Z" transform="translate(0 -0.05)"/><path class="cls-57" d="M142.43,172.69c-1.53,1.51.54,3.07-1.31,7-.45,1-.92,1.59-.55,2.1.6.86,2.87.73,6.36,0,3.73-.73,5.74-1.13,7-3s1.49-4.16.24-5.75C151.76,170.06,144.5,170.66,142.43,172.69Z" transform="translate(0 -0.05)"/><path class="cls-58" d="M162.64,165.17c2.18,1.9,4.15,4,6.4,5.82a64.7,64.7,0,0,1,6.36,5.69c4.65,4.69,7,7.06,8,8.54,2,2.79,1.88,3.5,4.4,6.84a21,21,0,0,0,5.15,5.12,21.7,21.7,0,0,0,3,1.67c1,.46,3.87,1.79,4.24,1.31.54-.71-4.7-4.76-4.1-5.55s4.14,1.68,5.14.7c.73-.71-.24-2.84-1.21-4.14-2.71-3.58-7.92-4-9.84-4.11-2.75-4.26-5.41-7.87-7.74-10.82a114.7,114.7,0,0,0-7.58-8.82l-.8-.83c-3.34-3.62-3.36-5.74-5.84-7.87a10.88,10.88,0,0,0-2.84-1.73c-1.2.79-5.08,3.49-4.51,6C161.12,163.86,161.71,164.36,162.64,165.17Z" transform="translate(0 -0.05)"/><path class="cls-59" d="M68.7,248.86c-.29,2.25,5.15,5.62,10.77,6.28,5.85.68,8.18-2,20.09-6.21,9.84-3.49,14.85-5.19,19.38-3.4,3.16,1.26,3.21,2.82,9.22,6a51.49,51.49,0,0,0,9.2,3.87s-3.42-1.12-7.22-2.93c-12.48-6-13.91-12.69-22.82-14.29-3-.54-5.26-.21-9.48.42-6.39,1-7.78,2.56-17.68,5.8C71.8,247.16,68.91,247.29,68.7,248.86Z" transform="translate(0 -0.05)"/><path d="M156.2,135.3a3.33,3.33,0,0,1-1.42-2.41,3.18,3.18,0,0,1,2.55-2.82c1.76-.26,2.34,1.75,4.81,2.14,1.91.29,2.47-.77,4.81-1.09a11.67,11.67,0,0,1,7.51,2c.67.41,4.6,2.82,5.53,7.09.16.71.22,1.44-1.39,8.84-1.09,5-1.44,6.13-1,7.91a11.57,11.57,0,0,0,3.12,5.22l.06,0c1.8,1.54,2.72,2.31,2.64,2.62-.27,1-5.54,1.83-8.5-.65-1.09-.91-1.73-2.43-2.7-4.55a11.91,11.91,0,0,1-.71-1.87,11.05,11.05,0,0,1-.29-3.89,30.55,30.55,0,0,1,1-4.42c.74-3.14.72-3.58.42-3.89-1-1-3.4.6-4.53-.39s.89-3.11,0-5C166.74,137.46,160.61,139.11,156.2,135.3Z" transform="translate(0 -0.05)"/><path class="cls-60" d="M156.38,153.39c-2.32-.34-4,.58-7.64,2.3-6.58,3.13-6.24,2.63-6.73,3.14-3.79,3.94-2.54,11.18-2.13,13.38.1.56.18.89.18.92a32.45,32.45,0,0,1,6.42-.43A32.86,32.86,0,0,1,157.65,175a5.56,5.56,0,0,0,1.76-.21c3.27-.95,5.44-5.13,4.65-8.32a3.64,3.64,0,0,0-.52-1.13,2.21,2.21,0,0,1-.19-.61c-.48-2.36-.71-3.55-.58-4.15a4.5,4.5,0,0,1,1.69-3.09,4.76,4.76,0,0,1,2.4-.94,40.55,40.55,0,0,1-7.5-2.13A12.44,12.44,0,0,0,156.38,153.39Z" transform="translate(0 -0.05)"/><path class="cls-61" d="M157.29,176.3l-.56,3.76-.28,1.47a5.84,5.84,0,0,0,4.24-.95c1.91-1.46,2.46-4.59,2.54-4.56s0,.16,0,.16,0,0,0-.16h0Z" transform="translate(0 -0.05)"/><path class="cls-62" d="M127.37,151c-.09.05-.17.28,1.85,5.22,1.82,4.46,3.7,8.71,3.7,8.71h0s1,3.79,1.28,3.75.6-5.88-2.15-11.52C130.42,153.86,127.86,150.8,127.37,151Z" transform="translate(0 -0.05)"/><path class="cls-63" d="M118.83,154.7a74.05,74.05,0,0,0,2.62,9c1.5,4.17,2.29,6.28,3.82,7.1,1.34.73,3.48,1.11,5.78,2.88a3.93,3.93,0,0,0,.72.51c1.57.85,3,.19,5.25.22a21.79,21.79,0,0,1,3,.43c1.34.21,3.21.44,6.91.9,2.29.28,5.22.63,8.68,1l-.54,4.31s-.55,0-1.46,0a52.38,52.38,0,0,1-5.49-.34c-1-.11-1.82-.22-2.34-.3l-.51-.08c-.86-.14-5.26-.73-15.59-2.07" transform="translate(0 -0.05)"/><path class="cls-64" d="M155.67,176.87c-3-.37-7.59-.94-13.24-1.68-9.43-1.24-12.29-1.71-14.74-4-1.55-1.47-2.3-3.17-3.8-6.57-2.37-5.35-2.28-8.64-5.06-9.88a4.37,4.37,0,0,0-3.27-.15c-2.07.92-2.28,4-2.35,4.91a10.58,10.58,0,0,0,.89,4.79A30.39,30.39,0,0,0,121.75,175a41,41,0,0,0,4.53,3.73,31.71,31.71,0,0,0,3.88,1.2c2.06.5,3.77.69,9.8.86,5.3.16,6.35.08,11.06.28l3.26.16-3.26-.16h0a27.75,27.75,0,0,0,3.26.16l.85,0s-.45,0-.84,0" transform="translate(0 -0.05)"/><path d="M122.4,146c-.33-.27-.07-.56-.42-1.31a3.33,3.33,0,0,0-1.43-1.34c-.16-.1-.14-.08-.4-.26,0,0-.76-.49-1.37-1a9.84,9.84,0,0,1-3.2-5.28,10.56,10.56,0,0,1-.08-3.36c.26-3.06,1-4.07.32-4.88s-2.38-.7-2.37-.85,2.15.24,2.65-.53c.62-1-1.51-3.34-1.5-3.35s.79,1.81,2.22,2.07a3.16,3.16,0,0,0,1.94-.46c1.08-.51,1.32-1,2.63-2,0,0,.59-.44,1.73-1.12,1.32-.78,5.81-3,10.46-2a16.22,16.22,0,0,1,3.7,1.4,7.67,7.67,0,0,1,1.53.93,7,7,0,0,1,2.22,3.42c.68,2.13.36,4.14.16,4.16s.05-2-1.26-3.79c-1.51-2.06-4.4-2.93-5-2.35s1,1.64.66,3.44A3.24,3.24,0,0,1,133.9,130c-.18-.11,1.09-1.5.57-2.62a2.1,2.1,0,0,0-2.12-1.14c-1.23.35-.55,2.59-2.32,4.2-1.31,1.19-2.45.66-3.09,1.65-1.23,1.87,1.56,5.83,1.76,5.75a5.11,5.11,0,0,0-2.33-3.74,4.43,4.43,0,0,0-1.46-.4,2.59,2.59,0,0,0-1.82.31c-.83.68-.67,2.46.22,3.35a5.47,5.47,0,0,0,2.4,1.11s.07,1.14.09,2.15c0,.57,0,1.33,0,2.29a6.7,6.7,0,0,1-.22,1.91C124.91,146,123,146.54,122.4,146Z" transform="translate(0 -0.05)"/><path d="M171.59,176.83a9.25,9.25,0,0,0,1-3.61,6.14,6.14,0,0,1-1.94,3.16,4.31,4.31,0,0,1-2.07.6c-2.41.13-6.11-4-9.36-10.27h0l-.21-.65v0a8.05,8.05,0,0,1-.05-1.86c.1-1.33-1.16-2.9-.73-4.11.72-2,6-2.29,6-2.2s-.87.22-1.52.42c-4.73,1.47-9.92,8.36-11.12,10l-.28,1.94,1.05,1.59a6.47,6.47,0,0,0-.61.78c-.24.38-.54,1-.32,1.29.34.52,1.87.2,2.64,0a13.65,13.65,0,0,0,3.78-1.42,4.59,4.59,0,0,1-2.4-1.11,2.46,2.46,0,0,1-.85-1.27,2.52,2.52,0,0,1,.74-2.12,2.15,2.15,0,0,1,1.56-.33,2,2,0,0,1,1.56,1.59s.05.21.05.21h0a14.36,14.36,0,0,0,1.4,2.42c1,1.42.91,1.59,1.88,2.91,1.3,1.75,2,2.72,3.37,3.45a5.21,5.21,0,0,0,4.05.68A4.47,4.47,0,0,0,171.59,176.83Z" transform="translate(0 -0.05)"/><path class="cls-65" d="M121.63,149.92l5.8-.95,4.39-.68-4.38,2.82Z" transform="translate(0 -0.05)"/><path class="cls-66" d="M125.59,149.52c-.82-.55-1.44-1.11-2-.9s-.86,1.12-.84,1.73a2.17,2.17,0,0,0,1.37,2c1.45.39,3.07-1.73,3.26-2,.88-1.19.64-1.81,1.66-2.83.27-.26,1.36-1.35,2.13-1.07s.78,1.63.82,2.49c0,1.18.07,1.84-.37,2.2C130.57,152,127.53,150.8,125.59,149.52Z" transform="translate(0 -0.05)"/><path class="cls-67" d="M134.66,184.13c-1,1.08-2.91,3.48-4.66,5.9-1.63,2.26-2.86,4.18-3.67,5.5-1.1,2-2.7,4.68-4.79,7.79A122.38,122.38,0,0,1,105,222.78C88.48,238.53,67.9,248.4,68.28,249c.26.41,10.53-5.05,25.6-9.31,5.77-1.63,9.14-2.21,13-1.37,5.72,1.25,7.58,4.53,13.47,8.82,2.25,1.64,10.7,7.79,21.68,9.46,2.37.37,15.16,2.32,25.61-4.34a76.77,76.77,0,0,0,16-14.11c1.42-1.73,3.3-4.22,6.78-5.37,2.93-1,5.31-.43,10.33.38,7.52,1.2,11.27,1.8,12.89,1.71,9.37-.53,17.89-10.65,20.62-20.15.71-2.47,2.43-8.46,0-15.14-6-16.22-31.06-21.43-34.3-17.61a6.68,6.68,0,0,0-.69,5.36,22.49,22.49,0,0,0,1.28,2.55,8.13,8.13,0,0,1-.55,6.56c-2.65,4.83-10.18,4.61-10.75,4.58a15.54,15.54,0,0,1-10.49-5.2c-1.52-1.63-1.24-2-3.69-5.62a51.48,51.48,0,0,0-6-7.36,26.21,26.21,0,0,0-13.46-6.4C146.41,175.31,138.31,180.12,134.66,184.13Z" transform="translate(0 -0.05)"/><path class="cls-68" d="M238.42,271c.09,0-4-8.38-1.36-17.17,1.69-5.54,5.36-8.9,5.49-8.81s-5.43,5.82-6.29,14.17A20.87,20.87,0,0,0,238.42,271Z" transform="translate(0 -0.05)"/><path class="cls-69" d="M236.88,270.71c-.09,0-1.31-9.18-8.48-15.08-4.5-3.71-9.45-4.53-9.52-4.39s7.8,1.93,13.19,8.44A21.1,21.1,0,0,1,236.88,270.71Z" transform="translate(0 -0.05)"/><path class="cls-70" d="M234.17,270.58c-.09,0,2.64-7-1.14-13.64a16.53,16.53,0,0,0-6.45-6.36c-.15.11,6,4,8,10.49A13.85,13.85,0,0,1,234.17,270.58Z" transform="translate(0 -0.05)"/><path class="cls-71" d="M234.61,270.54c-.08,0-2.08-9.05-9.72-14.33-4.81-3.33-9.81-3.75-9.86-3.6s7.93,1.28,13.86,7.33A21,21,0,0,1,234.61,270.54Z" transform="translate(0 -0.05)"/><path class="cls-72" d="M239,270.81a9.63,9.63,0,0,1,.82-9.89,16.39,16.39,0,0,1,6.32-5c.15.07-5.89,3.24-7.74,8A7.36,7.36,0,0,0,239,270.81Z" transform="translate(0 -0.05)"/><path class="cls-73" d="M234.47,268.45c-.1,0,3-8.8-.75-17.21-2.35-5.29-6.4-8.19-6.53-8.09s6.11,5.13,8,13.32A20.87,20.87,0,0,1,234.47,268.45Z" transform="translate(0 -0.05)"/><path class="cls-74" d="M233.91,271.58c-.08,0-1.1-7.39-7.66-11.44a16.85,16.85,0,0,0-8.76-2.55c-.08.16,7.2.72,12.1,5.47A14,14,0,0,1,233.91,271.58Z" transform="translate(0 -0.05)"/><path class="cls-75" d="M169.08,260.28c-.09,0,2.1-9-2.47-17.06-2.88-5.07-7.21-7.63-7.32-7.52s6.6,4.61,9.29,12.61A20.72,20.72,0,0,1,169.08,260.28Z" transform="translate(0 -0.05)"/><path class="cls-76" d="M168.72,261.66c-.09,0,2.24-7.09-1.93-13.56A17,17,0,0,0,160,242c-.14.11,6.2,3.76,8.57,10.14A13.78,13.78,0,0,1,168.72,261.66Z" transform="translate(0 -0.05)"/><path class="cls-77" d="M170.52,259.67c.09,0-.75-9.24,4.95-16.43,3.58-4.53,8.23-6.32,8.33-6.19s-7.2,3.43-11,10.88A20.61,20.61,0,0,0,170.52,259.67Z" transform="translate(0 -0.05)"/><path class="cls-78" d="M173.14,259c.08,0-4.14-6.33-1.91-13.57a16.06,16.06,0,0,1,4.9-7.49c.17.07-4.95,5.11-5.46,11.83A14,14,0,0,0,173.14,259Z" transform="translate(0 -0.05)"/><path class="cls-79" d="M172.69,259.05c.09,0,0-9.26,6.34-16,4-4.21,8.76-5.61,8.85-5.48s-7.48,2.83-11.93,9.93A20.56,20.56,0,0,0,172.69,259.05Z" transform="translate(0 -0.05)"/><path class="cls-80" d="M168.43,260.19a9.7,9.7,0,0,0-3-9.51,16.8,16.8,0,0,0-7.27-3.59c-.14.09,6.48,2,9.34,6.31A7.36,7.36,0,0,1,168.43,260.19Z" transform="translate(0 -0.05)"/><path class="cls-81" d="M172.38,257c.08,0-4.88-8-3.09-17,1.13-5.64,4.45-9.28,4.6-9.21S169.05,237,169,245.4A21,21,0,0,0,172.38,257Z" transform="translate(0 -0.05)"/><path class="cls-82" d="M173.61,259.92c.09,0-.56-7.44,5-12.7a16.61,16.61,0,0,1,8-4.24c.12.14-6.88,2.13-10.62,7.76A13.66,13.66,0,0,0,173.61,259.92Z" transform="translate(0 -0.05)"/><path class="cls-83" d="M266.11,77.68c-2.81,2.66-1.53,6.56-.53,13.18.95,6.33.35,12.8,1,19.17.47,4.6.59,7.89.62,41.68.05,52.44-.21,58.39-1.15,66.46-.45,3.91-2.8,23.24-2.8,23.24s13.28,10.54,17.2,8c3.2-2.07-2.1-11.47-4.19-29.32-.23-2-.37-7.72-.66-19.27,0,0-.33-13.2.31-45.72a2.23,2.23,0,0,1,0-.36c.34-3.11,5-3.71,5.87-6.35.63-2-1.63-2.62-1.49-5.41.11-2.32,1.75-3.91,2.92-5.22,4.17-4.69,5.64-9.74,7.41-15.83.73-2.52.77-3.66,1.44-10.63,1.47-15.43,2.55-23,2.37-23s-2.64,17.14-2.55,17.15,1.51-7.8,2.55-17.15c.43-3.76,1.1-10.6,1.1-10.6s-.51-1.58-1.16-1.65c-1.06-.12-2.72,3.74-2.72,3.74-.75,20-4.14,29.84-4.14,29.84-.25,1.1-3,12.51-7,12.58-3.42.05-6.92-8.06-7.44-15-.38-5.13,1.22-4.8,2.49-15.81,0,0,.37-3.15,1.1-14.86l.16-.09C276.83,76.36,269.24,74.71,266.11,77.68Z" transform="translate(0 -0.05)"/><path class="cls-83" d="M284.53,133.41a23.27,23.27,0,0,1,5.9-11.24c3.63-3.69,6.73-4,11.18-7.64a32.28,32.28,0,0,0,8.74-11.31" transform="translate(0 -0.05)"/><path class="cls-83" d="M288.34,127.91a18.82,18.82,0,0,1,5.81-4.79c2.48-1.2,3.66-.73,6.39-1.71a21.6,21.6,0,0,0,6.8-4.22" transform="translate(0 -0.05)"/><path class="cls-83" d="M291.78,103a24.69,24.69,0,0,1,2.7-9.34c1.75-3.07,3.32-3.38,5.49-6.38a27.76,27.76,0,0,0,4.15-9.39" transform="translate(0 -0.05)"/><path class="cls-83" d="M289.19,121.13a18.62,18.62,0,0,1-4.78-5.79c-1.19-2.46-.69-3.61-1.64-6.31a21.12,21.12,0,0,0-4.18-6.75" transform="translate(0 -0.05)"/><path class="cls-83" d="M301.57,120.34a19.49,19.49,0,0,1,7.59-.32c2.72.53,3.36,1.61,6.14,2.47a21.94,21.94,0,0,0,8,.73" transform="translate(0 -0.05)"/><path class="cls-83" d="M292,99.57a19,19,0,0,1,6.24-4.23c2.59-1,3.72-.39,6.54-1.12a21.68,21.68,0,0,0,7.17-3.56" transform="translate(0 -0.05)"/><path class="cls-84" d="M302.27,90.44c-.89,1.6,2.76,5.6,6.63,7.37.55.25,4.65,2.07,5.89.65,1-1.16-.28-4-1.88-5.75C309.63,89.21,303.22,88.73,302.27,90.44Z" transform="translate(0 -0.05)"/><path class="cls-85" d="M301.49,90.43c.44,2.67,7.68,2.69,13.25.15.79-.36,6.64-3.11,6.72-6,.06-2.35-3.77-3.88-6.91-3.85C308.13,80.84,301,87.59,301.49,90.43Z" transform="translate(0 -0.05)"/><path class="cls-86" d="M299.52,82.56c1.11,1.46,6.34-.1,9.6-2.8.46-.39,3.86-3.27,3.07-5-.65-1.39-3.87-1.46-6.12-.75C301.47,75.49,298.34,81,299.52,82.56Z" transform="translate(0 -0.05)"/><path class="cls-87" d="M299.18,83.25c2.66.73,5.72-5.71,5.69-11.73,0-.86-.09-7.22-2.7-8.49C300,62,297,64.74,295.72,67.55,293.1,73.3,296.36,82.47,299.18,83.25Z" transform="translate(0 -0.05)"/><path class="cls-88" d="M291.52,84c1.66-.83,1-6.15-1.21-9.76-.31-.51-2.64-4.29-4.48-3.81-1.5.4-2.1,3.49-1.77,5.79C284.74,80.89,289.75,84.84,291.52,84Z" transform="translate(0 -0.05)"/><path class="cls-89" d="M292.16,84.41c1.18-2.44-4.78-6.49-10.84-7.49-.86-.14-7.27-1.13-9,1.18-1.41,1.9.86,5.29,3.47,7C281.15,88.61,290.91,87,292.16,84.41Z" transform="translate(0 -0.05)"/><path class="cls-90" d="M316.65,74.65c-.59,1.73,3.73,5,7.86,6.1.59.16,4.95,1.24,5.91-.37.78-1.32-1-3.94-2.89-5.34C323.67,72.17,317.28,72.81,316.65,74.65Z" transform="translate(0 -0.05)"/><path class="cls-91" d="M317.2,78c2.23,1.59,7.39-3.39,9.51-9,.31-.8,2.49-6.79.49-8.88-1.64-1.71-5.46-.16-7.66,2C315,66.63,314.83,76.33,317.2,78Z" transform="translate(0 -0.05)"/><path class="cls-92" d="M306.47,64.44c1,1.51,6.34.16,9.71-2.41.48-.37,4-3.11,3.28-4.84-.59-1.41-3.81-1.6-6.08-1C308.71,57.46,305.36,62.84,306.47,64.44Z" transform="translate(0 -0.05)"/><path class="cls-93" d="M306.11,65.12c2.62.84,5.94-5.47,6.17-11.49,0-.86.21-7.21-2.35-8.59-2.1-1.13-5.24,1.5-6.64,4.26C300.44,54.94,303.32,64.23,306.11,65.12Z" transform="translate(0 -0.05)"/><path class="cls-94" d="M285,82.83c1,1.55,6.33.39,9.79-2,.49-.35,4.12-3,3.46-4.71-.53-1.44-3.74-1.75-6-1.22C287.5,75.94,284,81.18,285,82.83Z" transform="translate(0 -0.05)"/><path class="cls-95" d="M284.61,83.5c2.59.93,6.15-5.26,6.61-11.26.06-.85.48-7.2-2-8.67-2.06-1.21-5.3,1.31-6.8,4C279.33,73.11,281.85,82.5,284.61,83.5Z" transform="translate(0 -0.05)"/><path class="cls-96" d="M276.65,81.31c1.85-.22,3-5.46,2.2-9.58-.11-.58-1-4.9-2.9-5.06-1.56-.13-3.19,2.59-3.66,4.86C271.32,76.18,274.68,81.56,276.65,81.31Z" transform="translate(0 -0.05)"/><path class="cls-97" d="M277.1,81.94c1.95-1.91-2.28-7.69-7.65-10.62-.76-.42-6.45-3.47-8.87-1.86-2,1.32-1,5.27.87,7.74C265.28,82.26,275,84,277.1,81.94Z" transform="translate(0 -0.05)"/><path class="cls-98" d="M281.07,63.23c1.81.42,4.77-4.09,5.48-8.22.1-.58.8-4.94-.93-5.74-1.4-.65-3.9,1.34-5.15,3.3C277.9,56.6,279.14,62.78,281.07,63.23Z" transform="translate(0 -0.05)"/><path class="cls-99" d="M281.27,64c2.5-1.12.6-8-3.38-12.57-.57-.65-4.83-5.45-7.66-4.77-2.32.56-2.82,4.59-1.94,7.54C270.08,60.23,278.6,65.17,281.27,64Z" transform="translate(0 -0.05)"/><path class="cls-100" d="M264,66.48c1.85-.16,3.23-5.35,2.59-9.49-.09-.59-.8-4.94-2.69-5.17-1.55-.19-3.29,2.46-3.86,4.71C258.84,61.14,262,66.64,264,66.48Z" transform="translate(0 -0.05)"/><path class="cls-101" d="M264.37,67.12c2-1.83-2-7.77-7.2-10.92-.74-.45-6.31-3.72-8.79-2.2-2,1.24-1.22,5.22.55,7.76C252.55,67,262.22,69.07,264.37,67.12Z" transform="translate(0 -0.05)"/><path class="cls-102" d="M271.48,95.72c1.48.27,3.64-3.84,4-7.49,0-.52.38-4.38-1.05-5-1.17-.5-3.09,1.37-4,3.16C268.57,90.07,269.89,95.43,271.48,95.72Z" transform="translate(0 -0.05)"/><path class="cls-103" d="M271.8,96.46c2-1.11-.06-7.13-3.52-10.94-.49-.54-4.18-4.52-6.44-3.77-1.84.61-2,4.16-1.17,6.71C262.44,93.67,269.7,97.65,271.8,96.46Z" transform="translate(0 -0.05)"/><path class="cls-104" d="M266.06,100.19c.85-1.32-1.76-5.14-4.73-7-.42-.27-3.57-2.22-4.69-1.1-.91.92-.11,3.56,1,5.19C260,100.61,265.15,101.59,266.06,100.19Z" transform="translate(0 -0.05)"/><path class="cls-105" d="M266.69,100.27c-.14-2.37-6-3-10.66-1.31-.67.24-5.61,2.12-5.91,4.61-.25,2,2.71,3.73,5.24,4C260.54,108,266.83,102.79,266.69,100.27Z" transform="translate(0 -0.05)"/><path class="cls-106" d="M257.27,86.77c1.23-.92,0-5.46-2.13-8.33-.31-.41-2.62-3.41-4-2.77-1.15.53-1.27,3.3-.73,5.25C251.48,84.92,256,87.75,257.27,86.77Z" transform="translate(0 -0.05)"/><path class="cls-107" d="M257.84,87.07c.65-2.26-4.61-5-9.58-5.18-.7,0-5.95-.1-7.06,2.12-.9,1.82,1.32,4.5,3.62,5.66C249.51,92.07,257.14,89.49,257.84,87.07Z" transform="translate(0 -0.05)"/><path class="cls-108" d="M250.08,99.66c.9-1.28-1.56-5.2-4.46-7.22-.41-.28-3.49-2.37-4.64-1.29-.95.88-.25,3.55.84,5.23C244,99.82,249.12,101,250.08,99.66Z" transform="translate(0 -0.05)"/><path class="cls-109" d="M250.71,99.77c-.05-2.37-5.85-3.29-10.61-1.77-.68.22-5.68,1.88-6.08,4.35-.32,2,2.57,3.84,5.09,4.2C244.27,107.27,250.75,102.29,250.71,99.77Z" transform="translate(0 -0.05)"/><path class="cls-110" d="M311.88,121.65c-1.32-.15-2.27,4.14-1.78,7.83.08.52.63,4.41,2,4.9,1.11.39,2.33-1.64,2.72-3.51C315.59,127.05,313.29,121.8,311.88,121.65Z" transform="translate(0 -0.05)"/><path class="cls-111" d="M311.57,121c-1.43,1.28,1.47,7,5.25,10.56.54.5,4.55,4.19,6.31,3.25,1.44-.77.83-4.34-.46-6.82C320,122.94,313.1,119.66,311.57,121Z" transform="translate(0 -0.05)"/><path class="cls-112" d="M315.53,116.72c-.44,1.39,2.61,5,5.56,6.63.42.23,3.53,1.93,4.23.71.58-1-.68-3.58-2-5.12C320.58,115.79,316,115.23,315.53,116.72Z" transform="translate(0 -0.05)"/><path class="cls-113" d="M315,116.69c.63,2.36,5.75,2.54,9.37.42.52-.3,4.32-2.59,4-5.11-.23-2.06-3.12-3.5-5.33-3.54C318.53,108.39,314.31,114.18,315,116.69Z" transform="translate(0 -0.05)"/><path class="cls-114" d="M325.94,129.42c-.85,1,1.15,5.47,3.62,8.16.35.38,3,3.19,4,2.43.88-.62.38-3.4-.51-5.31C331.28,130.79,326.84,128.33,325.94,129.42Z" transform="translate(0 -0.05)"/><path class="cls-115" d="M325.39,129.16c-.07,2.32,5,4.68,9.29,4.39.6,0,5.1-.4,5.56-2.71.37-1.9-2.1-4.39-4.31-5.37C331.4,123.47,325.46,126.69,325.39,129.16Z" transform="translate(0 -0.05)"/><path class="cls-116" d="M329.27,115.91c-.49,1.36,2.46,5.08,5.37,6.85.41.26,3.49,2.09,4.24.92.61-1-.56-3.58-1.85-5.17C334.39,115.25,329.79,114.46,329.27,115.91Z" transform="translate(0 -0.05)"/><path class="cls-117" d="M328.71,115.86c.56,2.37,5.7,2.8,9.43.88.53-.27,4.44-2.35,4.24-4.87-.16-2.05-3-3.62-5.25-3.77C332.58,107.81,328.13,113.33,328.71,115.86Z" transform="translate(0 -0.05)"/><path class="cls-118" d="M306.83,111.85c-.89,1,2.17,4.19,5.54,5.89.48.25,4.06,2,5.24,1.21,1-.66,0-2.8-1.37-4.17C313.49,112,307.77,110.81,306.83,111.85Z" transform="translate(0 -0.05)"/><path class="cls-119" d="M306.13,111.74c.25,1.88,6.74,2.84,11.87,1.82.72-.15,6.11-1.26,6.34-3.21.18-1.59-3.17-3.14-6-3.52C312.6,106.05,305.86,109.74,306.13,111.74Z" transform="translate(0 -0.05)"/><path class="cls-120" d="M304.79,106.11c.91,1.15,5.69.75,8.75-.67.44-.2,3.64-1.73,3-3-.51-1-3.39-1.5-5.45-1.31C306.92,101.53,303.81,104.89,304.79,106.11Z" transform="translate(0 -0.05)"/><path class="cls-121" d="M304.45,106.54c2.34.84,5.43-3.16,5.73-7.28.05-.59.31-4.94-2-6.15-1.87-1-4.73.5-6,2.25C299.53,99,302,105.64,304.45,106.54Z" transform="translate(0 -0.05)"/><path class="cls-122" d="M321.41,105c.37,1.27,5.25,2.2,8.93,1.75.52-.06,4.38-.57,4.36-1.85,0-1.06-2.64-2.24-4.75-2.62C325.63,101.51,321,103.66,321.41,105Z" transform="translate(0 -0.05)"/><path class="cls-123" d="M320.88,105.3c1.91,1.38,6.81-1.36,9-4.94.31-.51,2.59-4.32.91-6-1.37-1.38-4.88-.82-7,.4C319.56,97.23,318.85,103.84,320.88,105.3Z" transform="translate(0 -0.05)"/><path class="cls-124" d="M312,94.63c.86,1.17,5.67.93,8.83-.39.45-.19,3.75-1.61,3.2-2.88-.45-1-3.32-1.59-5.4-1.47C314.38,90.15,311.09,93.39,312,94.63Z" transform="translate(0 -0.05)"/><path class="cls-125" d="M311.64,95.05c2.3.91,5.62-3,6.15-7.06.08-.58.58-4.9-1.65-6.17-1.81-1-4.77.35-6.17,2.05C307.11,87.36,309.18,94.08,311.64,95.05Z" transform="translate(0 -0.05)"/><path class="cls-126" d="M266.29,111c-.53,0,.45,13.94-.11,56.6-.33,26-.5,39-1.09,43.65A131,131,0,0,0,264,234.23c.19,4.5.59,8.2.9,10.67h0c0-.79,3-1.11,3.06-1.12C270.28,243.46,267.92,111,266.29,111Z" transform="translate(0 -0.05)"/><path class="cls-127" d="M263.77,241.31c-.09,0,4.34-9.08,1.39-18.58-1.85-6-5.84-9.6-6-9.51s5.91,6.28,6.87,15.31A22.5,22.5,0,0,1,263.77,241.31Z" transform="translate(0 -0.05)"/><path class="cls-128" d="M263.07,242.7c-.09,0,4-7,1.13-14.77a17.89,17.89,0,0,0-5.78-7.88c-.18.09,5.68,5.29,6.69,12.55A15,15,0,0,1,263.07,242.7Z" transform="translate(0 -0.05)"/><path class="cls-129" d="M265.44,241c.1,0,1.37-9.94,9.09-16.35,4.86-4,10.21-5,10.28-4.8s-8.43,2.12-14.22,9.2A22.71,22.71,0,0,0,265.44,241Z" transform="translate(0 -0.05)"/><path class="cls-130" d="M268.37,240.8c.1,0-2.89-7.56,1.17-14.76a17.77,17.77,0,0,1,6.94-6.9c.16.11-6.44,4.36-8.56,11.38A15,15,0,0,0,268.37,240.8Z" transform="translate(0 -0.05)"/><path class="cls-131" d="M267.89,240.76c.09,0,2.21-9.79,10.45-15.55,5.18-3.62,10.59-4.1,10.65-3.94s-8.58,1.43-15,8A22.65,22.65,0,0,0,267.89,240.76Z" transform="translate(0 -0.05)"/><path class="cls-132" d="M263.11,241.08a10.39,10.39,0,0,0-.94-10.7,17.69,17.69,0,0,0-6.85-5.33c-.16.07,6.39,3.48,8.4,8.64A8,8,0,0,1,263.11,241.08Z" transform="translate(0 -0.05)"/><path class="cls-133" d="M268,238.5c.1,0-3.28-9.51.72-18.62,2.52-5.73,6.89-8.89,7-8.78s-6.58,5.58-8.56,14.44A22.54,22.54,0,0,0,268,238.5Z" transform="translate(0 -0.05)"/><path class="cls-134" d="M268.66,241.88c.09,0,1.15-8,8.23-12.41a18.3,18.3,0,0,1,9.46-2.8c.09.18-7.78.81-13.07,6A15,15,0,0,0,268.66,241.88Z" transform="translate(0 -0.05)"/><path class="cls-135" d="M276.36,249c-.1,0,4.33-9.08,1.39-18.58-1.86-6-5.84-9.6-6-9.5s5.91,6.27,6.87,15.3A22.64,22.64,0,0,1,276.36,249Z" transform="translate(0 -0.05)"/><path class="cls-136" d="M275.66,250.34c-.1,0,4-7,1.13-14.77A17.73,17.73,0,0,0,271,227.7c-.17.09,5.68,5.29,6.69,12.54A15,15,0,0,1,275.66,250.34Z" transform="translate(0 -0.05)"/><path class="cls-137" d="M278,248.6c.09,0,1.37-9.94,9.09-16.35,4.85-4,10.2-4.95,10.27-4.79s-8.42,2.11-14.22,9.19A22.58,22.58,0,0,0,278,248.6Z" transform="translate(0 -0.05)"/><path class="cls-138" d="M281,248.45c.1,0-2.89-7.57,1.17-14.77a18,18,0,0,1,6.94-6.9c.16.11-6.43,4.37-8.55,11.38A15,15,0,0,0,281,248.45Z" transform="translate(0 -0.05)"/><path class="cls-139" d="M280.47,248.4c.09,0,2.21-9.79,10.45-15.55,5.19-3.62,10.6-4.09,10.65-3.93s-8.58,1.42-14.95,8A22.82,22.82,0,0,0,280.47,248.4Z" transform="translate(0 -0.05)"/><path class="cls-140" d="M275.7,248.72a10.44,10.44,0,0,0-.94-10.7,17.68,17.68,0,0,0-6.86-5.33c-.16.07,6.39,3.48,8.41,8.65A8,8,0,0,1,275.7,248.72Z" transform="translate(0 -0.05)"/><path class="cls-141" d="M280.62,246.14c.1,0-3.28-9.5.72-18.62,2.52-5.73,6.89-8.88,7-8.77s-6.58,5.57-8.56,14.44A22.56,22.56,0,0,0,280.62,246.14Z" transform="translate(0 -0.05)"/><path class="cls-142" d="M281.24,249.52c.09,0,1.15-8,8.23-12.4a18.39,18.39,0,0,1,9.47-2.81c.08.18-7.79.82-13.07,6A15.1,15.1,0,0,0,281.24,249.52Z" transform="translate(0 -0.05)"/><path class="cls-83" d="M269.09,81.06c2.82,2.65,1.56,6.56.59,13.18-.92,6.33-.29,12.81-.92,19.18-.46,4.6-.56,7.88-.44,41.68.18,52.43.47,58.38,1.44,66.45.48,3.91,2.91,23.23,2.91,23.23s-13.24,10.59-17.16,8.08c-3.22-2.06,2-11.49,4.05-29.35.22-1.95.34-7.72.58-19.26,0,0,.27-13.21-.51-45.72,0-.13,0-.23,0-.36-.36-3.11-5-3.69-5.9-6.33-.64-2,1.61-2.62,1.46-5.42-.12-2.32-1.77-3.89-2.94-5.2-4.2-4.68-5.69-9.72-7.48-15.79-.75-2.52-.79-3.67-1.48-10.63-1.55-15.42-2.66-23-2.49-23S243.51,109,243.41,109s-1.54-7.8-2.63-17.14c-.43-3.76-1.14-10.6-1.14-10.6s.5-1.58,1.15-1.65c1.06-.12,2.74,3.72,2.74,3.72.84,20,4.27,29.82,4.27,29.82a56.66,56.66,0,0,0,8.47,24.31c1.12,1.75,6.49,10.17,9,9.3s-.91-9.79-.05-25.93c.1-1.87.05-4.8,0-10.68-.06-4.76-.18-7.39-1.63-10.33a16.62,16.62,0,0,0-3.84-5s-.38-3.15-1.16-14.85a1.4,1.4,0,0,1-.17-.09C258.37,79.79,266,78.11,269.09,81.06Z" transform="translate(0 -0.05)"/><path class="cls-83" d="M250.92,136.88A23.32,23.32,0,0,0,245,125.66c-3.64-3.67-6.75-4-11.22-7.59A32.28,32.28,0,0,1,225,106.8" transform="translate(0 -0.05)"/><path class="cls-83" d="M247.09,131.4a18.86,18.86,0,0,0-5.83-4.77c-2.49-1.19-3.67-.72-6.41-1.69a21.53,21.53,0,0,1-6.82-4.18" transform="translate(0 -0.05)"/><path class="cls-83" d="M243.54,106.46a24.74,24.74,0,0,0-2.75-9.33c-1.76-3.06-3.33-3.36-5.51-6.35a27.86,27.86,0,0,1-4.19-9.38" transform="translate(0 -0.05)"/><path class="cls-83" d="M246.21,124.62A18.83,18.83,0,0,0,251,118.8c1.18-2.46.67-3.61,1.61-6.31a21,21,0,0,1,4.15-6.77" transform="translate(0 -0.05)"/><path class="cls-83" d="M233.82,123.88a19.18,19.18,0,0,0-7.59-.28c-2.71.54-3.35,1.62-6.13,2.49a22.17,22.17,0,0,1-8,.77" transform="translate(0 -0.05)"/><path class="cls-83" d="M243.31,103.07a18.82,18.82,0,0,0-6.26-4.2c-2.59-1-3.72-.38-6.54-1.09a21.69,21.69,0,0,1-7.19-3.53" transform="translate(0 -0.05)"/><path class="cls-143" d="M233,94c.9,1.6-2.74,5.62-6.6,7.4-.55.25-4.64,2.09-5.88.68-1-1.15.26-4,1.85-5.76C225.63,92.79,232,92.28,233,94Z" transform="translate(0 -0.05)"/><path class="cls-144" d="M233.77,94c-.43,2.67-7.67,2.73-13.25.21-.79-.36-6.65-3.08-6.74-5.94-.08-2.35,3.75-3.9,6.88-3.88C227.09,84.41,234.23,91.13,233.77,94Z" transform="translate(0 -0.05)"/><path class="cls-145" d="M235.7,86.09c-1.1,1.47-6.34-.07-9.61-2.76-.46-.38-3.88-3.25-3.09-4.94.64-1.4,3.86-1.48,6.11-.78C233.73,79,236.88,84.52,235.7,86.09Z" transform="translate(0 -0.05)"/><path class="cls-146" d="M236,86.78c-2.65.74-5.74-5.68-5.74-11.7,0-.86.06-7.22,2.67-8.51,2.14-1,5.18,1.69,6.47,4.5C242.09,76.81,238.87,86,236,86.78Z" transform="translate(0 -0.05)"/><path class="cls-147" d="M243.71,87.46c-1.66-.81-1-6.14,1.17-9.75.3-.52,2.62-4.31,4.45-3.84,1.51.39,2.13,3.49,1.81,5.78C250.47,84.36,245.48,88.33,243.71,87.46Z" transform="translate(0 -0.05)"/><path class="cls-148" d="M243.07,87.91c-1.19-2.44,4.76-6.51,10.81-7.54.86-.14,7.26-1.16,9,1.14,1.42,1.89-.84,5.3-3.44,7C254.1,92.06,244.34,90.5,243.07,87.91Z" transform="translate(0 -0.05)"/><path class="cls-149" d="M218.54,78.26c.59,1.73-3.71,5-7.83,6.14-.59.15-5,1.25-5.91-.35-.8-1.31,1-3.94,2.86-5.35C211.51,75.81,217.9,76.42,218.54,78.26Z" transform="translate(0 -0.05)"/><path class="cls-150" d="M218,81.64c-2.22,1.6-7.4-3.35-9.55-9-.31-.8-2.52-6.78-.53-8.88,1.63-1.72,5.46-.19,7.67,2C220.11,70.23,220.37,79.93,218,81.64Z" transform="translate(0 -0.05)"/><path class="cls-151" d="M228.67,68c-1,1.51-6.34.18-9.72-2.38-.48-.36-4-3.09-3.3-4.81.59-1.42,3.8-1.63,6.08-1C226.4,61,229.78,66.39,228.67,68Z" transform="translate(0 -0.05)"/><path class="cls-152" d="M229,68.68c-2.62.85-6-5.45-6.23-11.46,0-.86-.24-7.21,2.32-8.6,2.09-1.14,5.25,1.48,6.65,4.23C234.66,58.48,231.82,67.78,229,68.68Z" transform="translate(0 -0.05)"/><path class="cls-153" d="M250.22,86.3c-1,1.55-6.32.42-9.8-2-.49-.35-4.13-2.94-3.48-4.7.53-1.43,3.73-1.76,6-1.24C247.69,79.42,251.27,84.65,250.22,86.3Z" transform="translate(0 -0.05)"/><path class="cls-154" d="M250.62,87c-2.58.94-6.18-5.22-6.66-11.23-.07-.85-.52-7.19,2-8.68,2.05-1.21,5.3,1.29,6.81,4C255.85,76.56,253.37,86,250.62,87Z" transform="translate(0 -0.05)"/><path class="cls-155" d="M258.57,84.74c-1.85-.22-3-5.45-2.25-9.57.11-.58,1-4.91,2.89-5.07,1.55-.14,3.19,2.57,3.68,4.84C263.87,79.59,260.54,85,258.57,84.74Z" transform="translate(0 -0.05)"/><path class="cls-156" d="M258.12,85.37c-2-1.9,2.25-7.69,7.6-10.65.76-.43,6.44-3.5,8.86-1.9,2,1.31,1,5.26-.83,7.74C269.94,85.64,260.2,87.4,258.12,85.37Z" transform="translate(0 -0.05)"/><path class="cls-157" d="M254.07,66.68c-1.81.43-4.79-4.07-5.52-8.19-.1-.59-.82-4.94.9-5.75,1.41-.65,3.91,1.32,5.17,3.28C257.2,60,256,66.23,254.07,66.68Z" transform="translate(0 -0.05)"/><path class="cls-158" d="M253.87,67.42c-2.51-1.11-.63-8,3.33-12.58.56-.65,4.8-5.48,7.63-4.81,2.33.55,2.84,4.57,2,7.53C265.05,63.63,256.54,68.61,253.87,67.42Z" transform="translate(0 -0.05)"/><path class="cls-159" d="M271.2,69.85c-1.85-.15-3.26-5.33-2.63-9.47.08-.59.78-5,2.67-5.19,1.54-.2,3.3,2.45,3.87,4.69C276.29,64.49,273.18,70,271.2,69.85Z" transform="translate(0 -0.05)"/><path class="cls-160" d="M270.78,70.49c-2-1.82,1.93-7.77,7.15-10.94.75-.46,6.3-3.75,8.78-2.25,2,1.23,1.25,5.21-.51,7.77C282.6,70.29,273,72.44,270.78,70.49Z" transform="translate(0 -0.05)"/><path class="cls-161" d="M263.8,99.12c-1.48.28-3.65-3.82-4-7.47,0-.52-.4-4.37,1-5,1.17-.5,3.09,1.36,4,3.14C266.69,93.47,265.39,98.83,263.8,99.12Z" transform="translate(0 -0.05)"/><path class="cls-162" d="M263.49,99.87c-2-1.11,0-7.13,3.47-11,.49-.55,4.16-4.55,6.42-3.81,1.85.61,2.05,4.16,1.2,6.71C272.83,97,265.59,101.05,263.49,99.87Z" transform="translate(0 -0.05)"/><path class="cls-163" d="M269.24,103.57c-.85-1.31,1.74-5.14,4.7-7,.42-.27,3.57-2.24,4.68-1.12.92.92.13,3.56-1,5.2C275.27,104,270.16,105,269.24,103.57Z" transform="translate(0 -0.05)"/><path class="cls-164" d="M268.61,103.65c.13-2.37,6-3.06,10.66-1.35.67.24,5.62,2.09,5.93,4.58.26,2-2.69,3.74-5.22,4C274.8,111.4,268.48,106.18,268.61,103.65Z" transform="translate(0 -0.05)"/><path class="cls-165" d="M278,90.11c-1.24-.91-.06-5.46,2.09-8.33.31-.41,2.61-3.42,4-2.79,1.16.52,1.29,3.29.76,5.24C283.76,88.24,279.29,91.08,278,90.11Z" transform="translate(0 -0.05)"/><path class="cls-166" d="M277.41,90.42c-.67-2.26,4.58-5.08,9.55-5.22.7,0,6-.13,7.07,2.09.91,1.81-1.3,4.49-3.59,5.67C285.75,95.38,278.11,92.83,277.41,90.42Z" transform="translate(0 -0.05)"/><path class="cls-167" d="M285.22,103c-.91-1.27,1.54-5.21,4.43-7.23.41-.29,3.47-2.39,4.63-1.32,1,.88.26,3.55-.81,5.23C291.26,103.11,286.18,104.33,285.22,103Z" transform="translate(0 -0.05)"/><path class="cls-168" d="M284.59,103.08c0-2.37,5.84-3.31,10.6-1.81.68.21,5.69,1.85,6.1,4.32.33,2-2.55,3.85-5.07,4.22C291.07,110.56,284.56,105.61,284.59,103.08Z" transform="translate(0 -0.05)"/><path class="cls-169" d="M223.52,125.23c1.32-.15,2.29,4.14,1.81,7.83-.07.52-.61,4.41-2,4.9-1.1.41-2.34-1.62-2.73-3.49C219.84,130.66,222.1,125.4,223.52,125.23Z" transform="translate(0 -0.05)"/><path class="cls-170" d="M223.82,124.61c1.44,1.27-1.44,7-5.2,10.58-.53.51-4.53,4.2-6.29,3.27-1.45-.76-.85-4.33.43-6.81C215.37,126.57,222.29,123.25,223.82,124.61Z" transform="translate(0 -0.05)"/><path class="cls-171" d="M219.84,120.32c.45,1.39-2.59,5-5.52,6.66-.42.23-3.52,1.94-4.23.72-.58-1,.66-3.57,2-5.12C214.79,119.42,219.37,118.84,219.84,120.32Z" transform="translate(0 -0.05)"/><path class="cls-172" d="M220.4,120.29c-.62,2.36-5.74,2.57-9.38.46-.51-.3-4.33-2.57-4.06-5.09.23-2.07,3.11-3.52,5.32-3.56C216.81,112,221.05,117.78,220.4,120.29Z" transform="translate(0 -0.05)"/><path class="cls-173" d="M209.5,133.07c.85,1-1.13,5.47-3.59,8.17-.35.39-3,3.21-4,2.45-.88-.62-.39-3.4.49-5.31C204.16,134.46,208.58,132,209.5,133.07Z" transform="translate(0 -0.05)"/><path class="cls-174" d="M210,132.81c.08,2.32-5,4.7-9.27,4.43-.6,0-5.1-.38-5.57-2.69-.38-1.9,2.08-4.4,4.29-5.39C204,127.14,210,130.33,210,132.81Z" transform="translate(0 -0.05)"/><path class="cls-175" d="M206.1,119.57c.5,1.36-2.44,5.1-5.34,6.88-.41.26-3.47,2.1-4.23.93-.62-1,.54-3.58,1.83-5.17C201,118.93,205.57,118.13,206.1,119.57Z" transform="translate(0 -0.05)"/><path class="cls-176" d="M206.66,119.52c-.54,2.37-5.69,2.83-9.42.92-.53-.27-4.45-2.33-4.26-4.84.15-2.06,3-3.65,5.22-3.8C202.76,111.49,207.23,117,206.66,119.52Z" transform="translate(0 -0.05)"/><path class="cls-177" d="M228.53,115.41c.89,1-2.16,4.2-5.52,5.92-.48.25-4,2-5.24,1.24-1-.66,0-2.81,1.36-4.19C221.87,115.56,227.58,114.38,228.53,115.41Z" transform="translate(0 -0.05)"/><path class="cls-178" d="M229.23,115.3c-.25,1.88-6.74,2.87-11.86,1.87-.73-.14-6.13-1.23-6.36-3.18-.19-1.59,3.15-3.15,6-3.55C222.73,109.64,229.49,113.3,229.23,115.3Z" transform="translate(0 -0.05)"/><path class="cls-179" d="M230.54,109.67c-.91,1.14-5.68.77-8.76-.64-.43-.2-3.65-1.71-3-3,.5-1,3.38-1.51,5.43-1.32C228.39,105.1,231.51,108.44,230.54,109.67Z" transform="translate(0 -0.05)"/><path class="cls-180" d="M230.88,110.09c-2.33.86-5.44-3.13-5.77-7.25,0-.59-.33-4.94,1.94-6.16,1.86-1,4.73.48,6,2.23C235.76,102.49,233.37,109.18,230.88,110.09Z" transform="translate(0 -0.05)"/><path class="cls-181" d="M213.91,108.64c-.36,1.27-5.24,2.22-8.91,1.79-.53-.06-4.39-.55-4.37-1.84,0-1,2.62-2.25,4.73-2.64C209.68,105.16,214.3,107.29,213.91,108.64Z" transform="translate(0 -0.05)"/><path class="cls-182" d="M214.44,108.93c-1.9,1.39-6.81-1.33-9-4.9-.32-.51-2.62-4.31-.95-6,1.37-1.38,4.89-.84,7,.37C215.73,100.85,216.47,107.46,214.44,108.93Z" transform="translate(0 -0.05)"/><path class="cls-183" d="M223.28,98.22c-.86,1.17-5.67,1-8.84-.36-.44-.18-3.75-1.59-3.21-2.86.45-1,3.32-1.61,5.39-1.49C220.87,93.75,224.18,97,223.28,98.22Z" transform="translate(0 -0.05)"/><path class="cls-184" d="M223.64,98.63c-2.3.92-5.64-2.94-6.18-7-.08-.58-.6-4.9,1.62-6.19,1.81-1,4.77.33,6.18,2C228.14,90.92,226.09,97.65,223.64,98.63Z" transform="translate(0 -0.05)"/><path class="cls-185" d="M261.35,155.11c.83.12-.82,9.86-.3,40.4.32,18.62.48,27.93,1.36,31.36a45,45,0,0,1,1.46,16.57,40.87,40.87,0,0,1-1.48,7.44h0c0-.57-4.65-1.37-4.79-1.39C254,248.82,258.79,154.75,261.35,155.11Z" transform="translate(0 -0.05)"/><path class="cls-186" d="M271.27,248.58c.1,0-4.38-9.06-1.47-18.57,1.82-6,5.79-9.63,5.94-9.53s-5.88,6.29-6.8,15.33A22.51,22.51,0,0,0,271.27,248.58Z" transform="translate(0 -0.05)"/><path class="cls-187" d="M272,250c.09,0-4.06-7-1.2-14.76a17.84,17.84,0,0,1,5.75-7.9c.18.09-5.66,5.32-6.63,12.58A15,15,0,0,0,272,250Z" transform="translate(0 -0.05)"/><path class="cls-188" d="M269.6,248.24c-.1,0-1.42-9.94-9.17-16.32-4.87-4-10.22-4.9-10.29-4.74s8.44,2.08,14.26,9.13A22.66,22.66,0,0,1,269.6,248.24Z" transform="translate(0 -0.05)"/><path class="cls-189" d="M266.67,248.1c-.1,0,2.86-7.59-1.24-14.76a18,18,0,0,0-7-6.88c-.17.12,6.45,4.34,8.6,11.35A15,15,0,0,1,266.67,248.1Z" transform="translate(0 -0.05)"/><path class="cls-190" d="M267.15,248.05c-.09,0-2.25-9.78-10.52-15.5-5.2-3.6-10.61-4.05-10.67-3.89s8.59,1.38,15,7.93A22.65,22.65,0,0,1,267.15,248.05Z" transform="translate(0 -0.05)"/><path class="cls-191" d="M271.93,248.35a10.44,10.44,0,0,1,.89-10.71,17.73,17.73,0,0,1,6.83-5.36c.17.07-6.37,3.51-8.37,8.68A8,8,0,0,0,271.93,248.35Z" transform="translate(0 -0.05)"/><path class="cls-192" d="M267,245.79c-.1,0,3.24-9.52-.8-18.62-2.55-5.72-6.93-8.85-7.07-8.74s6.61,5.54,8.63,14.4A22.56,22.56,0,0,1,267,245.79Z" transform="translate(0 -0.05)"/><path class="cls-193" d="M266.39,249.17c-.09,0-1.19-8-8.29-12.37a18.44,18.44,0,0,0-9.48-2.76c-.08.18,7.79.78,13.1,5.92A15.08,15.08,0,0,1,266.39,249.17Z" transform="translate(0 -0.05)"/><path class="cls-194" d="M259.25,253.91c.1,0-4.37-9.06-1.47-18.58,1.82-6,5.8-9.62,5.94-9.53s-5.88,6.3-6.8,15.33A22.53,22.53,0,0,0,259.25,253.91Z" transform="translate(0 -0.05)"/><path class="cls-195" d="M257.58,253.56c-.1,0-1.41-9.93-9.16-16.31-4.88-4-10.23-4.9-10.3-4.75s8.44,2.08,14.26,9.13A22.62,22.62,0,0,1,257.58,253.56Z" transform="translate(0 -0.05)"/><path class="cls-196" d="M254.65,253.42c-.09,0,2.86-7.58-1.23-14.76a18,18,0,0,0-7-6.87c-.16.11,6.45,4.34,8.6,11.34A15,15,0,0,1,254.65,253.42Z" transform="translate(0 -0.05)"/><path class="cls-197" d="M255.13,253.37c-.09,0-2.25-9.78-10.52-15.5-5.2-3.6-10.61-4.05-10.66-3.89s8.58,1.39,15,7.93A22.69,22.69,0,0,1,255.13,253.37Z" transform="translate(0 -0.05)"/><path class="cls-198" d="M259.91,253.67a10.45,10.45,0,0,1,.89-10.7,17.73,17.73,0,0,1,6.83-5.36c.17.07-6.37,3.5-8.36,8.68A8,8,0,0,0,259.91,253.67Z" transform="translate(0 -0.05)"/><path class="cls-199" d="M255,251.12c-.1,0,3.24-9.52-.8-18.62-2.54-5.72-6.93-8.86-7.06-8.75s6.6,5.55,8.62,14.41A22.48,22.48,0,0,1,255,251.12Z" transform="translate(0 -0.05)"/><path class="cls-200" d="M254.37,254.5c-.09,0-1.19-8-8.29-12.37a18.21,18.21,0,0,0-9.47-2.76c-.09.17,7.79.78,13.09,5.92A15.08,15.08,0,0,1,254.37,254.5Z" transform="translate(0 -0.05)"/><path class="cls-201" d="M249.58,117.94c.36-1.39,5.2-1.53,8.85-.31.52.18,4.36,1.5,4.34,3,0,1.22-2.6,2.08-4.7,2.12C253.78,122.8,249.2,119.43,249.58,117.94Z" transform="translate(0 -0.05)"/><path class="cls-202" d="M249,117.36c1.88-1.23,6.82,3,9,7.59.31.65,2.6,5.48.94,7.11-1.36,1.34-4.85,0-6.93-1.79C247.78,126.58,247,118.66,249,117.36Z" transform="translate(0 -0.05)"/><path class="cls-203" d="M243,120.74c1.62-.18,4.2,3.66,4.77,7,.08.48.64,4-.9,4.49-1.27.4-3.47-1.39-4.55-3.06C240.11,125.76,241.3,120.94,243,120.74Z" transform="translate(0 -0.05)"/><path class="cls-204" d="M243.21,120.17c2.22,1.1.43,6.4-3.19,9.72-.51.47-4.37,3.94-6.89,3.16-2.06-.64-2.45-3.89-1.63-6.16C233.18,122.22,240.85,119,243.21,120.17Z" transform="translate(0 -0.05)"/><path class="cls-205" d="M252.24,133.9c1.4-.68,5.26,2.24,7.11,5.31.26.43,2.17,3.68,1,4.63-1,.77-3.69-.28-5.34-1.56C251.6,139.66,250.76,134.62,252.24,133.9Z" transform="translate(0 -0.05)"/><path class="cls-206" d="M252.19,133.29c2.44.38,2.93,6.07,1,10.4-.28.61-2.39,5.17-5,5.19-2.13,0-3.77-3-3.93-5.47C243.92,138.37,249.58,132.88,252.19,133.29Z" transform="translate(0 -0.05)"/><path class="cls-207" d="M236.87,134.71c1.6-.24,4.34,3.52,5.07,6.85.1.47.82,4-.69,4.54-1.25.44-3.52-1.27-4.68-2.91C234.2,139.85,235.16,135,236.87,134.71Z" transform="translate(0 -0.05)"/><path class="cls-208" d="M237,134.13c2.25,1,.71,6.41-2.73,9.86-.49.5-4.17,4.11-6.72,3.42-2.08-.57-2.61-3.81-1.9-6.12C227.14,136.54,234.62,133,237,134.13Z" transform="translate(0 -0.05)"/><path class="cls-209" d="M37.94,139a21.5,21.5,0,0,1,.75,4.82,20.85,20.85,0,0,1-.4,5l-4.2,1.39" transform="translate(0 -0.05)"/><ellipse class="cls-210" cx="35.33" cy="148.81" rx="2.97" ry="1.46" transform="translate(-0.33 0.02) rotate(-0.13)"/><ellipse class="cls-210" cx="55.58" cy="168.28" rx="3.11" ry="1.76" transform="translate(-35.9 16.44) rotate(-12.8)"/><path class="cls-209" d="M57.39,169.21a2.8,2.8,0,0,0,1-1.54c.53-2.21-1.69-5.5-2.21-7.34,0-.13-.08-.32-.21-.8-.3-1.07-.37-1.22-.32-1.28.2-.17,1.07,1.45,2.68,2.2,1.29.6,2,.16,2.59.86a2.89,2.89,0,0,1,.23,2.26" transform="translate(0 -0.05)"/><path class="cls-209" d="M83.52,152l-.33-5.29h0a5.48,5.48,0,0,0,1.83,0,9.91,9.91,0,0,0,2.6-1h0l.09,7.51" transform="translate(0 -0.05)"/><ellipse class="cls-209" cx="83.03" cy="151.87" rx="0.49" ry="0.38" transform="translate(-0.34 0.13) rotate(-0.13)"/><ellipse class="cls-209" cx="87.19" cy="153.23" rx="0.49" ry="0.38" transform="translate(-0.34 0.14) rotate(-0.13)"/><path class="cls-209" d="M15.46,166.25l-.36-5.47h0a6.54,6.54,0,0,0,2,0,11.47,11.47,0,0,0,2.9-1h0l.11,7.77" transform="translate(0 -0.05)"/><ellipse class="cls-211" cx="14.92" cy="166.11" rx="0.54" ry="0.4" transform="translate(-0.37 -0.02) rotate(-0.13)"/><ellipse class="cls-209" cx="19.56" cy="167.52" rx="0.54" ry="0.4" transform="translate(-0.37 -0.01) rotate(-0.13)"/><path class="cls-212" d="M37.29,148.5a59.66,59.66,0,0,0,9,2.1c7.09,1.14,16.55,1.58,44.9-1.28,23.17-2.33,29.19-3.88,42.24-3.45a137.55,137.55,0,0,1,17.75,1.7" transform="translate(0 -0.05)"/><path class="cls-212" d="M11.07,161a51.77,51.77,0,0,0,10.11,3.59c8,2,18.55,2.82,50.26-1.56,25.92-3.59,32.64-6.07,47.26-5.2a107.22,107.22,0,0,1,19.9,3" transform="translate(0 -0.05)"/><ellipse class="cls-210" cx="148.86" cy="150.38" rx="2.7" ry="1.49" transform="translate(-29.7 36.79) rotate(-12.84)"/><path class="cls-209" d="M150.43,151.16a2.45,2.45,0,0,0,.86-1.31c.47-1.89-1.44-4.67-1.88-6.22,0-.12-.07-.28-.19-.69-.25-.91-.31-1-.26-1.08s.91,1.23,2.31,1.85c1.12.5,1.77.13,2.24.72a2.37,2.37,0,0,1,.19,1.92" transform="translate(0 -0.05)"/><rect class="cls-213" x="31.54" y="187.66" width="1.47" height="35.13" transform="translate(-0.46 0.02) rotate(-0.13)"/><rect class="cls-214" x="78.46" y="187.66" width="1.47" height="35.13" transform="translate(-0.46 0.12) rotate(-0.13)"/></g></g></svg>