<svg xmlns="http://www.w3.org/2000/svg" xmlns:xlink="http://www.w3.org/1999/xlink" viewBox="0 0 353.62 396.99"><defs><style>.cls-1{fill:url(#Orchid);}</style><linearGradient id="Orchid" x1="-1.71" y1="102.23" x2="299.1" y2="441.43" gradientUnits="userSpaceOnUse"><stop offset="0" stop-color="#ff7bac"/><stop offset="0.22" stop-color="#ff7bac" stop-opacity="0.76"/><stop offset="0.6" stop-color="#ff7bac" stop-opacity="0.36"/><stop offset="0.87" stop-color="#ff7bac" stop-opacity="0.1"/><stop offset="1" stop-color="#ff7bac" stop-opacity="0"/></linearGradient></defs><title>Asset 4</title><g id="Layer_2" data-name="Layer 2"><g id="Layer_1-2" data-name="Layer 1"><path class="cls-1" d="M12.87,51.07,9.06,67.46c0,.19,0,.42,0,.42V67h0c.53,35.6,3,126.4,2,229-.42,43.59-1.35,78.76-2,100h0c-45-.45,90,.93,135,1h28c92.32-.09,169-1,169-1h0s12.71-24.61,12.56-38.85c-.13-12.53-10.38-30-56-51.07-22.73-12.49-52.5-33.8-67.47-69-27.07-63.68,22.37-106.8-6.48-166.18C202.62,27.59,150-3.8,107.39.37c-15,1.47-29.84,7.44-35.06,9.53A165.66,165.66,0,0,0,12.87,51.07Z"/></g></g></svg>