<svg xmlns="http://www.w3.org/2000/svg" xmlns:xlink="http://www.w3.org/1999/xlink" viewBox="0 0 324.81 398.96"><defs><style>.cls-1,.cls-117,.cls-120,.cls-15,.cls-16,.cls-18{fill:none;}.cls-2{fill:url(#Orchid);}.cls-3{clip-path:url(#clip-path);}.cls-4{fill:#9e005d;fill-opacity:0.1;}.cls-5{clip-path:url(#clip-path-2);}.cls-6{clip-path:url(#clip-path-3);}.cls-7{clip-path:url(#clip-path-4);}.cls-8{clip-path:url(#clip-path-5);}.cls-9{clip-path:url(#clip-path-6);}.cls-10{clip-path:url(#clip-path-7);}.cls-11{fill:url(#radial-gradient);}.cls-12{fill:url(#linear-gradient);}.cls-13{fill:url(#linear-gradient-2);}.cls-14{fill:url(#radial-gradient-2);}.cls-15,.cls-16,.cls-18{stroke:#000;}.cls-117,.cls-118,.cls-119,.cls-120,.cls-15,.cls-16,.cls-18{stroke-miterlimit:10;}.cls-15{opacity:0.53;}.cls-16{opacity:0.67;}.cls-17{opacity:0.51;}.cls-19{opacity:0.5;}.cls-20{fill:url(#linear-gradient-3);}.cls-21{fill:url(#linear-gradient-4);}.cls-22{fill:#070638;}.cls-23{fill:url(#radial-gradient-3);}.cls-24{fill:url(#radial-gradient-4);}.cls-25{fill:url(#radial-gradient-5);}.cls-26{fill:url(#radial-gradient-6);}.cls-27{fill:url(#radial-gradient-7);}.cls-28{fill:url(#radial-gradient-8);}.cls-29{fill:url(#radial-gradient-9);}.cls-30{fill:url(#radial-gradient-10);}.cls-31{fill:url(#radial-gradient-11);}.cls-32{fill:url(#radial-gradient-12);}.cls-33{fill:url(#radial-gradient-13);}.cls-34{fill:url(#radial-gradient-14);}.cls-35{fill:url(#radial-gradient-15);}.cls-36{fill:url(#radial-gradient-16);}.cls-37{fill:url(#radial-gradient-17);}.cls-38{fill:url(#radial-gradient-18);}.cls-39{fill:url(#radial-gradient-19);}.cls-40{fill:url(#radial-gradient-20);}.cls-41{fill:url(#radial-gradient-21);}.cls-42{fill:url(#radial-gradient-22);}.cls-43{fill:url(#radial-gradient-23);}.cls-44{fill:url(#radial-gradient-24);}.cls-45{fill:url(#radial-gradient-25);}.cls-46{fill:url(#radial-gradient-26);}.cls-47{fill:url(#radial-gradient-27);}.cls-48{fill:url(#radial-gradient-28);}.cls-49{fill:url(#radial-gradient-29);}.cls-50{fill:url(#radial-gradient-30);}.cls-51{fill:url(#radial-gradient-31);}.cls-52{fill:url(#radial-gradient-32);}.cls-53{fill:url(#radial-gradient-33);}.cls-54{fill:url(#radial-gradient-34);}.cls-55{fill:url(#radial-gradient-35);}.cls-56{fill:url(#radial-gradient-36);}.cls-57{fill:url(#radial-gradient-37);}.cls-58{fill:url(#radial-gradient-38);}.cls-59{fill:url(#radial-gradient-39);}.cls-60{fill:url(#radial-gradient-40);}.cls-61{fill:url(#radial-gradient-41);}.cls-62{fill:url(#radial-gradient-42);}.cls-63{fill:url(#radial-gradient-43);}.cls-64{fill:url(#radial-gradient-44);}.cls-65{fill:url(#radial-gradient-45);}.cls-66{fill:url(#radial-gradient-46);}.cls-67{fill:url(#radial-gradient-47);}.cls-68{fill:url(#radial-gradient-48);}.cls-69{fill:url(#radial-gradient-49);}.cls-70{fill:url(#radial-gradient-50);}.cls-71{fill:url(#radial-gradient-51);}.cls-72{fill:url(#radial-gradient-52);}.cls-73{fill:url(#radial-gradient-53);}.cls-74{fill:url(#radial-gradient-54);}.cls-75{fill:url(#radial-gradient-55);}.cls-76{fill:url(#radial-gradient-56);}.cls-77{fill:url(#radial-gradient-57);}.cls-78{fill:url(#radial-gradient-58);}.cls-79{fill:url(#radial-gradient-59);}.cls-80{fill:url(#radial-gradient-60);}.cls-81{fill:url(#radial-gradient-61);}.cls-82{fill:url(#radial-gradient-62);}.cls-83{fill:url(#radial-gradient-63);}.cls-84{fill:url(#radial-gradient-64);}.cls-85{fill:url(#radial-gradient-65);}.cls-86{fill:url(#radial-gradient-66);}.cls-87{fill:url(#radial-gradient-67);}.cls-88{fill:url(#radial-gradient-68);}.cls-89{fill:url(#radial-gradient-69);}.cls-90{fill:url(#linear-gradient-5);}.cls-91{fill:url(#linear-gradient-6);}.cls-92{fill:url(#linear-gradient-7);}.cls-93{fill:url(#linear-gradient-8);}.cls-94{fill:url(#linear-gradient-9);}.cls-95{fill:url(#linear-gradient-10);}.cls-96{fill:url(#linear-gradient-11);}.cls-97{fill:url(#linear-gradient-12);}.cls-98{fill:url(#linear-gradient-13);}.cls-99{fill:url(#linear-gradient-14);}.cls-100{fill:url(#linear-gradient-15);}.cls-101{fill:url(#linear-gradient-16);}.cls-102{fill:url(#linear-gradient-17);}.cls-103{fill:url(#linear-gradient-18);}.cls-104{fill:url(#linear-gradient-19);}.cls-105{fill:url(#linear-gradient-20);}.cls-106{fill:url(#linear-gradient-21);}.cls-107{fill:url(#linear-gradient-22);}.cls-108{fill:url(#linear-gradient-23);}.cls-109{fill:url(#linear-gradient-24);}.cls-110{fill:url(#linear-gradient-25);}.cls-111{fill:url(#linear-gradient-26);}.cls-112{fill:url(#linear-gradient-27);}.cls-113{fill:url(#linear-gradient-28);}.cls-114{fill:url(#linear-gradient-29);}.cls-115{fill:url(#linear-gradient-30);}.cls-116{fill:url(#linear-gradient-31);}.cls-117,.cls-118,.cls-119,.cls-120{stroke:#c06;}.cls-118{fill:#c06;}.cls-120{stroke-width:0.5px;}.cls-121{clip-path:url(#clip-path-8);}.cls-122{clip-path:url(#clip-path-9);}.cls-123{clip-path:url(#clip-path-10);}.cls-124{clip-path:url(#clip-path-11);}</style><linearGradient id="Orchid" x1="-52.71" y1="321.84" x2="-21.21" y2="357.36" gradientTransform="translate(114.11 -323.17) rotate(0.38)" gradientUnits="userSpaceOnUse"><stop offset="0" stop-color="#ff7bac"/><stop offset="0.22" stop-color="#ff7bac" stop-opacity="0.76"/><stop offset="0.6" stop-color="#ff7bac" stop-opacity="0.36"/><stop offset="0.87" stop-color="#ff7bac" stop-opacity="0.1"/><stop offset="1" stop-color="#ff7bac" stop-opacity="0"/></linearGradient><clipPath id="clip-path" transform="translate(-0.01)"><rect class="cls-1" x="0.01" y="363.76" width="30.11" height="27.28"/></clipPath><clipPath id="clip-path-2" transform="translate(-0.01)"><rect class="cls-1" x="304.74" y="314.77" width="20.07" height="18.19"/></clipPath><clipPath id="clip-path-3" transform="translate(-0.01)"><rect class="cls-1" x="248.21" y="117" width="27.36" height="24.8"/></clipPath><clipPath id="clip-path-4" transform="translate(-0.01)"><rect class="cls-1" x="119.82" y="338.9" width="20.07" height="18.19"/></clipPath><clipPath id="clip-path-5" transform="translate(-0.01)"><rect class="cls-1" x="136.09" y="273.05" width="20.07" height="18.19"/></clipPath><clipPath id="clip-path-6" transform="translate(-0.01)"><rect class="cls-1" x="100.92" y="344.53" width="20.07" height="18.19"/></clipPath><clipPath id="clip-path-7" transform="translate(-0.01)"><rect class="cls-1" x="278.45" y="304.5" width="20.07" height="18.19"/></clipPath><radialGradient id="radial-gradient" cx="2058.31" cy="-2693.31" fx="1953.5067423138707" r="104.8" gradientTransform="matrix(-1, 0, 0, -0.78, 2206.88, -1770.11)" gradientUnits="userSpaceOnUse"><stop offset="0" stop-color="#9e005d"/><stop offset="0" stop-color="#0d0c44"/></radialGradient><linearGradient id="linear-gradient" x1="112.85" y1="111.91" x2="221.79" y2="111.91" gradientTransform="translate(11.25 173.25) rotate(0.03)" gradientUnits="userSpaceOnUse"><stop offset="0.46" stop-color="#9e005d"/><stop offset="0.51" stop-color="#8a025a"/><stop offset="0.68" stop-color="#540650"/><stop offset="0.82" stop-color="#2e094a"/><stop offset="0.93" stop-color="#160b46"/><stop offset="1" stop-color="#0d0c44"/></linearGradient><linearGradient id="linear-gradient-2" x1="41.61" y1="-1.13" x2="300.91" y2="-1.13" gradientTransform="translate(11.23 173.25) rotate(0.03)" gradientUnits="userSpaceOnUse"><stop offset="0.07"/><stop offset="0.26" stop-color="#0a0724"/><stop offset="0.44" stop-color="#110d40"/><stop offset="0.62" stop-color="#171154"/><stop offset="0.81" stop-color="#1a1360"/><stop offset="0.99" stop-color="#1b1464"/></linearGradient><radialGradient id="radial-gradient-2" cx="183.63" cy="-62.96" r="199.18" gradientTransform="matrix(1.05, 0, 0, 1.04, -15.53, 206.27)" gradientUnits="userSpaceOnUse"><stop offset="0.17" stop-color="#fff"/><stop offset="0.22" stop-color="#eae9f1" stop-opacity="0.91"/><stop offset="0.39" stop-color="#aca9c7" stop-opacity="0.64"/><stop offset="0.55" stop-color="#7874a3" stop-opacity="0.41"/><stop offset="0.69" stop-color="#504b88" stop-opacity="0.23"/><stop offset="0.82" stop-color="#332d74" stop-opacity="0.11"/><stop offset="0.93" stop-color="#211b68" stop-opacity="0.03"/><stop offset="1" stop-color="#1b1464" stop-opacity="0"/></radialGradient><linearGradient id="linear-gradient-3" x1="163.68" y1="-31.05" x2="172.64" y2="-31.05" xlink:href="#linear-gradient"/><linearGradient id="linear-gradient-4" x1="172.71" y1="-18.91" x2="179.86" y2="-18.91" xlink:href="#linear-gradient"/><radialGradient id="radial-gradient-3" cx="1430.61" cy="217.41" r="6.12" gradientTransform="matrix(0.97, -0.4, 0.39, 0.99, -1200.04, 525.33)" gradientUnits="userSpaceOnUse"><stop offset="0" stop-color="#9e005d"/><stop offset="0.99" stop-color="#0d0c44"/></radialGradient><radialGradient id="radial-gradient-4" cx="2245.34" cy="2392.52" r="6.12" gradientTransform="matrix(0.69, -1.56, 1.23, 0.57, -4214.2, 2304.92)" xlink:href="#radial-gradient-3"/><radialGradient id="radial-gradient-5" cx="3823.35" cy="3344.99" r="6.12" gradientTransform="matrix(0.05, -1.07, 1.05, 0.05, -3434.51, 4061.17)" xlink:href="#radial-gradient-3"/><radialGradient id="radial-gradient-6" cx="1974.18" cy="5437.46" r="6.12" gradientTransform="matrix(-1.1, -1.3, 1.02, -0.9, -3112.78, 7598.24)" xlink:href="#radial-gradient-3"/><radialGradient id="radial-gradient-7" cx="998.79" cy="7216.44" r="6.12" gradientTransform="matrix(-1.03, -0.23, 0.23, -1.05, -358.73, 7930.25)" xlink:href="#radial-gradient-3"/><radialGradient id="radial-gradient-8" cx="-979.51" cy="6094.76" r="6.12" gradientTransform="matrix(-1.44, 0.89, -0.7, -1.18, 3116.58, 8205.9)" xlink:href="#radial-gradient-3"/><radialGradient id="radial-gradient-9" cx="2183.6" cy="526.8" r="6.12" gradientTransform="matrix(0.89, -0.57, 0.56, 0.91, -1940.91, 915.94)" xlink:href="#radial-gradient-3"/><radialGradient id="radial-gradient-10" cx="2434.95" cy="4677.46" r="6.12" gradientTransform="matrix(-0.59, -1.6, 1.27, -0.48, -4198.55, 6290.84)" xlink:href="#radial-gradient-3"/><radialGradient id="radial-gradient-11" cx="3817.37" cy="3160.85" r="6.12" gradientTransform="matrix(0.09, -1.07, 1.05, 0.1, -3385.73, 3895.24)" xlink:href="#radial-gradient-3"/><radialGradient id="radial-gradient-12" cx="2051.18" cy="5330.72" r="6.12" gradientTransform="matrix(-1.05, -1.34, 1.06, -0.86, -3204.94, 7442.5)" xlink:href="#radial-gradient-3"/><radialGradient id="radial-gradient-13" cx="4080.84" cy="3185.24" r="6.12" gradientTransform="matrix(0.13, -1.06, 1.04, 0.14, -3607.34, 4049.6)" xlink:href="#radial-gradient-3"/><radialGradient id="radial-gradient-14" cx="2159.83" cy="5486.13" r="6.12" gradientTransform="matrix(-1, -1.38, 1.09, -0.82, -3557.95, 7601.12)" xlink:href="#radial-gradient-3"/><radialGradient id="radial-gradient-15" cx="2243.84" cy="6996.96" r="6.12" gradientTransform="matrix(-0.89, -0.57, 0.56, -0.91, -1674.38, 7770.72)" xlink:href="#radial-gradient-3"/><radialGradient id="radial-gradient-16" cx="-321.19" cy="6640.95" r="6.12" gradientTransform="matrix(-1.65, 0.34, -0.27, -1.35, 1508.91, 9221.53)" xlink:href="#radial-gradient-3"/><radialGradient id="radial-gradient-17" cx="3475.07" cy="6104.03" r="6.12" gradientTransform="matrix(-0.64, -0.85, 0.84, -0.65, -2627.35, 7052.57)" xlink:href="#radial-gradient-3"/><radialGradient id="radial-gradient-18" cx="622.37" cy="6801.13" r="6.12" gradientTransform="matrix(-1.66, -0.27, 0.21, -1.36, -140.25, 9544.22)" xlink:href="#radial-gradient-3"/><radialGradient id="radial-gradient-19" cx="2387.17" cy="6873.83" r="6.12" gradientTransform="matrix(-0.87, -0.61, 0.6, -0.88, -1792.5, 7645.92)" xlink:href="#radial-gradient-3"/><radialGradient id="radial-gradient-20" cx="-203.05" cy="6648.82" r="6.12" gradientTransform="matrix(-1.66, 0.27, -0.22, -1.36, 1330.63, 9226.94)" xlink:href="#radial-gradient-3"/><radialGradient id="radial-gradient-21" cx="2950.8" cy="5463.79" r="6.12" gradientTransform="matrix(-0.56, -0.71, 0.64, -0.62, -1617.06, 5625.15)" xlink:href="#radial-gradient-3"/><radialGradient id="radial-gradient-22" cx="662.25" cy="6159.24" r="6.16" gradientTransform="matrix(-1.35, -0.14, 0.1, -1.2, 518.35, 7670.35)" xlink:href="#radial-gradient-3"/><radialGradient id="radial-gradient-23" cx="-298.63" cy="6928.95" r="6.12" gradientTransform="matrix(-0.82, 0.26, -0.24, -0.9, 1630.61, 6512.46)" xlink:href="#radial-gradient-3"/><radialGradient id="radial-gradient-24" cx="-1442.09" cy="5235.41" r="6.12" gradientTransform="matrix(-0.68, 1.3, -0.95, -0.61, 4201.64, 5236.8)" xlink:href="#radial-gradient-3"/><radialGradient id="radial-gradient-25" cx="1068.93" cy="6928.19" r="6.12" gradientTransform="matrix(-0.85, -0.07, 0.06, -0.94, 692.39, 6728.27)" xlink:href="#radial-gradient-3"/><radialGradient id="radial-gradient-26" cx="-823.02" cy="5970.44" r="6.12" gradientTransform="matrix(-1.05, 0.95, -0.7, -0.94, 3507.59, 6526.3)" xlink:href="#radial-gradient-3"/><radialGradient id="radial-gradient-27" cx="-155.96" cy="6908.93" r="6.12" gradientTransform="matrix(-0.83, 0.22, -0.2, -0.91, 1493.07, 6518.27)" xlink:href="#radial-gradient-3"/><radialGradient id="radial-gradient-28" cx="-1368.87" cy="5300.88" r="6.12" gradientTransform="matrix(-0.73, 1.27, -0.92, -0.65, 4109.11, 5358.95)" xlink:href="#radial-gradient-3"/><radialGradient id="radial-gradient-29" cx="-1048.03" cy="47.94" r="6.12" gradientTransform="matrix(0.62, 0.66, -0.42, 0.67, 959.34, 870.88)" xlink:href="#radial-gradient-3"/><radialGradient id="radial-gradient-30" cx="1197.25" cy="964.27" r="6.12" gradientTransform="matrix(1.18, 0.02, 0.17, 1.21, -1287.07, -991.26)" xlink:href="#radial-gradient-3"/><radialGradient id="radial-gradient-31" cx="2935.63" cy="1024.57" r="6.12" gradientTransform="matrix(0.64, -0.33, 0.39, 0.88, -1993.65, 265.28)" xlink:href="#radial-gradient-3"/><radialGradient id="radial-gradient-32" cx="2576.91" cy="3655.64" r="6.12" gradientTransform="matrix(0.31, -1.36, 0.93, 0.53, -3918.99, 1766.89)" xlink:href="#radial-gradient-3"/><radialGradient id="radial-gradient-33" cx="2037.61" cy="266.08" r="6.12" gradientTransform="matrix(0.74, 0, 0.14, 0.94, -1239, -32.61)" xlink:href="#radial-gradient-3"/><radialGradient id="radial-gradient-34" cx="2498.91" cy="2746.31" r="6.12" gradientTransform="matrix(0.7, -1.04, 0.79, 0.88, -3596.3, 414.99)" xlink:href="#radial-gradient-3"/><radialGradient id="radial-gradient-35" cx="2836.33" cy="878.32" r="6.12" gradientTransform="matrix(0.66, -0.3, 0.36, 0.9, -1877.64, 247.48)" xlink:href="#radial-gradient-3"/><radialGradient id="radial-gradient-36" cx="2595.29" cy="3520.02" r="6.12" gradientTransform="matrix(0.36, -1.33, 0.92, 0.57, -3865.6, 1636.5)" xlink:href="#radial-gradient-3"/><radialGradient id="radial-gradient-37" cx="2073.08" cy="-943.86" r="6.12" gradientTransform="matrix(0.89, -0.14, 0.3, 0.73, -1283.9, 1179.22)" xlink:href="#radial-gradient-3"/><radialGradient id="radial-gradient-38" cx="3038.68" cy="2085.23" r="6.12" gradientTransform="matrix(0.7, -0.97, 1.08, 0.55, -4076.19, 1988.68)" xlink:href="#radial-gradient-3"/><radialGradient id="radial-gradient-39" cx="5147.09" cy="3440.03" r="6.12" gradientTransform="matrix(0.1, -0.72, 0.94, 0.18, -3467.91, 3294.45)" xlink:href="#radial-gradient-3"/><radialGradient id="radial-gradient-40" cx="2531.96" cy="6202.78" r="6.12" gradientTransform="matrix(-0.92, -1.03, 0.96, -0.48, -3361.57, 5755.66)" xlink:href="#radial-gradient-3"/><radialGradient id="radial-gradient-41" cx="4953.37" cy="1757.17" r="6.12" gradientTransform="matrix(0.42, -0.62, 0.84, 0.42, -3275.04, 2495.61)" xlink:href="#radial-gradient-3"/><radialGradient id="radial-gradient-42" cx="3172.73" cy="5152.58" r="6.12" gradientTransform="matrix(-0.44, -1.18, 1.16, -0.16, -4267.2, 4715.38)" xlink:href="#radial-gradient-3"/><radialGradient id="radial-gradient-43" cx="5143.87" cy="3202.16" r="6.12" gradientTransform="matrix(0.14, -0.72, 0.93, 0.21, -3415.67, 3187.61)" xlink:href="#radial-gradient-3"/><radialGradient id="radial-gradient-44" cx="2633.47" cy="6067.33" r="6.12" gradientTransform="matrix(-0.87, -1.06, 0.99, -0.44, -3436.14, 5636.77)" xlink:href="#radial-gradient-3"/><radialGradient id="radial-gradient-45" cx="-3371.27" cy="3191.79" r="51.59" gradientTransform="matrix(-0.04, 1.07, 0.75, 0, -2272.44, 3861.65)" xlink:href="#radial-gradient-3"/><radialGradient id="radial-gradient-46" cx="-526.91" cy="193.86" r="11.05" gradientTransform="matrix(1.04, 0.19, -0.18, 1.06, 808.92, 218)" xlink:href="#radial-gradient-3"/><radialGradient id="radial-gradient-47" cx="-570.59" cy="-650.36" r="11.05" gradientTransform="matrix(0.99, 0.2, -0.16, 0.83, 682.76, 985.35)" xlink:href="#radial-gradient-3"/><radialGradient id="radial-gradient-48" cx="1837.69" cy="470.56" r="11.05" gradientTransform="matrix(-0.97, -0.42, -0.41, 0.99, 2214.29, 635.51)" xlink:href="#radial-gradient-3"/><radialGradient id="radial-gradient-49" cx="631.62" cy="-828.92" r="11.05" gradientTransform="matrix(-1, 0.04, 0.03, 0.85, 900.89, 1005.41)" xlink:href="#radial-gradient-3"/><radialGradient id="radial-gradient-50" cx="2054.99" cy="597.05" r="11.05" gradientTransform="matrix(-0.93, -0.5, -0.49, 0.95, 2450.22, 792.13)" xlink:href="#radial-gradient-3"/><radialGradient id="radial-gradient-51" cx="-213.66" cy="-2243.23" r="11.05" gradientTransform="matrix(1.01, 0.09, -0.05, 0.61, 327.43, 1716.03)" xlink:href="#radial-gradient-3"/><radialGradient id="radial-gradient-52" cx="490.79" cy="74.99" r="11.05" gradientTransform="matrix(-1.05, 0.06, 0.06, 1.07, 748.95, 209.67)" xlink:href="#radial-gradient-3"/><radialGradient id="radial-gradient-53" cx="2138.9" cy="-218.23" r="11.05" gradientTransform="matrix(-0.9, -0.46, -0.37, 0.76, 2091.85, 1471.28)" xlink:href="#radial-gradient-3"/><radialGradient id="radial-gradient-54" cx="-512.57" cy="198.08" r="11.05" gradientTransform="matrix(1.04, 0.19, -0.18, 1.06, 808.92, 218)" xlink:href="#radial-gradient-3"/><radialGradient id="radial-gradient-55" cx="-555.49" cy="-645.43" r="11.05" gradientTransform="matrix(0.99, 0.2, -0.16, 0.83, 682.76, 985.35)" xlink:href="#radial-gradient-3"/><radialGradient id="radial-gradient-56" cx="1822.77" cy="471.46" r="11.05" gradientTransform="matrix(-0.97, -0.42, -0.41, 0.99, 2214.29, 635.51)" xlink:href="#radial-gradient-3"/><radialGradient id="radial-gradient-57" cx="617.91" cy="-819.85" r="11.05" gradientTransform="matrix(-1, 0.04, 0.03, 0.85, 900.89, 1005.41)" xlink:href="#radial-gradient-3"/><radialGradient id="radial-gradient-58" cx="2040.04" cy="596.7" r="11.05" gradientTransform="matrix(-0.93, -0.5, -0.49, 0.95, 2450.22, 792.13)" xlink:href="#radial-gradient-3"/><radialGradient id="radial-gradient-59" cx="-199.21" cy="-2233.56" r="11.05" gradientTransform="matrix(1.01, 0.09, -0.05, 0.61, 327.43, 1716.03)" xlink:href="#radial-gradient-3"/><radialGradient id="radial-gradient-60" cx="477.82" cy="82.44" r="11.05" gradientTransform="matrix(-1.05, 0.06, 0.06, 1.07, 748.95, 209.67)" xlink:href="#radial-gradient-3"/><radialGradient id="radial-gradient-61" cx="2123.26" cy="-218.17" r="11.05" gradientTransform="matrix(-0.9, -0.46, -0.37, 0.76, 2091.85, 1471.28)" xlink:href="#radial-gradient-3"/><radialGradient id="radial-gradient-62" cx="-726.95" cy="217.26" r="11.05" gradientTransform="matrix(1.05, -0.02, 0.04, 1.07, 874.48, 76.08)" xlink:href="#radial-gradient-3"/><radialGradient id="radial-gradient-63" cx="-779.22" cy="-615.28" r="11.05" gradientTransform="matrix(1.01, 0, 0.01, 0.85, 911.26, 852.56)" xlink:href="#radial-gradient-3"/><radialGradient id="radial-gradient-64" cx="2027.38" cy="538.24" r="11.05" gradientTransform="matrix(-1.04, -0.22, -0.2, 1.05, 2337.05, 200.64)" xlink:href="#radial-gradient-3"/><radialGradient id="radial-gradient-65" cx="841.24" cy="-853.98" r="11.05" gradientTransform="matrix(-0.98, 0.24, 0.21, 0.82, 1128.93, 828.11)" xlink:href="#radial-gradient-3"/><radialGradient id="radial-gradient-66" cx="2238.36" cy="680.34" r="11.05" gradientTransform="matrix(-1.02, -0.3, -0.28, 1.03, 2600.66, 306.24)" xlink:href="#radial-gradient-3"/><radialGradient id="radial-gradient-67" cx="-423.01" cy="-2234.5" r="11.05" gradientTransform="matrix(1, -0.12, 0.08, 0.61, 716.11, 1639.48)" xlink:href="#radial-gradient-3"/><radialGradient id="radial-gradient-68" cx="690.78" cy="51.25" r="11.05" gradientTransform="matrix(-1.01, 0.27, 0.28, 1.03, 814.05, 80.05)" xlink:href="#radial-gradient-3"/><radialGradient id="radial-gradient-69" cx="2332.92" cy="-119.32" r="11.05" gradientTransform="matrix(-0.98, -0.26, -0.2, 0.82, 2391.77, 1043.33)" xlink:href="#radial-gradient-3"/><linearGradient id="linear-gradient-5" x1="136.32" y1="46.48" x2="217.51" y2="46.48" xlink:href="#linear-gradient-2"/><linearGradient id="linear-gradient-6" x1="197.59" y1="24.48" x2="206.52" y2="24.48" xlink:href="#linear-gradient"/><linearGradient id="linear-gradient-7" x1="199.68" y1="23.41" x2="205.73" y2="23.41" xlink:href="#linear-gradient"/><linearGradient id="linear-gradient-8" x1="198.27" y1="29.49" x2="211.71" y2="29.49" xlink:href="#linear-gradient"/><linearGradient id="linear-gradient-9" x1="201.15" y1="28.88" x2="209.8" y2="28.88" xlink:href="#linear-gradient"/><linearGradient id="linear-gradient-10" x1="183.05" y1="28.38" x2="198.72" y2="28.38" xlink:href="#linear-gradient"/><linearGradient id="linear-gradient-11" x1="191.3" y1="23.01" x2="199.07" y2="23.01" xlink:href="#linear-gradient"/><linearGradient id="linear-gradient-12" x1="196.82" y1="26.1" x2="202.85" y2="26.1" xlink:href="#linear-gradient"/><linearGradient id="linear-gradient-13" x1="194.08" y1="34.18" x2="195.19" y2="22.33" xlink:href="#linear-gradient"/><linearGradient id="linear-gradient-14" x1="193.31" y1="30.5" x2="184.6" y2="21.29" xlink:href="#linear-gradient"/><linearGradient id="linear-gradient-15" x1="198.06" y1="27.03" x2="201.17" y2="27.03" xlink:href="#linear-gradient"/><linearGradient id="linear-gradient-16" x1="185.65" y1="40.77" x2="211.12" y2="41.33" gradientTransform="translate(11.25 173.25) rotate(0.03)" gradientUnits="userSpaceOnUse"><stop offset="0.19" stop-color="#1b1464"/><stop offset="0.37" stop-color="#2f1b70"/><stop offset="0.73" stop-color="#642c90"/><stop offset="0.75" stop-color="#662d91"/></linearGradient><linearGradient id="linear-gradient-17" x1="141.57" y1="11.26" x2="154.61" y2="11.26" gradientTransform="translate(11.25 173.25) rotate(0.03)" gradientUnits="userSpaceOnUse"><stop offset="0" stop-color="#662d91"/><stop offset="0.12" stop-color="#522685"/><stop offset="0.31" stop-color="#3a1e77"/><stop offset="0.52" stop-color="#29196c"/><stop offset="0.73" stop-color="#1e1566"/><stop offset="0.99" stop-color="#1b1464"/></linearGradient><linearGradient id="linear-gradient-18" x1="120.95" y1="30.37" x2="174.28" y2="30.37" gradientTransform="translate(11.25 173.25) rotate(0.03)" gradientUnits="userSpaceOnUse"><stop offset="0" stop-color="#9e005d"/><stop offset="0.09" stop-color="#ae1563"/><stop offset="0.26" stop-color="#c8366e"/><stop offset="0.44" stop-color="#dc5076"/><stop offset="0.61" stop-color="#eb637b"/><stop offset="0.8" stop-color="#f36e7f"/><stop offset="1" stop-color="#f67280"/></linearGradient><linearGradient id="linear-gradient-19" x1="128.35" y1="21.6" x2="170.57" y2="21.6" gradientTransform="translate(11.25 173.25) rotate(0.03)" gradientUnits="userSpaceOnUse"><stop offset="0.33" stop-color="#9e005d"/><stop offset="0.49" stop-color="#a1015e"/><stop offset="0.61" stop-color="#ab0562"/><stop offset="0.73" stop-color="#bc0b68"/><stop offset="0.84" stop-color="#d31470"/><stop offset="0.93" stop-color="#ed1e79"/></linearGradient><linearGradient id="linear-gradient-20" x1="114.65" y1="34.65" x2="256.63" y2="34.65" xlink:href="#linear-gradient-17"/><linearGradient id="linear-gradient-21" x1="123.42" y1="41.53" x2="130.15" y2="41.53" xlink:href="#linear-gradient-17"/><linearGradient id="linear-gradient-22" x1="155.76" y1="54.53" x2="162.07" y2="54.53" xlink:href="#linear-gradient-17"/><linearGradient id="linear-gradient-23" x1="112.31" y1="22.39" x2="137.68" y2="22.39" xlink:href="#linear-gradient-19"/><linearGradient id="linear-gradient-24" x1="136" y1="-1.58" x2="166.2" y2="-1.58" xlink:href="#linear-gradient-17"/><linearGradient id="linear-gradient-25" x1="159.04" y1="27.97" x2="177.08" y2="27.97" xlink:href="#linear-gradient-17"/><linearGradient id="linear-gradient-26" x1="151.2" y1="-101.59" x2="163.54" y2="-101.59" gradientTransform="matrix(0.94, 0, 0, 0.97, 33.24, 283.94)" xlink:href="#linear-gradient-17"/><linearGradient id="linear-gradient-27" x1="148.48" y1="-54.72" x2="161.09" y2="-54.72" gradientTransform="matrix(0.96, 0, 0, 0.98, 28.47, 237.88)" xlink:href="#linear-gradient-17"/><linearGradient id="linear-gradient-28" x1="158.87" y1="10.36" x2="168.83" y2="10.36" xlink:href="#linear-gradient-17"/><linearGradient id="linear-gradient-29" x1="109.47" y1="2.9" x2="228.51" y2="2.9" gradientTransform="translate(11.25 173.25) rotate(0.03)" gradientUnits="userSpaceOnUse"><stop offset="0.09" stop-color="#1b1464"/><stop offset="0.16" stop-color="#130e45"/><stop offset="0.25" stop-color="#0c092c"/><stop offset="0.34" stop-color="#070518"/><stop offset="0.45" stop-color="#03020a"/><stop offset="0.58" stop-color="#010002"/><stop offset="0.82"/></linearGradient><linearGradient id="linear-gradient-30" x1="148.54" y1="-1.19" x2="153.8" y2="-1.19" gradientTransform="translate(11.25 173.25) rotate(0.03)" gradientUnits="userSpaceOnUse"><stop offset="0.01"/><stop offset="0.12" stop-color="#08061e"/><stop offset="0.23" stop-color="#0f0b38"/><stop offset="0.36" stop-color="#140f4b"/><stop offset="0.5" stop-color="#181259"/><stop offset="0.68" stop-color="#1a1462"/><stop offset="1" stop-color="#1b1464"/></linearGradient><linearGradient id="linear-gradient-31" x1="-505.51" y1="81.65" x2="-500.24" y2="81.65" gradientTransform="translate(681.83 180.4) rotate(10.45)" xlink:href="#linear-gradient-30"/><clipPath id="clip-path-8" transform="translate(-0.01)"><rect class="cls-1" x="35.18" y="110.66" width="20.02" height="18.14" transform="translate(-0.27 0.1) rotate(-0.13)"/></clipPath><clipPath id="clip-path-9" transform="translate(-0.01)"><rect class="cls-1" x="151.98" y="309.44" width="20.02" height="18.14" transform="translate(-0.71 0.36) rotate(-0.13)"/></clipPath><clipPath id="clip-path-10" transform="translate(-0.01)"><rect class="cls-1" x="117.11" y="380.83" width="20.02" height="18.14" transform="translate(-0.87 0.28) rotate(-0.13)"/></clipPath><clipPath id="clip-path-11" transform="translate(-0.01)"><rect class="cls-1" x="294.03" y="340.4" width="20.02" height="18.14" transform="translate(-0.78 0.68) rotate(-0.13)"/></clipPath></defs><title>Asset 5</title><g id="Layer_2" data-name="Layer 2"><g id="Layer_1-2" data-name="Layer 1"><path class="cls-2" d="M68,46.42c-2-.4-2.23-2.19-5.55-6.27-3.79-4.65-6.28-5.79-8.89-8.36-6.3-6.19-11.64-18.92-6.69-26.22,2.72-4,8.26-6,13.13-5.5.63.06,6.82.73,10.34,5.65s2.22,11,3.28,11,1-4.44,3.57-8.28C80.67,3.22,89.5-1.69,96.5,1.91c5.89,3,7.93,10.77,6.76,16.32-1.33,6.27-6.76,9.87-11.75,13.18S86,33.36,81.1,36.77C73.5,42,71.44,47.12,68,46.42Z" transform="translate(-0.01)"/><g class="cls-3"><path class="cls-4" d="M16.14,391C11.75,383.5.86,381.19.05,371.81c0-.26-.39-5,1.74-7.05s6.09-.69,8.43,1.93c2.52,2.84,2.12,6,3.71,6.41,2.61.73,4.28-7.56,8.67-8.32,3-.52,6.85,2.48,7.43,6.09C31.36,379,16.14,391,16.14,391Z" transform="translate(-0.01)"/></g><g class="cls-5"><path class="cls-4" d="M315.5,333c-2.93-5-10.19-6.56-10.73-12.82,0-.17-.26-3.33,1.16-4.7s4.06-.46,5.62,1.29,1.42,4,2.47,4.27c1.74.49,2.86-5,5.79-5.55,2-.34,4.56,1.66,4.95,4.06C325.65,324.94,315.5,333,315.5,333Z" transform="translate(-0.01)"/></g><g class="cls-6"><path class="cls-4" d="M262.88,141.8c-4-6.86-13.89-9-14.63-17.48,0-.24-.35-4.54,1.58-6.41s5.54-.63,7.66,1.76c2.3,2.58,1.93,5.42,3.37,5.82,2.38.67,3.89-6.87,7.89-7.56,2.7-.47,6.22,2.26,6.75,5.53C276.71,130.86,262.88,141.8,262.88,141.8Z" transform="translate(-0.01)"/></g><g class="cls-7"><path class="cls-4" d="M130.58,357.09c-2.93-5-10.19-6.57-10.73-12.83,0-.17-.26-3.33,1.16-4.7s4.06-.46,5.62,1.29,1.42,4,2.47,4.27c1.74.49,2.85-5,5.78-5.55,2-.34,4.57,1.66,5,4.06C140.72,349.06,130.58,357.09,130.58,357.09Z" transform="translate(-0.01)"/></g><g class="cls-8"><path class="cls-4" d="M146.85,291.24c-2.93-5-10.19-6.56-10.73-12.82,0-.17-.26-3.33,1.16-4.7s4.06-.46,5.61,1.28c1.69,1.9,1.42,4,2.48,4.28,1.74.49,2.85-5,5.78-5.55,2-.34,4.57,1.66,5,4.06C157,283.21,146.85,291.24,146.85,291.24Z" transform="translate(-0.01)"/></g><g class="cls-9"><path class="cls-4" d="M111.68,362.72c-2.93-5-10.19-6.56-10.73-12.82,0-.17-.26-3.33,1.16-4.7s4.06-.46,5.62,1.28c1.68,1.9,1.42,4,2.47,4.28,1.74.49,2.86-5,5.79-5.55,2-.34,4.56,1.66,5,4.06C121.83,354.69,111.68,362.72,111.68,362.72Z" transform="translate(-0.01)"/></g><g class="cls-10"><path class="cls-4" d="M289.2,322.69c-2.93-5-10.18-6.57-10.73-12.83,0-.17-.26-3.33,1.16-4.7s4.06-.46,5.62,1.29,1.42,4,2.47,4.27c1.75.49,2.86-5,5.79-5.55,2-.34,4.56,1.66,4.95,4.07C299.35,314.66,289.2,322.69,289.2,322.69Z" transform="translate(-0.01)"/></g><path class="cls-11" d="M262.58,344.76l4.06-.9a41.12,41.12,0,0,0,5.86,1.36c10.41,1.62,17.27-1.4,17.6-.44.41,1.22-9.88,8.72-20.31,8.56a20.91,20.91,0,0,0-7.67.9c-4.6,1.52-4.2,3.43-7.34,4.15-5.36,1.22-15-2.27-15.36-2.14a.62.62,0,0,0-.22.16h0c-.64.8,2.5,3.15,4.42,4.5a25.51,25.51,0,0,0-7.52-1.05c-8.12.11-10.73,4.17-20.34,6.22a49.52,49.52,0,0,1-14.59.68c-2-.14-15.15-1.05-15.91-4.51-.61-2.78,7.3-5.07,6.64-6.56-.91-2-16,1.52-35.37,1.7-12.53.12-26.58-1.18-27-3.82s11.55-4.67,11.06-7.25c-.66-3.43-22.05-1.66-26.08-9.36a4.74,4.74,0,0,1-.48-1.87,4.64,4.64,0,0,0-.4-.9c-1.69-2.85-6.26-3.06-20.26-2.61-5.4.17-12.19.44-12.19.44a42.85,42.85,0,0,0-10.82-2.71c-3.63-.34-2.9.47-9.93.44-3,0-7.35-.17-7.39.24,0,.09.19.16.17.21-.09.33-7.22-1.36-7.22-1.36-9.35-2.21-13.22.82-26.61-.46-.24,0-5.13-.77-14.89-2.27l7.22-.45c8.09-.48,17.59-.18,17.59,0s-24.8.78-24.81.43a22.86,22.86,0,0,1,2.71-.45c30.12,1.86,37.44-3.13,37.44-3.13a31.45,31.45,0,0,1,5.62-2.94c3-1.22,5.69-2.26,8-1.3s2.27,2.86,4,4.7c3.22,3.51,8.87,2.7,16.24,2.26,11.52-.68,7.64.72,21.66,0,6.08-.31,13.91-.93,23-2.25,1.06-4.13,4.39-16.16,8.62-16.14.57,0,1.73.62,4.1,1.71,2.6,1.2,4.44,2.28,6.06,3.14,15.1,8,33.28,8.3,35.81,8.32,12.59.11,22-3,28.74-5.17,1.29-.42,5.51-2.62,11.69-4.81,4.13-1.47,7.21-2.32,8.33-2.63,7.87-2.13,9.54-2.67,10.68-2.5.15,0,.37,0,.46.1,1.3,1.85-29.13,22.71-27,26.61,1.7,3.06,23-5.35,23.46-4,.35.94-10.88,4.86-10.38,8.12.27,1.77,3.75,1.7,11.28,4.52,8.16,3,9,4.95,14,5.87A25.92,25.92,0,0,0,262.58,344.76Z" transform="translate(-0.01)"/><path class="cls-4" d="M105.43,161.86l36.34-1.25h0a111.44,111.44,0,0,0-9.46-18.5c-3.1-4.59-7.51-11.13-15.78-15.35a37.39,37.39,0,0,0-23.46-3.17c-11.22,2.09-24.67,9.92-27.11,21-1.07,4.85,0,10.26-.86,10.38-.66.09-1-4.51-4.4-8.95-1.33-1.72-4.46-5.76-9.73-6.47-5.75-.77-11.85,2.72-13.65,7.1-1.66,4,.34,8.88,0,8.94s-.34-3.14-2.46-4.39-6.34-.3-8.13,2.07c-2.15,2.83-.68,8.3-.68,8.3Z" transform="translate(-0.01)"/><path class="cls-4" d="M152.21,187.44h0c0-.13,2.62-8.83.73-14.89s-8.69-11.27-16.51-12.86c-11.54-2.35-23.47,3.75-26.51,10.8-2,4.74-.12,10.08-.91,10.19s-1-4.43-4.71-8.78c-1.43-1.69-4.78-5.66-10.44-6.36-6.15-.75-12.69,2.67-14.61,7-1.78,4,.35,8.72,0,8.78s-.36-3.09-2.63-4.32-6.79-.28-8.71,2c-2.3,2.77-.73,8.15-.73,8.15Z" transform="translate(-0.01)"/><path class="cls-12" d="M232.94,341l-1,1.58.86-1.4h0l-65.42,0-43.31,0h0V228l108.94.07Z" transform="translate(-0.01)"/><rect class="cls-13" x="124.75" y="116.38" width="108.18" height="111.69"/><rect class="cls-14" x="130.82" y="122.7" width="95.68" height="98.34"/><polyline class="cls-15" points="123.85 241.61 144.23 241.63 144.22 248.77 160.56 248.78 160.55 257.43"/><polyline class="cls-16" points="184.44 228.43 207.05 228.44 207.05 236.93 225.17 236.94 225.16 247.2"/><g class="cls-17"><rect class="cls-18" x="185.24" y="305.42" width="22.47" height="7.89"/><rect class="cls-18" x="162.36" y="305.41" width="22.47" height="7.89"/><rect class="cls-18" x="186.65" y="289.83" width="22.47" height="7.89"/><rect class="cls-18" x="174.61" y="297.72" width="22.47" height="7.89"/><rect class="cls-18" x="197.28" y="297.54" width="22.47" height="7.89"/></g><g class="cls-19"><rect class="cls-18" x="135.65" y="268.24" width="22.47" height="7.89"/><rect class="cls-18" x="123.61" y="276.13" width="22.47" height="7.89"/><rect class="cls-18" x="146.28" y="275.95" width="22.47" height="7.89"/></g><path class="cls-20" d="M179.75,146.32h0c-1.31-2.22-4.55-2.9-4.79-5.66a3,3,0,0,1,.52-2.07c.63-.61,1.81-.21,2.5.56s.63,1.76,1.11,1.89c.77.22,1.27-2.22,2.58-2.45a2.19,2.19,0,0,1,2.21,1.79C184.28,142.77,179.75,146.31,179.75,146.32Z" transform="translate(-0.01)"/><path class="cls-21" d="M187.8,157.37h0c-1-1.62-3.63-2.11-3.82-4.12a2,2,0,0,1,.41-1.51c.51-.45,1.45-.15,2,.41s.51,1.28.88,1.37c.62.16,1-1.62,2.07-1.78a1.73,1.73,0,0,1,1.76,1.31C191.42,154.79,187.8,157.37,187.8,157.37Z" transform="translate(-0.01)"/><path class="cls-22" d="M232.79,148.82c-3.15,3.09-1.73,7.64-.64,15.35,1,7.37.36,14.91,1.07,22.33.52,5.36.64,9.18.57,48.54-.11,61.06-.42,68-1.5,77.38-.52,4.56-3.21,27.06-3.21,27.05s14.85,12.32,19.25,9.38c3.59-2.4-2.31-13.37-4.6-34.16-.25-2.27-.4-9-.68-22.44,0,0-.33-15.38.49-53.24a3,3,0,0,1,0-.42c.4-3.62,5.64-4.3,6.6-7.37.71-2.28-1.81-3.06-1.65-6.31.13-2.7,2-4.54,3.29-6.07,4.69-5.45,6.35-11.32,8.36-18.4.82-2.93.87-4.27,1.64-12.38,1.7-18,2.93-26.73,2.73-26.74s-3,20-2.91,20,1.71-9.08,2.91-20C265,156.94,265.8,149,265.8,149s-.57-1.84-1.3-1.92c-1.18-.14-3.05,4.35-3.05,4.34-.92,23.28-4.74,34.74-4.74,34.74-.29,1.28-3.38,14.56-7.91,14.63-3.83.05-7.73-9.41-8.29-17.52-.41-6,1.39-5.59,2.84-18.41,0,0,.42-3.67,1.28-17.3,0,0,.18-.09.18-.11S236.31,145.37,232.79,148.82Z" transform="translate(-0.01)"/><path class="cls-22" d="M253.26,213.78a27.46,27.46,0,0,1,6.65-13.07c4.07-4.28,7.55-4.69,12.55-8.86a37.33,37.33,0,0,0,9.83-13.14" transform="translate(-0.01)"/><path class="cls-22" d="M257.54,207.39a21.31,21.31,0,0,1,6.53-5.56c2.78-1.39,4.11-.84,7.17-2a24.19,24.19,0,0,0,7.64-4.89" transform="translate(-0.01)"/><path class="cls-22" d="M261.48,178.34a29.41,29.41,0,0,1,3.06-10.86c2-3.57,3.73-3.92,6.17-7.41a32.93,32.93,0,0,0,4.67-10.93" transform="translate(-0.01)"/><path class="cls-22" d="M258.52,199.5a21.54,21.54,0,0,1-5.34-6.77c-1.33-2.86-.76-4.2-1.82-7.35a24.77,24.77,0,0,0-4.66-7.87" transform="translate(-0.01)"/><path class="cls-22" d="M272.39,198.62a20.9,20.9,0,0,1,8.51-.35c3,.62,3.76,1.89,6.88,2.89a23.56,23.56,0,0,0,9,.88" transform="translate(-0.01)"/><path class="cls-22" d="M261.72,174.4a21.45,21.45,0,0,1,7-4.91c2.9-1.12,4.17-.44,7.32-1.27a24.19,24.19,0,0,0,8.06-4.13" transform="translate(-0.01)"/><path class="cls-23" d="M273.27,163.8c-1,1.86,3.08,6.53,7.41,8.6.62.29,5.21,2.43,6.6.78,1.14-1.34-.3-4.71-2.09-6.71C281.52,162.39,274.34,161.81,273.27,163.8Z" transform="translate(-0.01)"/><path class="cls-24" d="M272.4,163.79c.48,3.1,8.6,3.16,14.85.21.89-.42,7.45-3.59,7.54-6.93.08-2.73-4.2-4.53-7.72-4.5C279.87,152.64,271.88,160.47,272.4,163.79Z" transform="translate(-0.01)"/><path class="cls-25" d="M270.22,154.61c1.23,1.71,7.1-.09,10.76-3.23.52-.44,4.35-3.79,3.46-5.76-.72-1.62-4.32-1.71-6.85-.9C272.42,146.39,268.9,152.79,270.22,154.61Z" transform="translate(-0.01)"/><path class="cls-26" d="M269.84,155.42c3,.86,6.42-6.63,6.41-13.64,0-1-.07-8.41-3-9.9-2.4-1.22-5.81,2-7.25,5.24C263.05,143.81,266.67,154.5,269.84,155.42Z" transform="translate(-0.01)"/><path class="cls-27" d="M261.25,156.23c1.86-1,1.1-7.16-1.33-11.36-.34-.6-2.94-5-5-4.46-1.69.46-2.37,4.06-2,6.74C253.67,152.62,259.27,157.24,261.25,156.23Z" transform="translate(-0.01)"/><path class="cls-28" d="M262,156.74c1.32-2.83-5.35-7.57-12.13-8.75-1-.17-8.14-1.34-10.08,1.35-1.58,2.2,1,6.16,3.87,8.16C249.61,161.6,260.55,159.77,262,156.74Z" transform="translate(-0.01)"/><path class="cls-29" d="M289.44,145.46c-.66,2,4.16,5.88,8.79,7.13.66.18,5.54,1.46,6.62-.41.89-1.53-1.11-4.59-3.22-6.23C297.31,142.59,290.15,143.32,289.44,145.46Z" transform="translate(-0.01)"/><path class="cls-30" d="M290.05,149.4c2.49,1.86,8.29-3.92,10.69-10.49.34-.94,2.81-7.9.57-10.34-1.83-2-6.12-.21-8.59,2.33C287.66,136.12,287.4,147.42,290.05,149.4Z" transform="translate(-0.01)"/><path class="cls-31" d="M278.07,133.54c1.17,1.76,7.1.2,10.88-2.78.54-.42,4.5-3.61,3.69-5.62-.66-1.65-4.25-1.88-6.81-1.17C280.6,125.42,276.82,131.66,278.07,133.54Z" transform="translate(-0.01)"/><path class="cls-32" d="M277.66,134.33c2.93,1,6.68-6.36,6.95-13.36,0-1,.26-8.4-2.61-10-2.35-1.32-5.88,1.74-7.45,5C271.34,122.46,274.53,133.28,277.66,134.33Z" transform="translate(-0.01)"/><path class="cls-33" d="M254,154.88c1.1,1.81,7.09.48,11-2.36.55-.4,4.62-3.43,3.89-5.47-.6-1.67-4.18-2.05-6.76-1.44C256.77,146.87,252.77,153,254,154.88Z" transform="translate(-0.01)"/><path class="cls-34" d="M253.51,155.66c2.89,1.09,6.91-6.1,7.44-13.09.07-1,.57-8.38-2.24-10.11-2.3-1.41-5.94,1.52-7.63,4.66C247.63,143.55,250.42,154.49,253.51,155.66Z" transform="translate(-0.01)"/><path class="cls-35" d="M244.59,153.09c2.07-.26,3.4-6.36,2.5-11.15-.13-.68-1.12-5.72-3.24-5.91-1.74-.15-3.58,3-4.11,5.65C238.64,147.1,242.39,153.37,244.59,153.09Z" transform="translate(-0.01)"/><path class="cls-36" d="M245.1,153.82c2.18-2.22-2.54-9-8.54-12.39-.85-.49-7.23-4.06-9.94-2.19-2.21,1.53-1.14,6.12.95,9C231.85,154.16,242.77,156.18,245.1,153.82Z" transform="translate(-0.01)"/><path class="cls-37" d="M249.61,132.05c2,.49,5.36-4.75,6.16-9.56.11-.68.91-5.75-1-6.68-1.57-.76-4.38,1.54-5.79,3.83C246.08,124.31,247.44,131.52,249.61,132.05Z" transform="translate(-0.01)"/><path class="cls-38" d="M249.83,132.91c2.81-1.3.69-9.29-3.76-14.65-.63-.76-5.38-6.37-8.56-5.58-2.61.64-3.17,5.33-2.2,8.78C237.29,128.51,246.83,134.29,249.83,132.91Z" transform="translate(-0.01)"/><path class="cls-39" d="M230.4,135.77c2.08-.17,3.65-6.21,2.95-11-.1-.68-.9-5.76-3-6-1.73-.23-3.69,2.85-4.33,5.47C224.69,129.53,228.19,136,230.4,135.77Z" transform="translate(-0.01)"/><path class="cls-40" d="M230.88,136.52c2.27-2.12-2.17-9.05-8-12.74-.83-.52-7.06-4.35-9.84-2.59-2.28,1.43-1.38,6.07.59,9C217.63,136.31,228.46,138.78,230.88,136.52Z" transform="translate(-0.01)"/><path class="cls-41" d="M238.75,169.84c1.67.32,4.09-4.45,4.5-8.71.05-.6.44-5.09-1.16-5.8-1.31-.58-3.47,1.6-4.49,3.68C235.51,163.26,237,169.5,238.75,169.84Z" transform="translate(-0.01)"/><path class="cls-42" d="M239.11,170.71c2.2-1.29,0-8.3-3.91-12.75-.55-.63-4.67-5.28-7.2-4.42-2.07.71-2.29,4.85-1.34,7.82C228.63,167.43,236.76,172.09,239.11,170.71Z" transform="translate(-0.01)"/><path class="cls-43" d="M232.66,175c1-1.54-1.95-6-5.27-8.2-.48-.31-4-2.6-5.25-1.29-1,1.07-.14,4.15,1.14,6C225.91,175.5,231.64,176.67,232.66,175Z" transform="translate(-0.01)"/><path class="cls-44" d="M233.37,175.13c-.14-2.76-6.68-3.55-12-1.56-.75.28-6.29,2.45-6.63,5.35-.29,2.38,3,4.35,5.86,4.64C226.45,184.16,233.52,178.06,233.37,175.13Z" transform="translate(-0.01)"/><path class="cls-45" d="M222.86,159.38c1.38-1.07.06-6.36-2.36-9.71-.35-.47-2.93-4-4.52-3.23-1.3.61-1.44,3.83-.84,6.1C216.37,157.21,221.39,160.51,222.86,159.38Z" transform="translate(-0.01)"/><path class="cls-46" d="M223.49,159.73c.74-2.63-5.14-5.9-10.71-6.06-.79,0-6.68-.13-7.92,2.45-1,2.11,1.46,5.23,4,6.6C214.15,165.52,222.7,162.54,223.49,159.73Z" transform="translate(-0.01)"/><path class="cls-47" d="M214.76,174.37c1-1.49-1.73-6.07-5-8.42-.46-.33-3.9-2.78-5.19-1.53-1.07,1-.29,4.14.92,6.1C208,174.53,213.68,176,214.76,174.37Z" transform="translate(-0.01)"/><path class="cls-48" d="M215.46,174.49c0-2.76-6.55-3.84-11.88-2.09-.76.25-6.38,2.17-6.83,5-.37,2.36,2.87,4.48,5.69,4.9C208.22,183.21,215.5,177.43,215.46,174.49Z" transform="translate(-0.01)"/><path class="cls-49" d="M284,200.17c-1.49-.17-2.56,4.82-2,9.12.08.61.68,5.14,2.2,5.7,1.24.47,2.62-1.89,3.06-4.06C288.08,206.48,285.53,200.36,284,200.17Z" transform="translate(-0.01)"/><path class="cls-50" d="M283.6,199.45c-1.61,1.48,1.63,8.19,5.85,12.31.6.58,5.09,4.88,7.06,3.8,1.62-.89.94-5.06-.49-7.94C293.08,201.71,285.32,197.86,283.6,199.45Z" transform="translate(-0.01)"/><path class="cls-51" d="M288.05,194.44c-.49,1.62,2.92,5.83,6.21,7.74.47.28,3.95,2.26,4.74.84.65-1.16-.75-4.16-2.24-6C293.72,193.38,288.58,192.72,288.05,194.44Z" transform="translate(-0.01)"/><path class="cls-52" d="M287.43,194.41c.7,2.75,6.44,3,10.51.52.58-.35,4.85-3,4.54-5.94-.26-2.4-3.49-4.09-6-4.14C291.44,184.76,286.69,191.48,287.43,194.41Z" transform="translate(-0.01)"/><path class="cls-53" d="M299.67,209.27c-.95,1.19,1.28,6.37,4,9.51.39.45,3.32,3.73,4.52,2.85,1-.73.43-4-.56-6.19C305.65,210.88,300.69,208,299.67,209.27Z" transform="translate(-0.01)"/><path class="cls-54" d="M299.06,209c-.08,2.7,5.61,5.46,10.4,5.14.68-.05,5.71-.45,6.23-3.15.43-2.2-2.34-5.11-4.81-6.26C305.82,202.35,299.15,206.08,299.06,209Z" transform="translate(-0.01)"/><path class="cls-55" d="M303.45,193.55c-.55,1.58,2.74,5.92,6,8,.46.29,3.9,2.44,4.74,1.07.7-1.12-.61-4.17-2.05-6C309.19,192.79,304,191.86,303.45,193.55Z" transform="translate(-0.01)"/><path class="cls-56" d="M302.83,193.49c.61,2.76,6.38,3.28,10.56,1,.59-.31,5-2.72,4.77-5.65-.18-2.4-3.38-4.23-5.87-4.41C307.18,184.12,302.18,190.54,302.83,193.49Z" transform="translate(-0.01)"/><path class="cls-57" d="M278.31,188.75c-1,1.13,2.42,4.88,6.2,6.88.54.28,4.54,2.36,5.87,1.42,1.09-.76,0-3.26-1.53-4.87C285.78,188.9,279.37,187.54,278.31,188.75Z" transform="translate(-0.01)"/><path class="cls-58" d="M277.53,188.62c.28,2.19,7.55,3.32,13.29,2.15.82-.16,6.87-1.45,7.12-3.71.21-1.86-3.53-3.67-6.69-4.12C284.8,182,277.24,186.29,277.53,188.62Z" transform="translate(-0.01)"/><path class="cls-59" d="M276.05,182.06c1,1.33,6.37.89,9.81-.76.49-.23,4.09-2,3.4-3.47-.57-1.21-3.79-1.75-6.1-1.54C278.45,176.73,275,180.63,276.05,182.06Z" transform="translate(-0.01)"/><path class="cls-60" d="M275.67,182.55c2.61,1,6.09-3.66,6.45-8.45.05-.68.36-5.76-2.19-7.17-2.08-1.16-5.3.57-6.76,2.6C270.18,173.71,272.88,181.5,275.67,182.55Z" transform="translate(-0.01)"/><path class="cls-61" d="M294.68,180.83c.41,1.48,5.88,2.58,10,2.07.58-.08,4.91-.65,4.89-2.15,0-1.23-2.95-2.61-5.31-3.06C299.42,176.77,294.25,179.26,294.68,180.83Z" transform="translate(-0.01)"/><path class="cls-62" d="M294.09,181.17c2.13,1.61,7.63-1.56,10.11-5.73.36-.59,2.92-5,1.05-7-1.54-1.61-5.47-1-7.82.44C292.63,171.77,291.81,179.46,294.09,181.17Z" transform="translate(-0.01)"/><path class="cls-63" d="M284.17,168.71c.95,1.37,6.35,1.1,9.89-.43.51-.22,4.21-1.86,3.6-3.34-.51-1.22-3.72-1.86-6.05-1.72C286.85,163.5,283.15,167.26,284.17,168.71Z" transform="translate(-0.01)"/><path class="cls-64" d="M283.76,169.2c2.58,1.06,6.31-3.45,6.92-8.2.08-.67.66-5.71-1.83-7.2-2-1.22-5.35.4-6.93,2.38C278.7,160.23,281,168.06,283.76,169.2Z" transform="translate(-0.01)"/><path class="cls-65" d="M232.89,187.67c-.6,0,.46,16.23-.3,65.91-.46,30.28-.69,45.42-1.37,50.83A158,158,0,0,0,230,331.12c.2,5.24.62,9.55,1,12.43h0c0-.92,3.34-1.28,3.44-1.3C236.94,341.89,234.71,187.59,232.89,187.67Z" transform="translate(-0.01)"/><path class="cls-66" d="M229.65,339.36c-.11,0,4.89-10.56,1.62-21.63-2.06-7-6.51-11.2-6.68-11.09s6.61,7.32,7.66,17.84A27,27,0,0,1,229.65,339.36Z" transform="translate(-0.01)"/><path class="cls-67" d="M228.86,341c-.1,0,4.54-8.18,1.32-17.19-2-5.67-6.3-9.27-6.46-9.19s6.35,6.18,7.46,14.63A18,18,0,0,1,228.86,341Z" transform="translate(-0.01)"/><path class="cls-68" d="M231.53,339c.1,0,1.56-11.57,10.24-19,5.45-4.68,11.45-5.73,11.53-5.54s-9.46,2.44-16,10.65A27,27,0,0,0,231.53,339Z" transform="translate(-0.01)"/><path class="cls-69" d="M234.81,338.79c.1,0-3.22-8.83,1.35-17.19,2.88-5.27,7.66-8.12,7.8-8s-7.22,5.07-9.62,13.23A18,18,0,0,0,234.81,338.79Z" transform="translate(-0.01)"/><path class="cls-70" d="M234.27,338.73c.1,0,2.51-11.39,11.76-18.07,5.82-4.2,11.88-4.74,12-4.55s-9.62,1.63-16.79,9.26A26.84,26.84,0,0,0,234.27,338.73Z" transform="translate(-0.01)"/><path class="cls-71" d="M228.91,339.09a12.55,12.55,0,0,0-1-12.46,20.07,20.07,0,0,0-7.67-6.24c-.18.09,7.15,4.08,9.39,10.1A9.56,9.56,0,0,1,228.91,339.09Z" transform="translate(-0.01)"/><path class="cls-72" d="M234.44,336.1c.11,0-3.64-11.08.87-21.68,2.84-6.67,7.75-10.32,7.9-10.2s-7.4,6.47-9.64,16.79A27.19,27.19,0,0,0,234.44,336.1Z" transform="translate(-0.01)"/><path class="cls-73" d="M235.12,340c.1,0,1.32-9.31,9.27-14.42,5-3.22,10.54-3.39,10.61-3.23s-8.72.92-14.66,6.91A17.94,17.94,0,0,0,235.12,340Z" transform="translate(-0.01)"/><path class="cls-74" d="M243.73,346.53c-.11,0,4.89-10.56,1.62-21.64-2.06-7-6.51-11.19-6.68-11.08s6.6,7.32,7.65,17.84A27.12,27.12,0,0,1,243.73,346.53Z" transform="translate(-0.01)"/><path class="cls-75" d="M242.94,348.14c-.1,0,4.54-8.19,1.32-17.2-2-5.66-6.31-9.26-6.46-9.18s6.35,6.18,7.45,14.63A18,18,0,0,1,242.94,348.14Z" transform="translate(-0.01)"/><path class="cls-76" d="M245.6,346.12c.11,0,1.57-11.57,10.24-19,5.46-4.68,11.46-5.73,11.54-5.55s-9.46,2.44-16,10.66A27,27,0,0,0,245.6,346.12Z" transform="translate(-0.01)"/><path class="cls-77" d="M248.88,346c.11,0-3.21-8.82,1.36-17.19,2.88-5.26,7.66-8.12,7.8-8s-7.22,5.06-9.62,13.22A18.15,18.15,0,0,0,248.88,346Z" transform="translate(-0.01)"/><path class="cls-78" d="M248.34,345.9c.11.05,2.51-11.4,11.77-18.07,5.82-4.21,11.88-4.74,11.94-4.55s-9.62,1.63-16.78,9.26A27,27,0,0,0,248.34,345.9Z" transform="translate(-0.01)"/><path class="cls-79" d="M243,346.25a12.54,12.54,0,0,0-1-12.46,20,20,0,0,0-7.67-6.23c-.18.08,7.15,4.07,9.39,10.1A9.54,9.54,0,0,1,243,346.25Z" transform="translate(-0.01)"/><path class="cls-80" d="M248.52,343.27c.11,0-3.65-11.08.87-21.68,2.84-6.67,7.75-10.33,7.9-10.2s-7.4,6.47-9.64,16.79A27.19,27.19,0,0,0,248.52,343.27Z" transform="translate(-0.01)"/><path class="cls-81" d="M249.2,347.21c.1,0,1.32-9.31,9.27-14.42,5-3.22,10.54-3.4,10.61-3.24s-8.72.92-14.66,6.92A17.89,17.89,0,0,0,249.2,347.21Z" transform="translate(-0.01)"/><path class="cls-82" d="M123.25,341.89c-.12,0,2.58-11.32-2.94-21.5-3.47-6.41-8.71-9.64-8.85-9.5s8,5.83,11.22,15.91A27.08,27.08,0,0,1,123.25,341.89Z" transform="translate(-0.01)"/><path class="cls-83" d="M122.81,343.62c-.11,0,2.73-8.93-2.3-17.09-3.17-5.14-8.11-7.79-8.24-7.68s7.5,4.76,10.35,12.81A17.93,17.93,0,0,1,122.81,343.62Z" transform="translate(-0.01)"/><path class="cls-84" d="M125,341.11c.11,0-.89-11.64,6.05-20.68,4.36-5.68,10-7.92,10.12-7.76s-8.74,4.3-13.4,13.66A26.84,26.84,0,0,0,125,341.11Z" transform="translate(-0.01)"/><path class="cls-85" d="M128.17,340.28c.1,0-5-8-2.26-17.1,1.72-5.73,5.8-9.49,6-9.42s-6,6.42-6.66,14.89A18.14,18.14,0,0,0,128.17,340.28Z" transform="translate(-0.01)"/><path class="cls-86" d="M127.63,340.34c.11,0,.08-11.66,7.74-20.07,4.82-5.28,10.64-7,10.74-6.86S137,317,131.62,325.87A26.7,26.7,0,0,0,127.63,340.34Z" transform="translate(-0.01)"/><path class="cls-87" d="M122.47,341.77a12.59,12.59,0,0,0-3.6-12,20.11,20.11,0,0,0-8.8-4.55c-.17.12,7.84,2.54,11.3,8A9.62,9.62,0,0,1,122.47,341.77Z" transform="translate(-0.01)"/><path class="cls-88" d="M127.25,337.73c.11,0-5.88-10.11-3.67-21.39,1.38-7.11,5.42-11.68,5.6-11.58s-5.89,7.83-5.93,18.38A27.32,27.32,0,0,0,127.25,337.73Z" transform="translate(-0.01)"/><path class="cls-89" d="M128.74,341.45c.11,0-.65-9.38,6.06-16,4.22-4.16,9.61-5.45,9.71-5.31s-8.34,2.67-12.91,9.73A17.86,17.86,0,0,0,128.74,341.45Z" transform="translate(-0.01)"/><polygon class="cls-90" points="155.2 222.7 228.72 222.74 215.08 216.98 147.53 216.94 155.2 222.7"/><path class="cls-91" d="M214.15,204.74a4.71,4.71,0,0,0,1.36-1.41,6.86,6.86,0,0,0,.51-1.21,8.81,8.81,0,0,0,.58-2.55,11.31,11.31,0,0,1,0-1.93,7,7,0,0,1,.59-1.54,5.57,5.57,0,0,0,.57-2.22,7.43,7.43,0,0,0-.19-1.51,21.64,21.64,0,0,1-.33-4,4.67,4.67,0,0,0-.13-1.61,6.09,6.09,0,0,1-.32,1.39,9.9,9.9,0,0,1-1.11,2.06c-.84,1.22-1.74,2.35-2.52,3.64a11.22,11.22,0,0,0-1.64,4.37,17.69,17.69,0,0,1-.26,2.19c-.46,1.91-2.09,3.21-2.37,5.15a8,8,0,0,0,0,1.19c0,.48-.14,2.31.27,2.17.22-.07.61-.64.81-.84s.54-.5.81-.74c.57-.48,1.14-.92,1.72-1.35A10.17,10.17,0,0,0,214.15,204.74Z" transform="translate(-0.01)"/><path class="cls-92" d="M210.9,205.4a11.66,11.66,0,0,0,2.17-3.81,20.86,20.86,0,0,0,.63-2.22c.17-.75.29-1.52.44-2.3q.11-.58.24-1.17c.1-.39.22-.78.35-1.16.27-.75.58-1.46.88-2.16s.61-1.41.86-2.14a9.13,9.13,0,0,0,.5-2.26,8.21,8.21,0,0,1-.34,2.33c-.22.77-.5,1.5-.78,2.22s-.58,1.44-.82,2.16c-.12.37-.23.72-.32,1.1s-.16.75-.23,1.13c-.15.77-.27,1.55-.46,2.33a17.72,17.72,0,0,1-.71,2.28,12.45,12.45,0,0,1-1.05,2.06A7.72,7.72,0,0,1,210.9,205.4Z" transform="translate(-0.01)"/><path class="cls-93" d="M217.75,198a4.88,4.88,0,0,0-1.66.65c-1.33.92-1.42,2.76-2.4,4-.74.94-1.93,1.5-2.64,2.44a6.77,6.77,0,0,0-.85,1.7c-.23.62-.47,1.24-.71,1.87a43.87,43.87,0,0,0,8.31-2.94,4.78,4.78,0,0,0,1.32-.81,3.7,3.7,0,0,0,.94-2.71,7.44,7.44,0,0,1,.18-2.45c.47-1.31,1.72-1.76,2.7-2.62C221.46,196.87,219.2,197.62,217.75,198Z" transform="translate(-0.01)"/><path class="cls-94" d="M221,197.77c-.49.25-1,.49-1.45.78a6.41,6.41,0,0,0-1.29.95,3.74,3.74,0,0,0-.88,1.25c-.2.47-.34,1-.51,1.47a5.28,5.28,0,0,1-.29.75,5,5,0,0,1-.39.72,6.77,6.77,0,0,1-1.1,1.23,14.9,14.9,0,0,1-2.75,1.82c.44-.33.89-.63,1.32-1a13.78,13.78,0,0,0,1.23-1,6.37,6.37,0,0,0,1-1.21,4.83,4.83,0,0,0,.36-.67,6.39,6.39,0,0,0,.27-.73,13.67,13.67,0,0,1,.55-1.5,3.82,3.82,0,0,1,1-1.31A9.2,9.2,0,0,1,221,197.77Z" transform="translate(-0.01)"/><path class="cls-95" d="M207.19,199.85a6.42,6.42,0,0,0-3.08-2.64c-1.83-.69-4.05-.37-5.68-1.41-.33-.21-.62-.47-1-.66a5.57,5.57,0,0,0-2.61-.45.59.59,0,0,0-.37.07.43.43,0,0,0-.14.21,1.44,1.44,0,0,0,.51,1.45c.4.38.91.65,1.33,1a4.62,4.62,0,0,1,1.39,2.35,17.52,17.52,0,0,1,.43,2.69,3.11,3.11,0,0,0,.25,1.05,3.14,3.14,0,0,0,1.3,1.17,13.2,13.2,0,0,0,2.72,1.19c2,.63,4.32.85,5.9,2.19a5,5,0,0,0,.5.42,1.77,1.77,0,0,0,1.22.3,2.31,2.31,0,0,0-.29-1.54,19.19,19.19,0,0,1-.91-3.88A10.73,10.73,0,0,0,207.19,199.85Z" transform="translate(-0.01)"/><path class="cls-96" d="M207.82,189.81a7.6,7.6,0,0,1,1.72,5c-.06,1.63-.65,3.3-.14,4.86a17,17,0,0,1,.87,2.24c.28,1.87-1.61,3.49-1.69,5.38-.39-.06-.58-.46-.78-.77a9,9,0,0,0-2.46-2,6.67,6.67,0,0,1-2.63-4.61c-.2-2.14.7-4.27.43-6.4-.09-.73-.32-1.45-.46-2.17a8.68,8.68,0,0,1,0-3c.13-.82.38-2.3,1.07-2.86C205,187,206.57,188.26,207.82,189.81Z" transform="translate(-0.01)"/><path class="cls-97" d="M211.18,193.87a9.4,9.4,0,0,0-1.05,1.14,3.53,3.53,0,0,0-.44,1.25,6.89,6.89,0,0,0,0,2.22,4.66,4.66,0,0,1,.12,1.11c-.1,1.44-1.78,2.32-1.75,3.76a4.36,4.36,0,0,0,.31,1.41c.45,1.33.95,2.65,1.5,4a7.68,7.68,0,0,1,.55-1.68c.17-.33.38-.64.53-1a4.47,4.47,0,0,0,0-3.12,2.09,2.09,0,0,1-.15-.95,1.61,1.61,0,0,1,.31-.61,13.07,13.07,0,0,1,1.65-1.59,4.38,4.38,0,0,0,1-1.95,6.17,6.17,0,0,0,.34-1.8,6.53,6.53,0,0,0-.34-1.67,32.61,32.61,0,0,0-1.3-4.14c-.23.46-.09,1.14-.21,1.66A4.38,4.38,0,0,1,211.18,193.87Z" transform="translate(-0.01)"/><path class="cls-98" d="M204,188.19c.45,1.52,1,3,1.38,4.57a12.78,12.78,0,0,1,.28,2.38c0,.79,0,1.58,0,2.37,0,.39,0,.78.06,1.17a11.24,11.24,0,0,0,.13,1.15,8.69,8.69,0,0,0,.27,1.12c.11.37.25.74.39,1.11a38.48,38.48,0,0,0,2,4.33,20.78,20.78,0,0,1-2.44-4.17c-.16-.38-.32-.74-.45-1.13a8.16,8.16,0,0,1-.3-1.18,13,13,0,0,1-.2-2.4c0-.79,0-1.58.05-2.37a11.28,11.28,0,0,0-.17-2.32C204.78,191.27,204.29,189.75,204,188.19Z" transform="translate(-0.01)"/><path class="cls-99" d="M196.61,196.45a12.79,12.79,0,0,1,3.76,2.07,7.25,7.25,0,0,1,1.45,1.58c.4.58.72,1.2,1.05,1.79a10.57,10.57,0,0,0,1.1,1.68,7.67,7.67,0,0,0,1.53,1.35c.57.4,1.17.78,1.74,1.21a7.68,7.68,0,0,1,.79.71,4.6,4.6,0,0,1,.64.83,6.38,6.38,0,0,0-.74-.73c-.28-.22-.56-.42-.85-.61-.59-.38-1.22-.71-1.83-1.09l-.45-.29c-.15-.11-.3-.21-.44-.33a5.61,5.61,0,0,1-.79-.75,10,10,0,0,1-1.18-1.75c-.33-.6-.64-1.21-1-1.77a7.59,7.59,0,0,0-1.3-1.54A17.24,17.24,0,0,0,196.61,196.45Z" transform="translate(-0.01)"/><path class="cls-100" d="M212.4,193.92a11.94,11.94,0,0,1-.55,3.3c-.32,1.08-.73,2.13-1.09,3.18a30,30,0,0,0-.93,3.2,27.69,27.69,0,0,0-.54,3.28,16.21,16.21,0,0,1,.26-3.33,23,23,0,0,1,.86-3.26c.37-1.06.79-2.09,1.16-3.14A16.48,16.48,0,0,0,212.4,193.92Z" transform="translate(-0.01)"/><path class="cls-101" d="M214.3,221l-8.72,0a1,1,0,0,1-1-.94l-1.77-11.32a1,1,0,0,1,1-.95l12.14-.07a1,1,0,0,1,1,.95l-1.64,11.33A1,1,0,0,1,214.3,221Z" transform="translate(-0.01)"/><path class="cls-102" d="M155.91,176.66c-.74,1-.67,1.89-1,5.24-.73,6.88-2.94,8.46-1.73,10.07,2.31,3.08,12.68.4,12.68.4h0l-1.16-7a54.66,54.66,0,0,1,.26-6.41S158.12,173.66,155.91,176.66Z" transform="translate(-0.01)"/><path class="cls-103" d="M133.17,222.65a3.24,3.24,0,0,1-.86-1.47c-1.11-3.72,4.62-8.46,5.58-21,.66-8.69-1.31-16.59.83-17,.66-.12,1.27.55,2.26,1.37,6.9,5.77,17.55,6.49,20.32,6.67a27.09,27.09,0,0,0,9-.4,50.61,50.61,0,0,0,9-3.48,26.55,26.55,0,0,0-.2,19.05h0c1.34,8.19,7.92,10.46,6,14-1.77,3.28-9.18,3.51-24.2,3.87-16.84.4-23.62-1.74-25.94-1.32A2.53,2.53,0,0,1,133.17,222.65Z" transform="translate(-0.01)"/><path class="cls-104" d="M148.13,187.72c-1.46.06-5.57.23-7.5,3.09-1.13,1.67-1.52,4.28-.3,5.74,1,1.26,2.4.53,5.24,1.55,4.46,1.6,4.88,4.26,7.26,4.07,2.71-.22,2.93-3.74,5.82-4.1s3.74,3,6.86,2.9c3.54-.07,4.31-4.37,8.24-4.49,2.53-.08,3.37,1.66,5.24,1s2.91-3,2.81-5.07a4.43,4.43,0,0,0-1.22-3.11c-1.72-1.54-4.67-.62-8.66.22-5.93,1.24-8.91,1.79-11.47,1.58C154.54,190.56,153.79,187.48,148.13,187.72Z" transform="translate(-0.01)"/><path class="cls-105" d="M142.73,185.32c-.95-.34-1.88.07-3.23.67a12.44,12.44,0,0,0-4.85,3.61c-1.2,1.48-1.68,2.73-3,6.55-2.17,6.47-1.93,6.29-3.1,9.63-1.52,4.36-2.21,5.53-2.56,8.43a21.44,21.44,0,0,0,0,5.09c0,.39.09.57.34,2.22,8,2.15,9.35,2.38,10.67,2.54.75.09,2.65.19,6.44.39s4.62.2,5,.2c1.69,0,1.89-.08,5.84-.19,2.39-.07,3.7-.08,5.23.59a6.75,6.75,0,0,0,1.81,1.16,7,7,0,0,0,1,.2l-1-.13a18.9,18.9,0,0,1,4,.71c3,.95,4,2.52,7.56,3.57.62.18,1.49.4,1.88,0s.17-1.25-.13-2.27a8.55,8.55,0,0,0-4.41-5.61c-.46-.26-.84-.41-.83-.42a8,8,0,0,1,2.15,1.21,13.42,13.42,0,0,1,1.34,1.34,4,4,0,0,1,.41.53,7.75,7.75,0,0,1,.67,1.21c.43.94,1.87,2.62,2.42,2.41s.51-2.49-.4-4.42c-1.37-2.89-4.36-4.06-4.31-4.15a7.53,7.53,0,0,1,2.83,2,5.31,5.31,0,0,1,1.48,2.14,3.57,3.57,0,0,0,.54,1.21c.11.15.53.75.8.67s.28-1.12.27-1.34a5.2,5.2,0,0,0-1.34-3.08,8.89,8.89,0,0,0-2.69-2.14,12.07,12.07,0,0,0-4.58-1.34c-4.51-.49-4.78.8-8.34.53-2.75-.21-2.1-1-7.94-2.28-1.74-.39-2.24-.43-5.78-1.21-1.91-.42-2.77-.62-4.17-.94-1.17-.26-2.88-.64-5-1.07a47.28,47.28,0,0,0,3.83-8.75s.41-1.28,2.22-8.36c1.11-3.71,1.51-4.73,1.39-6.3S144.45,185.94,142.73,185.32Z" transform="translate(-0.01)"/><path class="cls-106" d="M141.37,214.49a7.81,7.81,0,0,0-3.23-.27,8,8,0,0,0-3.5,1.33" transform="translate(-0.01)"/><path class="cls-107" d="M167,225.16a7.55,7.55,0,0,1,2.07.61,8.63,8.63,0,0,1,4.24,4.83" transform="translate(-0.01)"/><path class="cls-108" d="M137.2,186.05a11.82,11.82,0,0,0-6.25,4.33c-2.23,3.35,0,5.44-2.28,8.35-2,2.51-5.37,3.09-5.12,3.69s4.11-1,8,.48c2.2.86,2.66,2.08,4.55,2.09s2.32-1,4.16-1.44c4.1-.89,7.4,3.32,8.5,2.42s-2.23-3.82-2.21-8.95c0-3.62,1.63-4.62.61-7s-4.23-4.67-4.23-4.67h0A30.44,30.44,0,0,0,137.2,186.05Z" transform="translate(-0.01)"/><path class="cls-109" d="M175.73,165.14a17.12,17.12,0,0,1-.82,16.34c-1,1.7-3.16,5.29-6.85,5.83-2.42.35-4.5-.76-7.45-2.34a27.22,27.22,0,0,1-6-4.48c-.79-.79-2.81-2.92-2.81-2.92s-3.44-3.09-4.23-5.06c-1.95-4.82,6.28-17.13,16.32-16.33C171.32,156.78,175.29,164.27,175.73,165.14Z" transform="translate(-0.01)"/><path class="cls-110" d="M177.68,219.9c-.2-.29-.43-.65-.7-1.09,0,0-.49-.83-.92-1.72-1.49-3.12-2.38-10.25-2.38-10.25-.53-8.07-.64-10.09-.64-10.38v-.58l0,0s0,0,0,0a9.21,9.21,0,0,1-2.76-6.12,7.72,7.72,0,0,1,1.21-3.9,23.52,23.52,0,0,1,3.13-3.74,5.53,5.53,0,0,0,.84-.9c.67-.93.89-1.84,1.7-2a7.69,7.69,0,0,0,1.62-.62c.31-.19.31-.31.53-.43s1.51-.33,1.85.18c.49.73-1.09,2.33-.86,2.51s1.28-.86,1.41-1a14.48,14.48,0,0,0,2.21-2.52s-1.77,2.74-2.21,2.52c-.14-.06,0-.5,0-.58.33-1.24,1.9-2.17,2.21-1.94.55.39-2.13,4.85-5.84,10.5-.14.2-.87,1.31-.61,1.55s1.7-.44,1.61-1-.89-.56-1-.58a3.29,3.29,0,0,0-.61,1.55,5.93,5.93,0,0,0,.6,2.73h0L186.66,211a15,15,0,0,1,1.63,6.17,9.38,9.38,0,0,1-1.06,4.9c-.45.8-1.74,3.13-3.68,3.26C181.42,225.42,179.65,222.81,177.68,219.9Z" transform="translate(-0.01)"/><path class="cls-111" d="M183.8,176.35a3.69,3.69,0,0,1,.86-1.79c.49-.53,1.32-1,1.58-.8s0,.56-.1,1c-.49,1.58-.75,3.22-1.24,4.79a24.54,24.54,0,0,1-2.16,5.26c-1.56,2.77-2.65,3.14-4.52,5.67a23.9,23.9,0,0,0-3.46,6.79" transform="translate(-0.01)"/><path class="cls-112" d="M179.91,177.69a4.3,4.3,0,0,1,1-2.26c.18-.2,1.06-1.2,1.66-.93s.6,2.27.56,2.94a10.82,10.82,0,0,1-.45,2.33,19,19,0,0,1-1.07,2.85c-1.13,2.46-.24.82-2.51,5.86-1.92,4.29-2.2,4.66-2.76,4.92s-2.12.85-5.29-1.22" transform="translate(-0.01)"/><path class="cls-113" d="M170.53,191.39c.23.37.48.8.5.79s-.22-.36-.41-.78a5.72,5.72,0,0,1-.4-1.55,9.68,9.68,0,0,1-.11-1.71,8.62,8.62,0,0,1,1.93-4.32,15.81,15.81,0,0,1,2.13-2,6.32,6.32,0,0,0,1.08-1l.24-.3a10.57,10.57,0,0,0,1.32-2.87,5.11,5.11,0,0,1,.52-1.25c.17-.29.75-1.24,1.46-1.18a1.55,1.55,0,0,1,1.08.88c.65,1.31-.41,3.15-1,4.12-.17.28-.32.5-.38.6a9.58,9.58,0,0,1-1.16,1.4l-.44.42" transform="translate(-0.01)"/><path class="cls-114" d="M177.54,166.69c.52,0,1.18-2,1-4.08a10,10,0,0,0-2.22-5.06,19.1,19.1,0,0,0-6.6-5.93c-7-3.48-16.09-.34-21.15,3.64-4.11,3.23-6.53,7.64-8.28,10.83-3.06,5.59-1.77,6-4.25,9.61-3.54,5.18-6.63,5-11.9,11.64-3.46,4.35-3.47,6.12-3.44,6.74.27,5.17,7.62,9.35,9.45,8,1.45-1.07-1.44-4.28.42-9,1.4-3.57,4.67-5.71,6.27-6.76s3.7-2.14,4-1.75c.49.59-4.28,3.46-5.65,8.75-.92,3.59,0,7.06.77,7.14s.55-4.4,4.07-7.14c1-.75,2.58-2.52,5.23-3.11,2.46-.54,3.95.24,4.84-.77s-.26-2,.4-4.09,2-1.82,2.42-3.89a10.32,10.32,0,0,0-.17-4,.81.81,0,0,0,0-.11c-.33-1-1.55-.54-2.61-1.64a4.63,4.63,0,0,1-.4-5.53c.66-.91,2-1.75,3-1.43s1.65,2.12,1.81,2-2.38-4.74-.8-7.16c.65-1,1.33-.6,3.43-2,2.57-1.76,2.89-3.24,3.83-3.06,1.25.24,2.29,3.18,1.4,5.12-.74,1.62-2.53,1.9-2.42,2.24.19.58,5.59.45,6.85-2.23.84-1.77-.42-4,.21-4.3.4-.19,1.14.59,1.77,1.26,1.53,1.61,2.1,2.9,2.25,2.84s-.35-2.45-1.82-5a14,14,0,0,0-2.19-3,5.41,5.41,0,0,0,2.19,3,6.46,6.46,0,0,0,1,.58c.91.46,1.45.7,2.08,1a16.93,16.93,0,0,1,2.24,1.23C177.09,163,176.82,166.71,177.54,166.69Z" transform="translate(-0.01)"/><path class="cls-115" d="M159.81,173.32c-.14-.12.3-1.14,1.21-1.75a4.4,4.4,0,0,1,4-.19,9,9,0,0,0-2.62.38C160.78,172.36,160,173.46,159.81,173.32Z" transform="translate(-0.01)"/><path class="cls-116" d="M169.71,170.18c-.12-.15.5-1.07,1.51-1.51a4.36,4.36,0,0,1,4,.51,9,9,0,0,0-2.65-.07C170.83,169.4,169.84,170.34,169.71,170.18Z" transform="translate(-0.01)"/><path class="cls-117" d="M28.16,196.45a20.94,20.94,0,0,1,.75,4.83,21.31,21.31,0,0,1-.42,5l-4.21,1.39" transform="translate(-0.01)"/><ellipse class="cls-118" cx="25.51" cy="206.27" rx="2.98" ry="1.46"/><ellipse class="cls-118" cx="111.2" cy="220.07" rx="3.11" ry="1.77" transform="translate(-45.47 29.66) rotate(-12.64)"/><path class="cls-117" d="M113,221a2.88,2.88,0,0,0,1-1.53c.53-2.22-1.69-5.52-2.2-7.37,0-.14-.08-.33-.22-.81-.29-1.08-.36-1.23-.3-1.28s1.06,1.46,2.67,2.21c1.3.6,2,.17,2.59.87a2.88,2.88,0,0,1,.23,2.27" transform="translate(-0.01)"/><path class="cls-117" d="M73.83,207.19l-.31-5.3h0a5.8,5.8,0,0,0,1.83,0,9.89,9.89,0,0,0,2.61-1h0l.08,7.53" transform="translate(-0.01)"/><ellipse class="cls-117" cx="73.34" cy="207.05" rx="0.49" ry="0.38"/><ellipse class="cls-117" cx="77.5" cy="208.43" rx="0.49" ry="0.38"/><path class="cls-117" d="M142.71,206.83l-.35-5.49h0a6.6,6.6,0,0,0,2,0,11.51,11.51,0,0,0,2.92-1h0l.08,7.79" transform="translate(-0.01)"/><ellipse class="cls-119" cx="142.15" cy="206.68" rx="0.54" ry="0.4"/><ellipse class="cls-117" cx="146.81" cy="208.11" rx="0.54" ry="0.4"/><path class="cls-120" d="M27.5,206.68a51.87,51.87,0,0,0,10.12,3.63c8,2,18.6,2.88,50.41-1.43,26-3.52,32.74-6,47.4-5.08a107.18,107.18,0,0,1,19.94,3.1" transform="translate(-0.01)"/><path class="cls-120" d="M1.16,218.45a52,52,0,0,0,10.13,3.63c8,2,18.59,2.88,50.4-1.43,26-3.52,32.74-6,47.4-5.08a107.46,107.46,0,0,1,19.95,3.1" transform="translate(-0.01)"/><ellipse class="cls-118" cx="174.73" cy="219.82" rx="2.7" ry="1.5" transform="translate(-44 43.72) rotate(-12.68)"/><path class="cls-117" d="M176.3,220.6a2.41,2.41,0,0,0,.87-1.31c.47-1.88-1.43-4.68-1.87-6.24,0-.12-.07-.28-.18-.69-.25-.91-.31-1-.26-1.08s.91,1.23,2.31,1.86c1.12.51,1.78.14,2.24.73a2.39,2.39,0,0,1,.18,1.93" transform="translate(-0.01)"/><g class="cls-121"><path class="cls-4" d="M45.93,128.8c-2.93-5-10.18-6.52-10.74-12.76,0-.17-.26-3.32,1.15-4.69s4-.47,5.6,1.27,1.43,4,2.48,4.25c1.74.49,2.84-5,5.76-5.55,2-.35,4.55,1.64,5,4C56,120.77,45.93,128.8,45.93,128.8Z" transform="translate(-0.01)"/></g><g class="cls-122"><path class="cls-4" d="M162.73,327.58c-2.93-5-10.18-6.52-10.73-12.76,0-.17-.27-3.32,1.14-4.69s4.05-.47,5.61,1.27,1.42,4,2.47,4.25c1.74.49,2.84-5,5.76-5.55,2-.35,4.55,1.64,5,4C172.83,319.55,162.73,327.58,162.73,327.58Z" transform="translate(-0.01)"/></g><g class="cls-123"><path class="cls-4" d="M127.86,399c-2.93-5-10.17-6.52-10.73-12.76,0-.17-.27-3.32,1.14-4.69s4-.47,5.61,1.27,1.42,4,2.48,4.26c1.73.48,2.83-5,5.75-5.55,2-.35,4.55,1.64,4.95,4C138,390.93,127.86,399,127.86,399Z" transform="translate(-0.01)"/></g><g class="cls-124"><path class="cls-4" d="M304.79,358.54c-2.94-5-10.18-6.52-10.74-12.76,0-.17-.27-3.32,1.14-4.69s4.05-.47,5.61,1.27,1.43,4,2.48,4.25c1.74.49,2.83-5,5.75-5.55,2-.35,4.56,1.64,5,4C314.88,350.5,304.79,358.54,304.79,358.54Z" transform="translate(-0.01)"/></g></g></g></svg>