<svg xmlns="http://www.w3.org/2000/svg" xmlns:xlink="http://www.w3.org/1999/xlink" viewBox="0 0 339.21 258.16"><defs><style>.cls-1,.cls-94,.cls-97{fill:none;}.cls-2{clip-path:url(#clip-path);}.cls-3{fill:#9e005d;fill-opacity:0.1;}.cls-4{clip-path:url(#clip-path-2);}.cls-5{fill:url(#radial-gradient);}.cls-6{fill:#070638;}.cls-7{fill:url(#radial-gradient-2);}.cls-8{fill:url(#radial-gradient-3);}.cls-9{fill:url(#radial-gradient-4);}.cls-10{fill:url(#radial-gradient-5);}.cls-11{fill:url(#radial-gradient-6);}.cls-12{fill:url(#radial-gradient-7);}.cls-13{fill:url(#radial-gradient-8);}.cls-14{fill:url(#radial-gradient-9);}.cls-15{fill:url(#radial-gradient-10);}.cls-16{fill:url(#radial-gradient-11);}.cls-17{fill:url(#radial-gradient-12);}.cls-18{fill:url(#radial-gradient-13);}.cls-19{fill:url(#radial-gradient-14);}.cls-20{fill:url(#radial-gradient-15);}.cls-21{fill:url(#radial-gradient-16);}.cls-22{fill:url(#radial-gradient-17);}.cls-23{fill:url(#radial-gradient-18);}.cls-24{fill:url(#radial-gradient-19);}.cls-25{fill:url(#radial-gradient-20);}.cls-26{fill:url(#radial-gradient-21);}.cls-27{fill:url(#radial-gradient-22);}.cls-28{fill:url(#radial-gradient-23);}.cls-29{fill:url(#radial-gradient-24);}.cls-30{fill:url(#radial-gradient-25);}.cls-31{fill:url(#radial-gradient-26);}.cls-32{fill:url(#radial-gradient-27);}.cls-33{fill:url(#radial-gradient-28);}.cls-34{fill:url(#radial-gradient-29);}.cls-35{fill:url(#radial-gradient-30);}.cls-36{fill:url(#radial-gradient-31);}.cls-37{fill:url(#radial-gradient-32);}.cls-38{fill:url(#radial-gradient-33);}.cls-39{fill:url(#radial-gradient-34);}.cls-40{fill:url(#radial-gradient-35);}.cls-41{fill:url(#radial-gradient-36);}.cls-42{fill:url(#radial-gradient-37);}.cls-43{fill:url(#radial-gradient-38);}.cls-44{fill:url(#radial-gradient-39);}.cls-45{fill:url(#radial-gradient-40);}.cls-46{fill:url(#radial-gradient-41);}.cls-47{fill:url(#radial-gradient-42);}.cls-48{fill:url(#radial-gradient-43);}.cls-49{fill:url(#radial-gradient-44);}.cls-50{fill:url(#radial-gradient-45);}.cls-51{fill:url(#radial-gradient-46);}.cls-52{fill:url(#radial-gradient-47);}.cls-53{fill:url(#radial-gradient-48);}.cls-54{fill:url(#radial-gradient-49);}.cls-55{fill:url(#radial-gradient-50);}.cls-56{fill:url(#radial-gradient-51);}.cls-57{fill:url(#radial-gradient-52);}.cls-58{fill:url(#radial-gradient-53);}.cls-59{fill:url(#radial-gradient-54);}.cls-60{fill:url(#radial-gradient-55);}.cls-61{fill:url(#radial-gradient-56);}.cls-62{fill:url(#radial-gradient-57);}.cls-63{fill:url(#radial-gradient-58);}.cls-64{fill:url(#radial-gradient-59);}.cls-65{fill:url(#radial-gradient-60);}.cls-66{fill:url(#radial-gradient-61);}.cls-67{fill:url(#radial-gradient-62);}.cls-68{fill:url(#radial-gradient-63);}.cls-69{fill:url(#radial-gradient-64);}.cls-70{fill:url(#radial-gradient-65);}.cls-71{fill:url(#radial-gradient-66);}.cls-72{fill:url(#radial-gradient-67);}.cls-73{fill:url(#radial-gradient-68);}.cls-74{fill:url(#radial-gradient-69);}.cls-75{fill:url(#radial-gradient-70);}.cls-76{fill:url(#radial-gradient-71);}.cls-77{fill:url(#radial-gradient-72);}.cls-78{fill:url(#radial-gradient-73);}.cls-79{fill:url(#radial-gradient-74);}.cls-80{fill:url(#radial-gradient-75);}.cls-81{fill:url(#radial-gradient-76);}.cls-82{fill:url(#linear-gradient);}.cls-83{fill:url(#linear-gradient-2);}.cls-84{fill:url(#linear-gradient-3);}.cls-85{fill:url(#linear-gradient-4);}.cls-86{opacity:0.78;fill:url(#linear-gradient-5);}.cls-87{fill:url(#linear-gradient-6);}.cls-88{fill:url(#linear-gradient-7);}.cls-89{fill:url(#linear-gradient-8);}.cls-90{fill:url(#linear-gradient-9);}.cls-91{fill:url(#linear-gradient-10);}.cls-92{fill:url(#linear-gradient-11);}.cls-93{opacity:0.25;fill:url(#linear-gradient-12);}.cls-94,.cls-95,.cls-96,.cls-97{stroke:#c06;stroke-miterlimit:10;}.cls-95{fill:#c06;}.cls-97{stroke-width:0.5px;}.cls-98{fill:url(#radial-gradient-77);}.cls-99{fill:url(#radial-gradient-78);}.cls-100{fill:url(#radial-gradient-79);}.cls-101{fill:url(#radial-gradient-80);}.cls-102{fill:url(#radial-gradient-81);}.cls-103{fill:url(#radial-gradient-82);}.cls-104{fill:url(#radial-gradient-83);}.cls-105{fill:url(#radial-gradient-84);}.cls-106{fill:url(#radial-gradient-85);}.cls-107{fill:url(#radial-gradient-86);}.cls-108{fill:url(#radial-gradient-87);}.cls-109{fill:url(#radial-gradient-88);}.cls-110{fill:url(#radial-gradient-89);}.cls-111{fill:url(#radial-gradient-90);}.cls-112{fill:url(#radial-gradient-91);}.cls-113{fill:url(#radial-gradient-92);}.cls-114{fill:url(#radial-gradient-93);}.cls-115{fill:url(#radial-gradient-94);}.cls-116{fill:url(#radial-gradient-95);}.cls-117{fill:url(#radial-gradient-96);}.cls-118{fill:url(#radial-gradient-97);}.cls-119{fill:url(#radial-gradient-98);}.cls-120{fill:url(#radial-gradient-99);}.cls-121{fill:url(#radial-gradient-100);}.cls-122{fill:url(#radial-gradient-101);}.cls-123{fill:url(#radial-gradient-102);}.cls-124{fill:url(#radial-gradient-103);}.cls-125{fill:url(#radial-gradient-104);}.cls-126{fill:url(#radial-gradient-105);}.cls-127{fill:url(#radial-gradient-106);}.cls-128{fill:url(#radial-gradient-107);}.cls-129{fill:url(#radial-gradient-108);}</style><clipPath id="clip-path" transform="translate(0 0)"><rect class="cls-1" x="74.18" width="20.11" height="18.25"/></clipPath><clipPath id="clip-path-2" transform="translate(0 0)"><rect class="cls-1" x="255.47" y="36.58" width="27.42" height="24.88"/></clipPath><radialGradient id="radial-gradient" cx="190.15" cy="216.49" fx="79.03647087945974" r="111.11" gradientTransform="translate(-0.05 50.09) scale(1 0.78)" gradientUnits="userSpaceOnUse"><stop offset="0" stop-color="#9e005d"/><stop offset="0" stop-color="#0d0c44"/></radialGradient><radialGradient id="radial-gradient-2" cx="1321.62" cy="482.92" r="6.36" gradientTransform="matrix(0.93, -0.36, 0.36, 0.93, -1315.83, 97.95)" gradientUnits="userSpaceOnUse"><stop offset="0" stop-color="#9e005d"/><stop offset="0.99" stop-color="#0d0c44"/></radialGradient><radialGradient id="radial-gradient-3" cx="1974.29" cy="2943.2" r="6.36" gradientTransform="matrix(0.68, -1.44, 1.16, 0.55, -4672.9, 1301.54)" xlink:href="#radial-gradient-2"/><radialGradient id="radial-gradient-4" cx="3608.69" cy="4068.36" r="6.36" gradientTransform="matrix(0.07, -1, 1, 0.07, -4215.11, 3384.54)" xlink:href="#radial-gradient-2"/><radialGradient id="radial-gradient-5" cx="1457.14" cy="6188.7" r="6.36" gradientTransform="matrix(-1.02, -1.23, 0.99, -0.82, -4534.56, 6939.46)" xlink:href="#radial-gradient-2"/><radialGradient id="radial-gradient-6" cx="222.71" cy="7981.65" r="6.36" gradientTransform="matrix(-0.97, -0.23, 0.23, -0.97, -1586.99, 7872.89)" xlink:href="#radial-gradient-2"/><radialGradient id="radial-gradient-7" cx="-1768.67" cy="6567.59" r="6.36" gradientTransform="matrix(-1.38, 0.8, -0.65, -1.11, 1860.43, 8785.42)" xlink:href="#radial-gradient-2"/><radialGradient id="radial-gradient-8" cx="2094.85" cy="867.21" r="6.36" gradientTransform="matrix(0.86, -0.52, 0.52, 0.86, -2133.08, 399.23)" xlink:href="#radial-gradient-2"/><radialGradient id="radial-gradient-9" cx="2013.14" cy="5406.48" r="6.36" gradientTransform="matrix(-0.53, -1.51, 1.21, -0.43, -5379.9, 5391.89)" xlink:href="#radial-gradient-2"/><radialGradient id="radial-gradient-10" cx="3615.91" cy="3871.8" r="6.36" gradientTransform="matrix(0.11, -0.99, 0.99, 0.11, -4143.37, 3215.69)" xlink:href="#radial-gradient-2"/><radialGradient id="radial-gradient-11" cx="1545.49" cy="6082.08" r="6.36" gradientTransform="matrix(-0.97, -1.27, 1.02, -0.78, -4606.5, 6754.73)" xlink:href="#radial-gradient-2"/><radialGradient id="radial-gradient-12" cx="3892.11" cy="3886.61" r="6.36" gradientTransform="matrix(0.15, -0.99, 0.99, 0.15, -4335.23, 3343.21)" xlink:href="#radial-gradient-2"/><radialGradient id="radial-gradient-13" cx="1664.04" cy="6238.95" r="6.36" gradientTransform="matrix(-0.92, -1.3, 1.05, -0.74, -4931.38, 6862.25)" xlink:href="#radial-gradient-2"/><radialGradient id="radial-gradient-14" cx="1600.15" cy="7831.12" r="6.36" gradientTransform="matrix(-0.84, -0.55, 0.55, -0.84, -2892.87, 7483.12)" xlink:href="#radial-gradient-2"/><radialGradient id="radial-gradient-15" cx="-1080.3" cy="7223.75" r="6.36" gradientTransform="matrix(-1.57, 0.29, -0.23, -1.26, 46.95, 9503.27)" xlink:href="#radial-gradient-2"/><radialGradient id="radial-gradient-16" cx="2987.24" cy="6955.27" r="6.36" gradientTransform="matrix(-0.59, -0.81, 0.81, -0.59, -3764.96, 6562.28)" xlink:href="#radial-gradient-2"/><radialGradient id="radial-gradient-17" cx="-73.61" cy="7477.35" r="6.36" gradientTransform="matrix(-1.57, -0.28, 0.22, -1.27, -1715.06, 9482.86)" xlink:href="#radial-gradient-2"/><radialGradient id="radial-gradient-18" cx="1761.53" cy="7712.88" r="6.36" gradientTransform="matrix(-0.81, -0.58, 0.58, -0.81, -3004.79, 7337.81)" xlink:href="#radial-gradient-2"/><radialGradient id="radial-gradient-19" cx="-956.1" cy="7244.06" r="6.36" gradientTransform="matrix(-1.58, 0.23, -0.18, -1.27, -149.19, 9475.56)" xlink:href="#radial-gradient-2"/><radialGradient id="radial-gradient-20" cx="2481.43" cy="6516" r="6.36" gradientTransform="matrix(-0.65, -0.82, 0.78, -0.69, -3400.55, 6585.96)" xlink:href="#radial-gradient-2"/><radialGradient id="radial-gradient-21" cx="-112.38" cy="6958.36" r="6.41" gradientTransform="matrix(-1.61, -0.19, 0.14, -1.37, -1137.33, 9565.58)" xlink:href="#radial-gradient-2"/><radialGradient id="radial-gradient-22" cx="-1378.6" cy="7655.87" r="6.36" gradientTransform="matrix(-0.98, 0.28, -0.26, -1.03, 709.54, 8377.53)" xlink:href="#radial-gradient-2"/><radialGradient id="radial-gradient-23" cx="-2352.17" cy="5523.29" r="6.36" gradientTransform="matrix(-0.84, 1.46, -1.12, -0.71, 4225, 7464.23)" xlink:href="#radial-gradient-2"/><radialGradient id="radial-gradient-24" cx="134.83" cy="7831.31" r="6.36" gradientTransform="matrix(-1.01, -0.1, 0.09, -1.07, -576.92, 8419.73)" xlink:href="#radial-gradient-2"/><radialGradient id="radial-gradient-25" cx="-1743.36" cy="6435.81" r="6.36" gradientTransform="matrix(-1.27, 1.06, -0.81, -1.08, 3019.72, 8858.33)" xlink:href="#radial-gradient-2"/><radialGradient id="radial-gradient-26" cx="-1221.88" cy="7658.5" r="6.36" gradientTransform="matrix(-0.99, 0.24, -0.22, -1.04, 523.88, 8363.65)" xlink:href="#radial-gradient-2"/><radialGradient id="radial-gradient-27" cx="-2282.4" cy="5609.05" r="6.36" gradientTransform="matrix(-0.89, 1.43, -1.09, -0.76, 4071.57, 7601.33)" xlink:href="#radial-gradient-2"/><radialGradient id="radial-gradient-28" cx="-1516.07" cy="-118.53" r="6.36" gradientTransform="matrix(0.65, 0.57, -0.34, 0.66, 1033.93, 1054.63)" xlink:href="#radial-gradient-2"/><radialGradient id="radial-gradient-29" cx="950.72" cy="1079.02" r="6.36" gradientTransform="matrix(1.12, -0.07, 0.26, 1.12, -1244.03, -1024.32)" xlink:href="#radial-gradient-2"/><radialGradient id="radial-gradient-30" cx="2962.09" cy="1240.62" r="6.36" gradientTransform="matrix(0.58, -0.36, 0.44, 0.79, -2168.79, 183)" xlink:href="#radial-gradient-2"/><radialGradient id="radial-gradient-31" cx="2388.56" cy="4251.36" r="6.36" gradientTransform="matrix(0.18, -1.29, 0.93, 0.42, -4277, 1399.57)" xlink:href="#radial-gradient-2"/><radialGradient id="radial-gradient-32" cx="1961.87" cy="304.09" r="6.36" gradientTransform="matrix(0.7, -0.06, 0.21, 0.87, -1321.95, -27.92)" xlink:href="#radial-gradient-2"/><radialGradient id="radial-gradient-33" cx="2341.38" cy="3186.99" r="6.36" gradientTransform="matrix(0.57, -1.03, 0.82, 0.75, -3833.17, 115.25)" xlink:href="#radial-gradient-2"/><radialGradient id="radial-gradient-34" cx="2855.23" cy="1072.59" r="6.36" gradientTransform="matrix(0.6, -0.33, 0.42, 0.81, -2041.43, 168.59)" xlink:href="#radial-gradient-2"/><radialGradient id="radial-gradient-35" cx="2412.94" cy="4099.44" r="6.36" gradientTransform="matrix(0.23, -1.27, 0.92, 0.46, -4210.08, 1268.47)" xlink:href="#radial-gradient-2"/><radialGradient id="radial-gradient-36" cx="2047.16" cy="-858.04" r="6.36" gradientTransform="matrix(0.85, -0.12, 0.27, 0.69, -1415.12, 932.82)" xlink:href="#radial-gradient-2"/><radialGradient id="radial-gradient-37" cx="2882.99" cy="2579.57" r="6.36" gradientTransform="matrix(0.68, -0.9, 1.01, 0.54, -4475.92, 1299.92)" xlink:href="#radial-gradient-2"/><radialGradient id="radial-gradient-38" cx="5130.4" cy="4163.29" r="6.36" gradientTransform="matrix(0.11, -0.67, 0.89, 0.18, -4167.34, 2789.57)" xlink:href="#radial-gradient-2"/><radialGradient id="radial-gradient-39" cx="2104.54" cy="7060.42" r="6.36" gradientTransform="matrix(-0.86, -0.98, 0.92, -0.43, -4625.19, 5181.82)" xlink:href="#radial-gradient-2"/><radialGradient id="radial-gradient-40" cx="5014.32" cy="2285.52" r="6.36" gradientTransform="matrix(0.41, -0.57, 0.79, 0.41, -3773.39, 2010.15)" xlink:href="#radial-gradient-2"/><radialGradient id="radial-gradient-41" cx="2864.8" cy="5942.41" r="6.36" gradientTransform="matrix(-0.4, -1.11, 1.1, -0.13, -5306.32, 4006.22)" xlink:href="#radial-gradient-2"/><radialGradient id="radial-gradient-42" cx="5140.21" cy="3904.97" r="6.36" gradientTransform="matrix(0.15, -0.67, 0.88, 0.21, -4095, 2683.65)" xlink:href="#radial-gradient-2"/><radialGradient id="radial-gradient-43" cx="2220.79" cy="6920.48" r="6.36" gradientTransform="matrix(-0.81, -1, 0.95, -0.4, -4680.6, 5045.44)" xlink:href="#radial-gradient-2"/><radialGradient id="radial-gradient-44" cx="-4179.33" cy="4046.82" r="53.66" gradientTransform="matrix(-0.05, 1, 0.71, 0.02, -3051.89, 4278.52)" xlink:href="#radial-gradient-2"/><radialGradient id="radial-gradient-45" cx="-469.08" cy="313.8" r="11.49" gradientTransform="matrix(0.78, 0.16, -0.15, 0.8, 689.3, 33.25)" xlink:href="#radial-gradient-2"/><radialGradient id="radial-gradient-46" cx="-493.07" cy="-622.27" r="11.49" gradientTransform="matrix(0.74, 0.17, -0.14, 0.63, 556.49, 687.83)" xlink:href="#radial-gradient-2"/><radialGradient id="radial-gradient-47" cx="818.24" cy="468.06" r="11.49" gradientTransform="matrix(-0.72, -0.33, -0.32, 0.74, 1031.46, 137.08)" xlink:href="#radial-gradient-2"/><radialGradient id="radial-gradient-48" cx="-545.53" cy="-620.56" r="11.49" gradientTransform="matrix(-0.76, 0.02, 0.01, 0.64, -120.73, 621.35)" xlink:href="#radial-gradient-2"/><radialGradient id="radial-gradient-49" cx="1071.71" cy="554.29" r="11.49" gradientTransform="matrix(-0.69, -0.39, -0.38, 0.71, 1247.06, 239.86)" xlink:href="#radial-gradient-2"/><radialGradient id="radial-gradient-50" cx="-107.67" cy="-2246.93" r="11.49" gradientTransform="matrix(0.76, 0.08, -0.05, 0.46, 251.31, 1261.12)" xlink:href="#radial-gradient-2"/><radialGradient id="radial-gradient-51" cx="-660.52" cy="337.29" r="11.49" gradientTransform="matrix(-0.79, 0.03, 0.03, 0.81, -249.89, -44.69)" xlink:href="#radial-gradient-2"/><radialGradient id="radial-gradient-52" cx="1122.01" cy="-363.78" r="11.49" gradientTransform="matrix(-0.67, -0.36, -0.29, 0.57, 939.68, 825.81)" xlink:href="#radial-gradient-2"/><radialGradient id="radial-gradient-53" cx="-781.53" cy="331.67" r="11.49" gradientTransform="matrix(0.99, 0.11, -0.11, 0.99, 846.41, -12.54)" xlink:href="#radial-gradient-2"/><radialGradient id="radial-gradient-54" cx="-819.38" cy="-591.04" r="11.49" gradientTransform="matrix(0.95, 0.13, -0.11, 0.79, 744.66, 804.01)" xlink:href="#radial-gradient-2"/><radialGradient id="radial-gradient-55" cx="1118.72" cy="555.57" r="11.49" gradientTransform="matrix(-0.94, -0.33, -0.33, 0.94, 1286.46, 79.95)" xlink:href="#radial-gradient-2"/><radialGradient id="radial-gradient-56" cx="-222.28" cy="-682.72" r="11.49" gradientTransform="matrix(-0.95, 0.1, 0.08, 0.79, -112.5, 791.52)" xlink:href="#radial-gradient-2"/><radialGradient id="radial-gradient-57" cx="1363.83" cy="666.59" r="11.49" gradientTransform="matrix(-0.91, -0.41, -0.41, 0.91, 1567.46, 184.05)" xlink:href="#radial-gradient-2"/><radialGradient id="radial-gradient-58" cx="-432.89" cy="-2265.88" r="11.49" gradientTransform="matrix(0.96, 0.02, -0.01, 0.57, 418.37, 1538.43)" xlink:href="#radial-gradient-2"/><radialGradient id="radial-gradient-59" cx="-352.47" cy="282.04" r="11.49" gradientTransform="matrix(-0.99, 0.12, 0.12, 0.99, -340.93, -12.38)" xlink:href="#radial-gradient-2"/><radialGradient id="radial-gradient-60" cx="1430.53" cy="-231.9" r="11.49" gradientTransform="matrix(-0.88, -0.37, -0.31, 0.73, 1239.66, 934.22)" xlink:href="#radial-gradient-2"/><radialGradient id="radial-gradient-61" cx="-769.9" cy="260.33" r="11.49" gradientTransform="matrix(0.98, 0.19, -0.19, 0.98, 849.92, 111.85)" xlink:href="#radial-gradient-2"/><radialGradient id="radial-gradient-62" cx="-808.87" cy="-681.3" r="11.49" gradientTransform="matrix(0.93, 0.21, -0.17, 0.77, 682.56, 917.5)" xlink:href="#radial-gradient-2"/><radialGradient id="radial-gradient-63" cx="1123.4" cy="483.44" r="11.49" gradientTransform="matrix(-0.91, -0.41, -0.41, 0.91, 1281.07, 239.64)" xlink:href="#radial-gradient-2"/><radialGradient id="radial-gradient-64" cx="-250.1" cy="-767.47" r="11.49" gradientTransform="matrix(-0.96, 0.02, 0.02, 0.79, -170.79, 835.68)" xlink:href="#radial-gradient-2"/><radialGradient id="radial-gradient-65" cx="1374.51" cy="595.1" r="11.49" gradientTransform="matrix(-0.88, -0.48, -0.48, 0.88, 1552.74, 366.14)" xlink:href="#radial-gradient-2"/><radialGradient id="radial-gradient-66" cx="-414.06" cy="-2388.46" r="11.49" gradientTransform="matrix(0.96, 0.1, -0.06, 0.57, 298.02, 1623.11)" xlink:href="#radial-gradient-2"/><radialGradient id="radial-gradient-67" cx="-380.36" cy="215.35" r="11.49" gradientTransform="matrix(-1, 0.04, 0.04, 1, -333.54, 15.93)" xlink:href="#radial-gradient-2"/><radialGradient id="radial-gradient-68" cx="1439.73" cy="-322.38" r="11.49" gradientTransform="matrix(-0.85, -0.44, -0.36, 0.7, 1165.42, 1087.33)" xlink:href="#radial-gradient-2"/><radialGradient id="radial-gradient-69" cx="-774.34" cy="274.23" r="11.49" gradientTransform="matrix(0.98, 0.19, -0.19, 0.98, 849.92, 111.85)" xlink:href="#radial-gradient-2"/><radialGradient id="radial-gradient-70" cx="-813.19" cy="-663.65" r="11.49" gradientTransform="matrix(0.93, 0.21, -0.17, 0.77, 682.56, 917.5)" xlink:href="#radial-gradient-2"/><radialGradient id="radial-gradient-71" cx="1124.6" cy="497.98" r="11.49" gradientTransform="matrix(-0.91, -0.41, -0.41, 0.91, 1281.07, 239.64)" xlink:href="#radial-gradient-2"/><radialGradient id="radial-gradient-72" cx="-242.46" cy="-751.54" r="11.49" gradientTransform="matrix(-0.96, 0.02, 0.02, 0.79, -170.79, 835.68)" xlink:href="#radial-gradient-2"/><radialGradient id="radial-gradient-73" cx="1374.5" cy="609.7" r="11.49" gradientTransform="matrix(-0.88, -0.48, -0.48, 0.88, 1552.74, 366.14)" xlink:href="#radial-gradient-2"/><radialGradient id="radial-gradient-74" cx="-419.98" cy="-2364.92" r="11.49" gradientTransform="matrix(0.96, 0.1, -0.06, 0.57, 298.02, 1623.11)" xlink:href="#radial-gradient-2"/><radialGradient id="radial-gradient-75" cx="-372.81" cy="227.84" r="11.49" gradientTransform="matrix(-1, 0.04, 0.04, 1, -333.54, 15.93)" xlink:href="#radial-gradient-2"/><radialGradient id="radial-gradient-76" cx="1440.12" cy="-303.98" r="11.49" gradientTransform="matrix(-0.85, -0.44, -0.36, 0.7, 1165.42, 1087.33)" xlink:href="#radial-gradient-2"/><linearGradient id="linear-gradient" x1="207.01" y1="218.54" x2="226.83" y2="218.54" gradientUnits="userSpaceOnUse"><stop offset="0" stop-color="#662d91"/><stop offset="0.02" stop-color="#632c8f"/><stop offset="0.28" stop-color="#44227c"/><stop offset="0.54" stop-color="#2d1a6f"/><stop offset="0.78" stop-color="#201667"/><stop offset="0.99" stop-color="#1b1464"/></linearGradient><linearGradient id="linear-gradient-2" x1="81.53" y1="145.4" x2="42.28" y2="144.97" gradientUnits="userSpaceOnUse"><stop offset="0" stop-color="#662d91"/><stop offset="0.12" stop-color="#522685"/><stop offset="0.31" stop-color="#3a1e77"/><stop offset="0.52" stop-color="#29196c"/><stop offset="0.73" stop-color="#1e1566"/><stop offset="0.99" stop-color="#1b1464"/></linearGradient><linearGradient id="linear-gradient-3" x1="-58.86" y1="187.98" x2="4.53" y2="138.93" gradientTransform="translate(119.54 14.83) rotate(1.77)" gradientUnits="userSpaceOnUse"><stop offset="0" stop-color="#9e005d"/><stop offset="0.09" stop-color="#ae1563"/><stop offset="0.26" stop-color="#c8366e"/><stop offset="0.44" stop-color="#dc5076"/><stop offset="0.61" stop-color="#eb637b"/><stop offset="0.8" stop-color="#f36e7f"/><stop offset="1" stop-color="#f67280"/></linearGradient><linearGradient id="linear-gradient-4" x1="63.19" y1="191.79" x2="95.05" y2="191.79" xlink:href="#linear-gradient"/><linearGradient id="linear-gradient-5" x1="77.47" y1="210.63" x2="209.66" y2="210.63" gradientUnits="userSpaceOnUse"><stop offset="0" stop-color="#9e005d"/><stop offset="0.33" stop-color="#ca1865"/><stop offset="0.75" stop-color="#fe346e"/></linearGradient><linearGradient id="linear-gradient-6" x1="141.13" y1="225.89" x2="166.52" y2="225.89" xlink:href="#linear-gradient"/><linearGradient id="linear-gradient-7" x1="80.2" y1="234.96" x2="211.87" y2="124.08" xlink:href="#linear-gradient-5"/><linearGradient id="linear-gradient-8" x1="-2.09" y1="115.75" x2="120.1" y2="229.6" gradientUnits="userSpaceOnUse"><stop offset="0.33" stop-color="#9e005d"/><stop offset="0.49" stop-color="#a1015e"/><stop offset="0.61" stop-color="#ab0562"/><stop offset="0.73" stop-color="#bc0b68"/><stop offset="0.84" stop-color="#d31470"/><stop offset="0.93" stop-color="#ed1e79"/></linearGradient><linearGradient id="linear-gradient-9" x1="51.4" y1="139.66" x2="130.57" y2="139.27" gradientUnits="userSpaceOnUse"><stop offset="0.01"/><stop offset="0.12" stop-color="#08061e"/><stop offset="0.23" stop-color="#0f0b38"/><stop offset="0.36" stop-color="#140f4b"/><stop offset="0.5" stop-color="#181259"/><stop offset="0.68" stop-color="#1a1462"/><stop offset="1" stop-color="#1b1464"/></linearGradient><linearGradient id="linear-gradient-10" x1="42.3" y1="129.56" x2="75.53" y2="129.56" gradientTransform="matrix(1, 0, 0, 1, 0, 0)" xlink:href="#linear-gradient-3"/><linearGradient id="linear-gradient-11" x1="-209.21" y1="595.31" x2="-132.16" y2="595.31" gradientTransform="matrix(1.15, 0.07, -0.07, 1.14, 339.53, -500.33)" gradientUnits="userSpaceOnUse"><stop offset="0.12" stop-color="#9e005d"/><stop offset="0.2" stop-color="#ae1563"/><stop offset="0.35" stop-color="#c8366e"/><stop offset="0.5" stop-color="#dc5076"/><stop offset="0.66" stop-color="#eb637b"/><stop offset="0.82" stop-color="#f36e7f"/><stop offset="1" stop-color="#f67280"/></linearGradient><linearGradient id="linear-gradient-12" x1="79.09" y1="191.3" x2="134.06" y2="191.3" xlink:href="#linear-gradient-5"/><radialGradient id="radial-gradient-77" cx="390.24" cy="346.78" r="11.49" gradientTransform="matrix(0.79, -0.06, 0.06, 0.81, -147.18, -67.89)" xlink:href="#radial-gradient-2"/><radialGradient id="radial-gradient-78" cx="406.26" cy="-604.64" r="11.49" gradientTransform="matrix(0.76, -0.04, 0.04, 0.64, -102.85, 599.14)" xlink:href="#radial-gradient-2"/><radialGradient id="radial-gradient-79" cx="-26.57" cy="307.41" r="11.49" gradientTransform="matrix(-0.78, -0.12, -0.12, 0.8, 209.63, -62.44)" xlink:href="#radial-gradient-2"/><radialGradient id="radial-gradient-80" cx="-1416.2" cy="-348.43" r="11.49" gradientTransform="matrix(-0.73, 0.23, 0.18, 0.62, -772.48, 722.25)" xlink:href="#radial-gradient-2"/><radialGradient id="radial-gradient-81" cx="243.27" cy="323.64" r="11.49" gradientTransform="matrix(-0.77, -0.19, -0.18, 0.79, 444.28, -23.04)" xlink:href="#radial-gradient-2"/><radialGradient id="radial-gradient-82" cx="778.96" cy="-2051.55" r="11.49" gradientTransform="matrix(0.75, -0.13, 0.08, 0.46, -245.87, 1235.53)" xlink:href="#radial-gradient-2"/><radialGradient id="radial-gradient-83" cx="-1488.63" cy="569.11" r="11.49" gradientTransform="matrix(-0.75, 0.25, 0.24, 0.77, -1072.1, 116.57)" xlink:href="#radial-gradient-2"/><radialGradient id="radial-gradient-84" cx="249.47" cy="-627.05" r="11.49" gradientTransform="matrix(-0.74, -0.16, -0.13, 0.63, 302.46, 626.14)" xlink:href="#radial-gradient-2"/><radialGradient id="radial-gradient-85" cx="-7.02" cy="202.79" r="11.49" gradientTransform="matrix(1, 0.05, -0.05, 1, 293.34, 10.11)" xlink:href="#radial-gradient-2"/><radialGradient id="radial-gradient-86" cx="-12.48" cy="-775.11" r="11.49" gradientTransform="matrix(0.95, 0.07, -0.06, 0.79, 244.24, 831.52)" xlink:href="#radial-gradient-2"/><radialGradient id="radial-gradient-87" cx="392.87" cy="256.21" r="11.49" gradientTransform="matrix(-0.96, -0.27, -0.27, 0.96, 738.42, 74.09)" xlink:href="#radial-gradient-2"/><radialGradient id="radial-gradient-88" cx="-1042.46" cy="-632.84" r="11.49" gradientTransform="matrix(-0.94, 0.16, 0.13, 0.78, -611.96, 874.19)" xlink:href="#radial-gradient-2"/><radialGradient id="radial-gradient-89" cx="665.52" cy="307.65" r="11.49" gradientTransform="matrix(-0.94, -0.35, -0.35, 0.94, 1025.52, 159.9)" xlink:href="#radial-gradient-2"/><radialGradient id="radial-gradient-90" cx="381.33" cy="-2366.46" r="11.49" gradientTransform="matrix(0.96, -0.04, 0.02, 0.57, -34.22, 1585.41)" xlink:href="#radial-gradient-2"/><radialGradient id="radial-gradient-91" cx="-1135.72" cy="336.71" r="11.49" gradientTransform="matrix(-0.98, 0.18, 0.18, 0.98, -891.53, 86.65)" xlink:href="#radial-gradient-2"/><radialGradient id="radial-gradient-92" cx="690.52" cy="-661.21" r="11.49" gradientTransform="matrix(-0.9, -0.31, -0.26, 0.75, 746.57, 929.61)" xlink:href="#radial-gradient-2"/><radialGradient id="radial-gradient-93" cx="-2.29" cy="202.03" r="11.49" gradientTransform="matrix(1, 0.05, -0.05, 1, 293.34, 10.11)" xlink:href="#radial-gradient-2"/><radialGradient id="radial-gradient-94" cx="-7.55" cy="-776.2" r="11.49" gradientTransform="matrix(0.95, 0.07, -0.06, 0.79, 244.24, 831.52)" xlink:href="#radial-gradient-2"/><radialGradient id="radial-gradient-95" cx="388.43" cy="254.41" r="11.49" gradientTransform="matrix(-0.96, -0.27, -0.27, 0.96, 738.42, 74.09)" xlink:href="#radial-gradient-2"/><radialGradient id="radial-gradient-96" cx="-1047.46" cy="-632.51" r="11.49" gradientTransform="matrix(-0.94, 0.16, 0.13, 0.78, -611.96, 874.19)" xlink:href="#radial-gradient-2"/><radialGradient id="radial-gradient-97" cx="661.25" cy="305.48" r="11.49" gradientTransform="matrix(-0.94, -0.35, -0.35, 0.94, 1025.52, 159.9)" xlink:href="#radial-gradient-2"/><radialGradient id="radial-gradient-98" cx="386.3" cy="-2367.03" r="11.49" gradientTransform="matrix(0.96, -0.04, 0.02, 0.57, -34.22, 1585.41)" xlink:href="#radial-gradient-2"/><radialGradient id="radial-gradient-99" cx="-1140.5" cy="337.07" r="11.49" gradientTransform="matrix(-0.98, 0.18, 0.18, 0.98, -891.53, 86.65)" xlink:href="#radial-gradient-2"/><radialGradient id="radial-gradient-100" cx="686" cy="-663.8" r="11.49" gradientTransform="matrix(-0.9, -0.31, -0.26, 0.75, 746.57, 929.61)" xlink:href="#radial-gradient-2"/><radialGradient id="radial-gradient-101" cx="-6.98" cy="202.83" r="11.49" gradientTransform="matrix(1, 0.05, -0.05, 1, 293.34, 10.11)" xlink:href="#radial-gradient-2"/><radialGradient id="radial-gradient-102" cx="-12.43" cy="-775.06" r="11.49" gradientTransform="matrix(0.95, 0.07, -0.06, 0.79, 244.24, 831.52)" xlink:href="#radial-gradient-2"/><radialGradient id="radial-gradient-103" cx="392.82" cy="256.24" r="11.49" gradientTransform="matrix(-0.96, -0.27, -0.27, 0.96, 738.42, 74.09)" xlink:href="#radial-gradient-2"/><radialGradient id="radial-gradient-104" cx="-1042.49" cy="-632.78" r="11.49" gradientTransform="matrix(-0.94, 0.16, 0.13, 0.78, -611.96, 874.19)" xlink:href="#radial-gradient-2"/><radialGradient id="radial-gradient-105" cx="665.47" cy="307.68" r="11.49" gradientTransform="matrix(-0.94, -0.35, -0.35, 0.94, 1025.52, 159.9)" xlink:href="#radial-gradient-2"/><radialGradient id="radial-gradient-106" cx="381.37" cy="-2366.38" r="11.49" gradientTransform="matrix(0.96, -0.04, 0.02, 0.57, -34.22, 1585.41)" xlink:href="#radial-gradient-2"/><radialGradient id="radial-gradient-107" cx="-1135.76" cy="336.76" r="11.49" gradientTransform="matrix(-0.98, 0.18, 0.18, 0.98, -891.53, 86.65)" xlink:href="#radial-gradient-2"/><radialGradient id="radial-gradient-108" cx="690.47" cy="-661.18" r="11.49" gradientTransform="matrix(-0.9, -0.31, -0.26, 0.75, 746.57, 929.61)" xlink:href="#radial-gradient-2"/></defs><title>Asset 1</title><g id="Layer_2" data-name="Layer 2"><g id="Layer_1-2" data-name="Layer 1"><g class="cls-2"><path class="cls-3" d="M85,18.25C82,13.2,74.75,11.67,74.21,5.39c0-.17-.26-3.34,1.16-4.72S79.43.21,81,2s1.42,4,2.48,4.29c1.74.49,2.86-5.06,5.79-5.57,2-.35,4.58,1.66,5,4.07C95.13,10.19,85,18.25,85,18.25Z" transform="translate(0 0)"/></g><g class="cls-4"><path class="cls-3" d="M270.17,61.46c-4-6.88-13.92-9-14.67-17.53,0-.24-.35-4.56,1.58-6.43s5.55-.64,7.68,1.75c2.3,2.59,1.94,5.44,3.38,5.85,2.38.66,3.9-6.9,7.9-7.6,2.71-.47,6.24,2.26,6.77,5.55C284,50.47,270.17,61.46,270.17,61.46Z" transform="translate(0 0)"/></g><path class="cls-5" d="M40.88,198h0l.24-.16c.37-.24,4.93-9.65,6.35-9.49.5.05.33,1.27,1.21,2.25,1.46,1.62,4.25.87,6.77.7,6.63-.46,18,2.62,18.2,2.52a.87.87,0,0,0,.25-.18h0c.76-.95-3-3.74-5.24-5.33a30.87,30.87,0,0,0,8.91,1.23c9.62-.13,12.71-5,24.09-7.39a58.81,58.81,0,0,1,17.28-.82c2.38.17,17.95,1.23,18.85,5.34.73,3.3-8.64,6-7.85,7.79,1.07,2.41,18.95-1.82,41.9-2,14.84-.15,31.48,1.38,31.94,4.51s-13.68,5.55-13.09,8.61c.78,4.06,26.12,1.95,30.9,11.08a5.73,5.73,0,0,1,.57,2.22,4,4,0,0,0,.48,1.06c.93,1.5,22.51-6.74,33.94-.1,3.41,2,7,5.93,12,5.21.6-.09.62-.16,4-1.05,2.83-.74,7.09-1.81,8.51-2.08,5.51-1.07,6.89,2.25,13.36,2.95,7.35.8,7.81-3.06,15.62-2.78,6.79.25,7.24,3.21,15.44,4.17s13.18-1.37,13.71,0c.68,1.79-10.15,7.14-10.07,7.3a28.84,28.84,0,0,0,3.3-1.74c1.18-.68,2-1.22,2.26-1.39a11.79,11.79,0,0,0,2.43-1.74c-.22-.46-14.17,10.48-28.46,9-2.83-.29-6-1.09-10.94-.53-3.29.38-4.34.81-9.49,1.56-1.6.23-3.41.46-5.6.7-10.51,1.15-11.31,7.9-23.26,13.72-13.94,6.8-28.33,5.16-37.76,4.08a99.56,99.56,0,0,1-20.43-4.92,87.57,87.57,0,0,1-12-5.74c-17.88-9.45-39.43-9.82-42.42-9.85-14.92-.12-26.11,3.55-34,6.15-1.53.51-6.53,3.11-13.85,5.72-4.89,1.74-8.54,2.75-9.87,3.11a82.5,82.5,0,0,1-13.18,2.86c-3.23.32-16,1.14-25-5.85-.74-.56-8.33-6.62-7.64-14.54a7.6,7.6,0,0,1,1.56-5c1.54-2.44,7.45-12.49,2.26-23.23A25.85,25.85,0,0,0,40.88,198Z" transform="translate(0 0)"/><path class="cls-6" d="M43.85,56.61c-3.17,3-1.85,7.38-.91,14.89.9,7.17.08,14.48.65,21.69.42,5.22.46,8.93-.32,47.14-1.22,59.28-1.65,66-2.89,75.11-.59,4.41-3.66,26.21-3.66,26.21s14.45,12.21,18.85,9.43c3.6-2.27-2-13-3.92-33.24-.21-2.21-.23-8.74-.27-21.8,0,0,0-14.94,1.45-51.68,0-.14,0-.25,0-.41.46-3.5,5.66-4.08,6.66-7,.75-2.2-1.73-3-1.52-6.15.18-2.62,2-4.37,3.37-5.83C66.1,119.71,67.85,114,70,107.19c.87-2.83.94-4.13,1.85-12,2-17.4,3.39-25.9,3.19-25.91s-3.35,19.32-3.24,19.33S73.61,79.83,75,69.29c.56-4.24,1.48-12,1.48-12s-.53-1.79-1.25-1.89c-1.17-.15-3.1,4.17-3.1,4.17-1.33,22.58-5.32,33.64-5.32,33.64-.31,1.24-3.6,14.08-8.07,14.07-3.8,0-7.48-9.27-7.88-17.16-.3-5.8,1.47-5.4,3.14-17.82,0,0,.48-3.55,1.57-16.77l.19-.1C55.76,55.35,47.39,53.32,43.85,56.61Z" transform="translate(0 0)"/><ellipse class="cls-1" cx="96.11" cy="98.46" rx="0.42" ry="0.43"/><path class="cls-6" d="M62.9,120a26.61,26.61,0,0,1,6.81-12.58c4.11-4.08,7.56-4.42,12.57-8.38a36.36,36.36,0,0,0,10-12.59" transform="translate(0 0)"/><path class="cls-6" d="M67.25,113.9a21.09,21.09,0,0,1,6.55-5.28c2.78-1.31,4.08-.75,7.13-1.8a24,24,0,0,0,7.64-4.61" transform="translate(0 0)"/><path class="cls-6" d="M71.67,85.77a28.41,28.41,0,0,1,3.22-10.5c2-3.43,3.76-3.74,6.23-7.09A31.86,31.86,0,0,0,86,57.65" transform="translate(0 0)"/><path class="cls-6" d="M68.36,106.25a21,21,0,0,1-5.16-6.66c-1.25-2.8-.67-4.09-1.66-7.16a23.71,23.71,0,0,0-4.46-7.73" transform="translate(0 0)"/><path class="cls-6" d="M79.9,106.94a21,21,0,0,1,8.23-1.79c3.07.07,4,1.16,7.18,1.58a23.83,23.83,0,0,0,8.88-.7" transform="translate(0 0)"/><path class="cls-6" d="M88.42,106.71a21,21,0,0,1,8.41-.19c3,.66,3.69,1.9,6.75,2.93a23.8,23.8,0,0,0,8.86,1" transform="translate(0 0)"/><path class="cls-6" d="M72,81.94a21,21,0,0,1,7-4.64c2.88-1,4.12-.36,7.26-1.12a23.74,23.74,0,0,0,8-3.86" transform="translate(0 0)"/><path class="cls-7" d="M83.59,71.85c-1,1.79,2.93,6.39,7.17,8.48.61.29,5.1,2.44,6.51.87,1.15-1.29-.22-4.58-2-6.55C91.77,70.62,84.69,69.94,83.59,71.85Z" transform="translate(0 0)"/><path class="cls-8" d="M82.73,71.82c.42,3,8.45,3.22,14.67.47.89-.4,7.43-3.36,7.59-6.6.13-2.65-4.08-4.48-7.55-4.5C90.32,61.13,82.28,68.6,82.73,71.82Z" transform="translate(0 0)"/><path class="cls-9" d="M80.74,62.88c1.19,1.68,7,0,10.7-3C92,59.5,95.8,56.32,95,54.39c-.69-1.59-4.25-1.74-6.76-1C83.07,54.93,79.47,61.08,80.74,62.88Z" transform="translate(0 0)"/><path class="cls-10" d="M80.35,63.65c2.92.89,6.47-6.32,6.59-13.13,0-1,.08-8.16-2.79-9.66-2.35-1.23-5.77,1.82-7.26,5C73.85,52.27,77.24,62.71,80.35,63.65Z" transform="translate(0 0)"/><path class="cls-11" d="M71.85,64.29c1.85-.89,1.21-6.93-1.11-11.05-.33-.59-2.82-4.91-4.86-4.41-1.68.41-2.42,3.9-2.11,6.5C64.42,60.66,69.87,65.24,71.85,64.29Z" transform="translate(0 0)"/><path class="cls-12" d="M72.54,64.8c1.37-2.73-5.14-7.44-11.82-8.7-.95-.18-8-1.45-10,1.13-1.6,2.11.83,6,3.68,8C60.24,69.3,71.09,67.72,72.54,64.8Z" transform="translate(0 0)"/><path class="cls-13" d="M99.91,54.33c-.69,1.94,4,5.77,8.55,7.07.65.18,5.46,1.51,6.56-.29.9-1.47-1-4.48-3.07-6.1C107.74,51.67,100.65,52.25,99.91,54.33Z" transform="translate(0 0)"/><path class="cls-14" d="M100.44,58.16c2.43,1.85,8.27-3.67,10.75-10,.36-.9,2.92-7.62.76-10-1.77-2-6-.3-8.53,2.12C98.32,45.22,97.85,56.18,100.44,58.16Z" transform="translate(0 0)"/><path class="cls-15" d="M88.88,42.55c1.13,1.73,7,.32,10.81-2.51.54-.4,4.51-3.42,3.75-5.39-.62-1.61-4.17-1.9-6.71-1.26C91.53,34.71,87.69,40.71,88.88,42.55Z" transform="translate(0 0)"/><path class="cls-16" d="M88.47,43.31c2.88,1,6.71-6.05,7.11-12.85.06-1,.41-8.15-2.4-9.77-2.3-1.32-5.84,1.59-7.45,4.67C82.43,31.68,85.39,42.24,88.47,43.31Z" transform="translate(0 0)"/><path class="cls-17" d="M68.46,60.82c1.06,1.77,7,.58,10.9-2.1.55-.38,4.63-3.26,3.94-5.25-.55-1.63-4.09-2.06-6.65-1.51C71.4,53.08,67.33,58.93,68.46,60.82Z" transform="translate(0 0)"/><path class="cls-18" d="M68,61.56c2.84,1.11,6.94-5.8,7.6-12.58.09-1,.71-8.13-2-9.85-2.25-1.41-5.9,1.37-7.63,4.39C62.42,49.7,65,60.38,68,61.56Z" transform="translate(0 0)"/><path class="cls-19" d="M59.25,58.92c2-.22,3.47-6.12,2.67-10.78-.11-.67-1-5.58-3.1-5.8-1.71-.17-3.59,2.86-4.17,5.42C53.47,53,57.06,59.15,59.25,58.92Z" transform="translate(0 0)"/><path class="cls-20" d="M59.73,59.63c2.2-2.11-2.34-8.74-8.21-12.18-.83-.49-7.07-4.06-9.78-2.29-2.22,1.44-1.24,5.93.77,8.76C46.63,59.73,57.39,61.89,59.73,59.63Z" transform="translate(0 0)"/><path class="cls-21" d="M64.58,38.57c2,.52,5.39-4.51,6.27-9.17.12-.66,1-5.57-.88-6.5-1.55-.77-4.36,1.42-5.8,3.61C61.24,31,62.46,38,64.58,38.57Z" transform="translate(0 0)"/><path class="cls-22" d="M64.79,39.41c2.8-1.21.85-9-3.45-14.28-.61-.75-5.2-6.28-8.36-5.57-2.59.58-3.23,5.12-2.34,8.48C52.48,34.93,61.8,40.71,64.79,39.41Z" transform="translate(0 0)"/><path class="cls-23" d="M45.54,41.85c2.05-.13,3.71-6,3.1-10.66-.08-.67-.77-5.61-2.86-5.91-1.7-.25-3.7,2.71-4.38,5.24C40,35.7,43.34,42,45.54,41.85Z" transform="translate(0 0)"/><path class="cls-24" d="M46,42.59c2.29-2-2-8.83-7.71-12.5-.81-.53-6.9-4.35-9.68-2.69-2.28,1.35-1.48,5.87.42,8.79C32.9,42.16,43.56,44.75,46,42.59Z" transform="translate(0 0)"/><path class="cls-25" d="M52.28,82.11c2.06.42,5.17-5.18,5.77-10.21.08-.71.66-6-1.31-6.88-1.62-.72-4.33,1.81-5.64,4.25C48.41,74.26,50.09,81.67,52.28,82.11Z" transform="translate(0 0)"/><path class="cls-26" d="M52.7,83.15c2.76-1.48.13-9.83-4.56-15.17-.67-.76-5.68-6.35-8.83-5.38-2.59.79-3,5.68-1.83,9.21C39.78,79,49.76,84.73,52.7,83.15Z" transform="translate(0 0)"/><path class="cls-27" d="M44.62,88.12c1.22-1.79-2.29-7.12-6.36-9.8-.58-.38-4.9-3.17-6.48-1.65-1.3,1.25-.26,4.91,1.28,7.19C36.23,88.53,43.32,90,44.62,88.12Z" transform="translate(0 0)"/><path class="cls-28" d="M45.49,88.25c-.12-3.27-8.2-4.35-14.77-2.11-.94.32-7.86,2.77-8.35,6.19C22,95.14,26,97.54,29.53,98,36.72,98.79,45.61,91.72,45.49,88.25Z" transform="translate(0 0)"/><path class="cls-29" d="M32.81,69.39c1.74-1.23.22-7.52-2.71-11.53-.42-.58-3.55-4.77-5.53-3.93-1.62.69-1.87,4.5-1.17,7.2C24.82,66.68,31,70.7,32.81,69.39Z" transform="translate(0 0)"/><path class="cls-30" d="M33.59,69.82c1-3.1-6.25-7.09-13.15-7.41-1,0-8.27-.3-9.87,2.73-1.31,2.48,1.7,6.23,4.85,7.9C21.88,76.47,32.55,73.13,33.59,69.82Z" transform="translate(0 0)"/><path class="cls-31" d="M22.44,87c1.28-1.74-2-7.22-6-10.07-.57-.41-4.78-3.37-6.41-1.92-1.34,1.19-.45,4.89,1,7.23C14,87,21.06,88.8,22.44,87Z" transform="translate(0 0)"/><path class="cls-32" d="M23.3,87.11c0-3.27-8-4.7-14.68-2.73C7.68,84.66.67,86.8,0,90.2-.47,93,3.5,95.56,7,96.12,14.13,97.26,23.29,90.59,23.3,87.11Z" transform="translate(0 0)"/><path class="cls-33" d="M93.77,107.16c-1.48,0-2.11,4.87-1.21,9,.13.59,1.11,4.92,2.65,5.35,1.26.35,2.42-2,2.67-4.19C98.38,112.93,95.35,107.21,93.77,107.16Z" transform="translate(0 0)"/><path class="cls-34" d="M93.37,106.49c-1.46,1.57,2.3,7.8,6.81,11.44.64.52,5.42,4.31,7.28,3.1,1.51-1,.49-5-1.16-7.64C102.9,107.91,94.92,104.81,93.37,106.49Z" transform="translate(0 0)"/><path class="cls-35" d="M97.33,101.29c-.35,1.6,3.36,5.4,6.77,7,.49.22,4.08,1.86,4.74.42.55-1.17-1.09-4-2.71-5.58C102.82,99.8,97.7,99.57,97.33,101.29Z" transform="translate(0 0)"/><path class="cls-36" d="M96.72,101.31c.92,2.6,6.59,2.35,10.39-.35.54-.39,4.52-3.3,4-6.12-.46-2.3-3.79-3.67-6.23-3.52C99.84,91.64,95.74,98.53,96.72,101.31Z" transform="translate(0 0)"/><path class="cls-37" d="M110,114.69c-.84,1.23,1.79,6.06,4.78,8.88.43.4,3.59,3.34,4.7,2.39.9-.78.08-3.87-1.08-5.95C116.07,115.76,110.93,113.38,110,114.69Z" transform="translate(0 0)"/><path class="cls-38" d="M109.41,114.45c.15,2.62,6,4.83,10.68,4.13.66-.1,5.59-.89,5.87-3.54.23-2.17-2.74-4.76-5.27-5.67C115.5,107.5,109.25,111.65,109.41,114.45Z" transform="translate(0 0)"/><path class="cls-39" d="M112.42,99.17c-.41,1.58,3.21,5.52,6.59,7.26.48.25,4,2,4.77.66.58-1.14-1-4-2.54-5.67C118,98,112.86,97.5,112.42,99.17Z" transform="translate(0 0)"/><path class="cls-40" d="M111.8,99.17c.84,2.62,6.57,2.66,10.5.16.55-.35,4.67-3,4.21-5.85-.38-2.3-3.68-3.82-6.15-3.79C115.3,89.75,110.91,96.37,111.8,99.17Z" transform="translate(0 0)"/><path class="cls-41" d="M88.12,96.16c-1,1.08,2.31,4.78,6,6.78.53.29,4.45,2.38,5.78,1.49,1.09-.73,0-3.17-1.42-4.75C95.5,96.43,89.19,95,88.12,96.16Z" transform="translate(0 0)"/><path class="cls-42" d="M87.35,96c.23,2.13,7.4,3.36,13.1,2.32.81-.15,6.81-1.29,7.11-3.49.24-1.79-3.43-3.62-6.54-4.11C94.65,89.73,87.1,93.75,87.35,96Z" transform="translate(0 0)"/><path class="cls-43" d="M86,89.62c1,1.32,6.29,1,9.72-.56.48-.22,4.07-1.88,3.42-3.32-.54-1.17-3.72-1.76-6-1.59C88.47,84.5,85,88.22,86,89.62Z" transform="translate(0 0)"/><path class="cls-44" d="M85.62,90.1c2.57,1,6.09-3.45,6.53-8.1.06-.66.46-5.58-2-7-2-1.16-5.25.46-6.73,2.41C80.36,81.41,82.88,89,85.62,90.1Z" transform="translate(0 0)"/><path class="cls-45" d="M104.45,88.76c.38,1.43,5.75,2.6,9.84,2.17.58-.06,4.87-.54,4.87-2,0-1.19-2.87-2.59-5.19-3.06C109.2,84.89,104.05,87.22,104.45,88.76Z" transform="translate(0 0)"/><path class="cls-46" d="M103.85,89.07c2.08,1.6,7.57-1.38,10.11-5.38.36-.57,3-4.83,1.16-6.77-1.49-1.6-5.39-1-7.74.29C102.58,79.92,101.63,87.37,103.85,89.07Z" transform="translate(0 0)"/><path class="cls-47" d="M94.27,76.81c.92,1.34,6.26,1.17,9.79-.25.5-.2,4.2-1.73,3.62-3.18-.48-1.19-3.64-1.88-6-1.78C97,71.8,93.29,75.38,94.27,76.81Z" transform="translate(0 0)"/><path class="cls-48" d="M93.86,77.27c2.53,1.08,6.3-3.23,7-7.84.09-.65.75-5.53-1.68-7-2-1.22-5.3.29-6.89,2.19C89,68.47,91.17,76.12,93.86,77.27Z" transform="translate(0 0)"/><path class="cls-49" d="M43.24,94.33c-.59,0,.16,15.77-1.49,64-1,29.4-1.51,44.09-2.28,49.33a151.57,151.57,0,0,0-1.72,25.91c.1,5.1.44,9.29.73,12.09h0c0-.89,3.32-1.19,3.42-1.2C44.44,244.13,45.05,94.28,43.24,94.33Z" transform="translate(0 0)"/><path class="cls-50" d="M277.41,222.75c-.09,0,4-8.26,1.58-17-1.52-5.53-4.95-8.92-5.08-8.84s5.07,5.87,5.75,14.18A21.6,21.6,0,0,1,277.41,222.75Z" transform="translate(0 0)"/><path class="cls-51" d="M276.76,224c-.08,0,3.68-6.39,1.28-13.54a16.22,16.22,0,0,0-4.93-7.34c-.16.08,4.89,5,5.64,11.64A14.25,14.25,0,0,1,276.76,224Z" transform="translate(0 0)"/><path class="cls-52" d="M278.88,222.46c.09,0,1.4-9.11,8.31-14.86,4.35-3.61,9.06-4.36,9.12-4.21s-7.45,1.79-12.68,8.18A21.46,21.46,0,0,0,278.88,222.46Z" transform="translate(0 0)"/><path class="cls-53" d="M281.46,222.37c.08,0-2.4-7,1.31-13.54a16.09,16.09,0,0,1,6.23-6.22c.14.11-5.74,3.9-7.74,10.3A14.36,14.36,0,0,0,281.46,222.37Z" transform="translate(0 0)"/><path class="cls-54" d="M281,222.32c.09,0,2.14-8.95,9.49-14.09,4.63-3.23,9.39-3.57,9.44-3.42s-7.57,1.15-13.3,7.07A21.35,21.35,0,0,0,281,222.32Z" transform="translate(0 0)"/><path class="cls-55" d="M276.83,222.52a9.92,9.92,0,0,0-.62-9.84,15.64,15.64,0,0,0-5.92-5c-.15.06,5.55,3.31,7.22,8.09A7.6,7.6,0,0,1,276.83,222.52Z" transform="translate(0 0)"/><path class="cls-56" d="M281.21,220.25c.09,0-2.7-8.79,1-17.09,2.33-5.22,6.23-8,6.35-7.94s-5.9,5-7.81,13.11A21.64,21.64,0,0,0,281.21,220.25Z" transform="translate(0 0)"/><path class="cls-57" d="M281.69,223.36c.08,0,1.17-7.32,7.47-11.24a15.52,15.52,0,0,1,8.38-2.4c.07.16-6.86.6-11.61,5.25A14.17,14.17,0,0,0,281.69,223.36Z" transform="translate(0 0)"/><path class="cls-58" d="M35.54,244.29c-.11,0,4.19-10.54.29-21.07-2.45-6.62-7.1-10.44-7.26-10.33s7,6.69,8.63,16.82A26,26,0,0,1,35.54,244.29Z" transform="translate(0 0)"/><path class="cls-59" d="M34.86,245.9c-.11,0,4-8.22.26-16.75-2.34-5.36-6.78-8.58-6.93-8.5s6.64,5.59,8.24,13.72A17.27,17.27,0,0,1,34.86,245.9Z" transform="translate(0 0)"/><path class="cls-60" d="M37.36,243.78c.11,0,.85-11.31,9-19.07,5.1-4.88,11-6.28,11-6.1s-9.17,2.95-15.11,11.33A26.05,26.05,0,0,0,37.36,243.78Z" transform="translate(0 0)"/><path class="cls-61" d="M40.59,243.41c.11,0-3.7-8.35.31-16.75,2.52-5.28,7.06-8.35,7.21-8.26s-6.83,5.36-8.7,13.43A17.29,17.29,0,0,0,40.59,243.41Z" transform="translate(0 0)"/><path class="cls-62" d="M40.05,243.39c.11,0,1.79-11.2,10.52-18.26C56.06,220.7,62,219.8,62.08,220s-9.39,2.18-16,10A26,26,0,0,0,40.05,243.39Z" transform="translate(0 0)"/><path class="cls-63" d="M34.79,244.07a12,12,0,0,0-1.75-12,19.45,19.45,0,0,0-7.94-5.56c-.18.09,7.3,3.5,9.88,9.19A9.17,9.17,0,0,1,34.79,244.07Z" transform="translate(0 0)"/><path class="cls-64" d="M40.07,240.83c.11,0-4.27-10.51-.45-21.07,2.4-6.64,7-10.49,7.18-10.38s-6.91,6.74-8.5,16.88A26,26,0,0,0,40.07,240.83Z" transform="translate(0 0)"/><path class="cls-65" d="M41,244.6c.1,0,.74-9.1,8.27-14.56,4.74-3.43,10.2-3.95,10.28-3.8s-8.55,1.45-14.05,7.63A17.26,17.26,0,0,0,41,244.6Z" transform="translate(0 0)"/><path class="cls-66" d="M46.15,234.43c-.11,0,5-10.17,2-21-1.9-6.8-6.23-11-6.4-10.88S48.14,209.79,49,220A26,26,0,0,1,46.15,234.43Z" transform="translate(0 0)"/><path class="cls-67" d="M45.34,236c-.1,0,4.64-7.86,1.62-16.67a20.13,20.13,0,0,0-6.22-9c-.2.1,6.16,6.11,7.1,14.34A17.23,17.23,0,0,1,45.34,236Z" transform="translate(0 0)"/><path class="cls-68" d="M48,234.06c.11,0,1.76-11.2,10.47-18.28,5.48-4.45,11.42-5.37,11.5-5.19s-9.39,2.21-16,10.08A26,26,0,0,0,48,234.06Z" transform="translate(0 0)"/><path class="cls-69" d="M51.26,234c.1,0-3-8.63,1.65-16.67,2.94-5.06,7.72-7.75,7.86-7.65s-7.24,4.79-9.76,12.68A17.28,17.28,0,0,0,51.26,234Z" transform="translate(0 0)"/><path class="cls-70" d="M50.72,233.89c.11.05,2.69-11,12-17.34,5.83-4,11.83-4.39,11.89-4.21S65,213.75,57.81,221A26,26,0,0,0,50.72,233.89Z" transform="translate(0 0)"/><path class="cls-71" d="M45.43,234.15A12,12,0,0,0,44.65,222a19.62,19.62,0,0,0-7.47-6.18c-.18.08,7,4.08,9.1,10A9.21,9.21,0,0,1,45.43,234.15Z" transform="translate(0 0)"/><path class="cls-72" d="M51,231.34c.11,0-3.41-10.82,1.25-21,2.93-6.43,7.85-9.89,8-9.77s-7.43,6.16-9.83,16.14A25.91,25.91,0,0,0,51,231.34Z" transform="translate(0 0)"/><path class="cls-73" d="M51.55,235.18c.1,0,1.47-9,9.42-13.84a20.05,20.05,0,0,1,10.55-3c.09.2-8.64.75-14.62,6.46A17.24,17.24,0,0,0,51.55,235.18Z" transform="translate(0 0)"/><path class="cls-74" d="M39.11,247.22c-.11,0,5-10.17,2-21-1.9-6.8-6.23-11-6.4-10.88s6.4,7.23,7.25,17.46A26,26,0,0,1,39.11,247.22Z" transform="translate(0 0)"/><path class="cls-75" d="M38.3,248.77c-.1,0,4.64-7.87,1.62-16.67-1.9-5.54-6.07-9.11-6.22-9s6.16,6.1,7.1,14.33A17.28,17.28,0,0,1,38.3,248.77Z" transform="translate(0 0)"/><path class="cls-76" d="M41,246.86c.11,0,1.76-11.21,10.47-18.29,5.48-4.45,11.42-5.36,11.5-5.18s-9.39,2.2-16,10.07A26.05,26.05,0,0,0,41,246.86Z" transform="translate(0 0)"/><path class="cls-77" d="M44.22,246.75c.1,0-3-8.62,1.65-16.67,2.94-5.06,7.72-7.75,7.86-7.65s-7.24,4.8-9.76,12.68A17.28,17.28,0,0,0,44.22,246.75Z" transform="translate(0 0)"/><path class="cls-78" d="M43.68,246.69c.11,0,2.69-11,12-17.35,5.83-4,11.83-4.39,11.89-4.21s-9.54,1.42-16.76,8.71A25.91,25.91,0,0,0,43.68,246.69Z" transform="translate(0 0)"/><path class="cls-79" d="M38.39,246.94a12,12,0,0,0-.78-12.12,19.62,19.62,0,0,0-7.47-6.18c-.18.08,7,4.08,9.1,10A9.2,9.2,0,0,1,38.39,246.94Z" transform="translate(0 0)"/><path class="cls-80" d="M43.91,244.14c.11,0-3.41-10.82,1.25-21,2.93-6.43,7.84-9.89,8-9.77s-7.43,6.16-9.83,16.14A26,26,0,0,0,43.91,244.14Z" transform="translate(0 0)"/><path class="cls-81" d="M44.51,248c.1,0,1.47-9,9.42-13.84a20.05,20.05,0,0,1,10.55-3c.09.2-8.64.75-14.62,6.47A17.23,17.23,0,0,0,44.51,248Z" transform="translate(0 0)"/><path class="cls-82" d="M208.68,218.6c1.26-1.55,2.59-.73,7-2.3a14.88,14.88,0,0,0,4.81-2.34c3-2.44,3.24-5.37,4.33-5.25s2.42,3.79,1.81,7.12c-.36,2-1.53,3.53-3.85,6.53-3.07,4-4.64,5.94-6.66,6-.63,0-1.93-.61-4.53-1.88a30.28,30.28,0,0,1-4.5-2.76h0C206.69,225.46,207.57,220,208.68,218.6Z" transform="translate(0 0)"/><path class="cls-83" d="M71.53,129.41c1.54.72,2.84,2.43,5.36,5.81,4.42,5.9,4.36,7.47,4.16,8.31a32,32,0,0,1-1.11,3.15,17.46,17.46,0,0,0-4.84,3.75,12.11,12.11,0,0,0-2.48,5.76c-.34,1.6-.66,3.23.23,4.21a4.57,4.57,0,0,0,1.58,1s0,0,0-.06c-.32-.51-14.37,2-15.36-1-.39-1.14.45-1.58,1.59-5.56,1-3.67,1.75-6.15.85-8.39-1.1-2.77-3.44-2.2-4.46-4.58-1.63-3.8,1.87-11,7.52-12.86A9.87,9.87,0,0,1,71.53,129.41Z" transform="translate(0 0)"/><path class="cls-84" d="M84.54,218.43,81.81,222l-4-5.89c-6.69-9.86-7.1-10.57-8.53-12.33-4.83-6-5.5-4.53-9.65-9.74-1.88-2.36-6.53-8.33-7.87-16.5-.31-1.86-1.12-7.18,1.15-11.9.13-.27.26-.51.42-.82,1.66-3.14,5.21-8,6.06-7.55a.27.27,0,0,1,.14.15,13.63,13.63,0,0,0,4,3.85C67,163.28,70,159,75,160.49c1.47.44,2.88,1.69,5.71,4.19a22.32,22.32,0,0,1,5.63,6.48c.9,1.71.45,1.56,2,5.8a48.62,48.62,0,0,0,3.38,7.56c2,3.45,2.69,3.3,3.45,5,1.23,2.71-1.58,8.39-5.26,17.62C88.19,211.46,86.81,215.43,84.54,218.43Z" transform="translate(0 0)"/><path class="cls-85" d="M63.2,185.91c-.12,2.62,2.75,3.28,9.57,9.9,6.34,6.17,6.61,8.28,9.49,8.73,6.33,1,14-8,12.62-11.08-.94-2-5,.55-10-2.06-6.51-3.38-5.62-10.75-10.68-12.2C69.67,177.89,63.36,182.23,63.2,185.91Z" transform="translate(0 0)"/><path class="cls-86" d="M93.48,193.84l2.48.28c7.07.83,16.78,2.07,28,3.81,7.78,1.2,16.8,2.6,28.84,5,6.14,1.24,17.05,3.47,31.05,7.24,11.08,3,25.2,7.23,25.24,7.24.18,2.83.37,5.67.55,8.5h0c-16.34,2.85-28.56,1.05-36.88-1.26-5.68-1.57-9-3-16.36-4.41-4.38-.83-8.37-1.12-26.61.32-12.86,1-23.06,2.12-36.88.94-8.66-.73-12.57-1.84-14.42-5.35-3.46-6.58,2.79-16.94,3.61-18.26" transform="translate(0 0)"/><path class="cls-87" d="M151.79,221.21c4.31,1.59,4.73,3.83,8.88,4.87,3.33.84,5.61-.15,5.83.58.28.92-3.19,3.18-6.66,4.29a17.52,17.52,0,0,1-3.76.78c-2.87.26-3.71-.49-7.07-.78-4.23-.35-4.91.63-6.1-.28-2.21-1.69-2.53-7.13,0-9.46S149.88,220.51,151.79,221.21Z" transform="translate(0 0)"/><path class="cls-88" d="M78.51,217.72c-1.81-3.43-1.22-7-.83-9.46.52-3.21,1.76-6.33,9.71-16.91,4.69-6.24,4.42-5.36,8-10.32,3.94-5.37,5.23-7.71,10-14,4.48-6,6.39-7.94,9.43-9.18a12.65,12.65,0,0,1,7.77-.86c3.13.81,5.81,3.26,10.27,12,1.3,2.56,5,10.15,11.66,30.67a83.19,83.19,0,0,0,2.78,8c3.38,7.9,6.2,9.68,5.55,12.9-.75,3.67-5.59,7-9.44,6.3-3.52-.61-5.33-4.39-9.71-15.19-7.46-18.37-13.6-35.54-13.6-35.54h0s-3.33,11.66-7.5,23.79c-2.92,8.51-4.74,12.86-8.32,17.48-2,2.62-3.49,4.46-6.11,5.74C91.71,226.33,81.9,224.14,78.51,217.72Z" transform="translate(0 0)"/><path class="cls-89" d="M70.75,192.51a3.88,3.88,0,0,1-5.49.12,33.77,33.77,0,0,1-3.65-4c-2-2.58-4.6-6-4.5-10.67,0-.77.12-5.61,3.62-8.27,3.33-2.54,7.7-1.54,10.25.13,1.92,1.25,2.14,2.52,4.82,6.2a53.27,53.27,0,0,0,5.43,6.36l-3.53,2.93Z" transform="translate(0 0)"/><path class="cls-90" d="M81.61,142.52c-.34-.33-1.78,2-4.36,2.19-2.82.17-6-2.48-7.66-4.85A26.52,26.52,0,0,0,68,137.5a5.57,5.57,0,0,0-1.72-3.81S64.71,129.35,66,128s3.71,1.3,6.29,0c1.95-1,3.15-3.76,2.46-4.81-.37-.57-1.28-.57-1.64-.57-3.9,0-17.07,15.72-21.62,21.23l1.1,4.53L55.84,151a15.57,15.57,0,0,0-.48,2.24c-.14,1.05-.2,2.6.48,3.14,1,.75,3.49-.69,4.93-2.27,2.49-2.73,2.27-6.5,2.13-7.83a6.8,6.8,0,0,1-3.14-2.09,6.93,6.93,0,0,1-1.57-4.2c1.3-1.91,2.11-2.19,2.62-2.09.89.17,1.07,1.56,2.42,2.06A3.07,3.07,0,0,0,65,140l.24.25c4.89,5.09,5.84,8,9.7,8.92a3.11,3.11,0,0,0,1.11,0C79.7,148.77,82.11,143,81.61,142.52Z" transform="translate(0 0)"/><path class="cls-91" d="M48.64,146.21c-1.22-.44-2.37-2-3.26-3.24a16.36,16.36,0,0,1-2.22-4.45,13.74,13.74,0,0,1-.86-4.82c.17-5.08,4.1-8.41,4.74-8.93a12.47,12.47,0,0,1,6-2.69,14.26,14.26,0,0,1,8.73,1.72c2.52,1.44,3.44,3,4.61,2.57s1.87-2.62,2.13-3.87c0-.21.06-.37.09-.58a24.85,24.85,0,0,0,0-4.6h0s1.57-4.34,3.33-4.53c1.4-.14,3.4,2.26,3.63,4.65.35,3.7-3.71,6-9.06,10.93C55.81,138.26,52.28,147.5,48.64,146.21Z" transform="translate(0 0)"/><path class="cls-92" d="M57.52,157.79a2.86,2.86,0,0,0-.9,2.37c.36,2.79,6.12,4,8.92,4.6,6.39,1.36,8.2-.5,12.59.8a17.33,17.33,0,0,1,8.34,5.85,15.17,15.17,0,0,0-3.84-5.85c-.71-.61-1.83-1.49-2.84-2.31s-1.31-1.07-1.65-1.29l-.27-.17A19.77,19.77,0,0,0,75,160.4c-1.63-.57-4,0-5.34.18C63.63,161.36,59.69,155.82,57.52,157.79Z" transform="translate(0 0)"/><path class="cls-93" d="M79.14,210.2C78.47,216,85,222.13,87,221.2c1.63-.76-1.42-5.7-.52-13.1,1.18-9.75,7.56-10,15.19-24.11,5.23-9.66,5.64-15.82,12-18.87a10.88,10.88,0,0,1,7.34-1.05c3.34.85,5.16,3.46,7.85,7.34,1.72,2.47,3.55,5.1,4.19,8.91a17.18,17.18,0,0,1-.52,7.86,24.32,24.32,0,0,0,1-13.1c-.56-2.79-1.68-8.32-6.8-11.54-3.69-2.31-9-3.14-13.1-1-4.72,2.41-3.48,6.43-8.9,15.21,0,0-1.39,2.25-14.66,16.77a91.51,91.51,0,0,0-7.86,10C80.29,207.4,79.29,208.88,79.14,210.2Z" transform="translate(0 0)"/><path class="cls-94" d="M126.29,125.65a21.43,21.43,0,0,1,.33,9.88l-4.22,1.39" transform="translate(0 0)"/><ellipse class="cls-95" cx="123.64" cy="135.51" rx="2.98" ry="1.47"/><ellipse class="cls-95" cx="209.52" cy="149.3" rx="3.12" ry="1.77" transform="translate(-27.69 49.7) rotate(-12.7)"/><path class="cls-94" d="M211.34,150.24a2.81,2.81,0,0,0,1-1.54c.53-2.23-1.69-5.54-2.2-7.39,0-.13-.09-.32-.22-.81-.3-1.08-.37-1.23-.31-1.28s1.06,1.46,2.69,2.21c1.29.61,2,.17,2.59.88a2.88,2.88,0,0,1,.23,2.27" transform="translate(0 0)"/><path class="cls-94" d="M172.06,136.4l-.31-5.32h0a5.52,5.52,0,0,0,1.83,0,9.51,9.51,0,0,0,2.62-1h0l.08,7.56" transform="translate(0 0)"/><ellipse class="cls-94" cx="171.57" cy="136.26" rx="0.49" ry="0.39"/><ellipse class="cls-94" cx="175.75" cy="137.64" rx="0.49" ry="0.39"/><path class="cls-94" d="M241.09,136l-.35-5.51h0a6.6,6.6,0,0,0,2,0,11.93,11.93,0,0,0,2.93-1h0l.08,7.82" transform="translate(0 0)"/><ellipse class="cls-96" cx="240.55" cy="135.85" rx="0.55" ry="0.4"/><ellipse class="cls-94" cx="245.21" cy="137.28" rx="0.55" ry="0.4"/><path class="cls-97" d="M125.63,135.91a51.15,51.15,0,0,0,10.14,3.64c8,2,18.64,2.88,50.52-1.46,26.05-3.55,32.81-6,47.5-5.13a108,108,0,0,1,20,3.1" transform="translate(0 0)"/><path class="cls-97" d="M99.24,147.74a51.16,51.16,0,0,0,10.15,3.63c8,2,18.63,2.88,50.51-1.46,26-3.55,32.81-6,47.5-5.12a108.16,108.16,0,0,1,20,3.09" transform="translate(0 0)"/><ellipse class="cls-95" cx="273.19" cy="149" rx="2.71" ry="1.5" transform="matrix(0.98, -0.22, 0.22, 0.98, -26.13, 63.9)"/><path class="cls-94" d="M274.77,149.79a2.47,2.47,0,0,0,.87-1.31c.47-1.89-1.44-4.69-1.88-6.26,0-.12-.07-.28-.19-.69-.25-.92-.31-1.05-.26-1.09s.92,1.24,2.32,1.87c1.12.5,1.78.13,2.25.73a2.39,2.39,0,0,1,.18,1.93" transform="translate(0 0)"/><path class="cls-98" d="M187.76,200.29c-.09,0,1.67-9.06-3-16.85-2.91-4.9-7.12-7.22-7.22-7.11s6.43,4.25,9.27,12.07A21.61,21.61,0,0,1,187.76,200.29Z" transform="translate(0 0)"/><path class="cls-99" d="M187.47,201.68c-.08,0,1.86-7.17-2.33-13.4a16,16,0,0,0-6.68-5.7c-.13.12,6,3.43,8.49,9.66A14.26,14.26,0,0,1,187.47,201.68Z" transform="translate(0 0)"/><path class="cls-100" d="M189.1,199.6c.09,0-1-9.15,4.09-16.6,3.24-4.68,7.59-6.7,7.68-6.58s-6.7,3.79-10.05,11.39A21.54,21.54,0,0,0,189.1,199.6Z" transform="translate(0 0)"/><path class="cls-101" d="M191.56,198.8c.08,0-4.15-6.08-2.3-13.4a16.34,16.34,0,0,1,4.37-7.7c.16.06-4.5,5.33-4.74,12.05A14.19,14.19,0,0,0,191.56,198.8Z" transform="translate(0 0)"/><path class="cls-102" d="M191.14,198.87c.09,0-.3-9.21,5.43-16.19,3.6-4.39,8.1-6,8.19-5.9s-7,3.2-10.95,10.49A21.47,21.47,0,0,0,191.14,198.87Z" transform="translate(0 0)"/><path class="cls-103" d="M187.14,200.23a9.87,9.87,0,0,0-3.18-9.31,15.47,15.47,0,0,0-7-3.2c-.12.1,6.22,1.66,9.09,5.8A7.59,7.59,0,0,1,187.14,200.23Z" transform="translate(0 0)"/><path class="cls-104" d="M190.76,196.83c.09,0-4.91-7.72-3.54-16.73.87-5.67,3.89-9.46,4-9.4s-4.37,6.45-4.07,14.78A21.5,21.5,0,0,0,190.76,196.83Z" transform="translate(0 0)"/><path class="cls-105" d="M192,199.7c.09,0-.8-7.38,4.24-12.9a15.72,15.72,0,0,1,7.44-4.62c.11.13-6.45,2.47-9.8,8.26A14.37,14.37,0,0,0,192,199.7Z" transform="translate(0 0)"/><path class="cls-106" d="M280.33,227.86c-.11,0,3.5-10.79-1.06-21.05-2.87-6.45-7.76-10-7.9-9.84s7.37,6.22,9.68,16.23A25.92,25.92,0,0,1,280.33,227.86Z" transform="translate(0 0)"/><path class="cls-107" d="M279.76,229.5c-.11,0,3.44-8.45-.82-16.72-2.68-5.21-7.31-8.13-7.46-8s7,5.15,9.11,13.16A17.28,17.28,0,0,1,279.76,229.5Z" transform="translate(0 0)"/><path class="cls-108" d="M282.12,227.23c.11,0,.12-11.34,7.71-19.61,4.78-5.2,10.53-7,10.63-6.8s-9,3.54-14.35,12.28A25.93,25.93,0,0,0,282.12,227.23Z" transform="translate(0 0)"/><path class="cls-109" d="M285.32,226.65c.1,0-4.24-8.09-.78-16.73,2.18-5.43,6.52-8.79,6.67-8.71s-6.46,5.79-7.82,14A17.22,17.22,0,0,0,285.32,226.65Z" transform="translate(0 0)"/><path class="cls-110" d="M284.78,226.67c.11,0,1.07-11.3,9.32-18.9,5.2-4.78,11.07-6.06,11.16-5.88s-9.23,2.78-15.33,11A26,26,0,0,0,284.78,226.67Z" transform="translate(0 0)"/><path class="cls-111" d="M279.57,227.68a12,12,0,0,0-2.52-11.87,19.66,19.66,0,0,0-8.28-5c-.17.11,7.51,3,10.45,8.54A9.16,9.16,0,0,1,279.57,227.68Z" transform="translate(0 0)"/><path class="cls-112" d="M284.63,224.11c.11,0-4.93-10.21-1.8-21,2-6.79,6.33-10.93,6.5-10.82s-6.46,7.16-7.4,17.38A26,26,0,0,0,284.63,224.11Z" transform="translate(0 0)"/><path class="cls-113" d="M285.78,227.82c.1,0,.15-9.13,7.32-15.06,4.51-3.73,9.92-4.6,10-4.45s-8.44,2-13.53,8.51A17.28,17.28,0,0,0,285.78,227.82Z" transform="translate(0 0)"/><path class="cls-114" d="M285.09,227.33c-.11,0,3.5-10.79-1.06-21.05-2.87-6.45-7.76-10-7.9-9.83s7.37,6.22,9.69,16.22A26,26,0,0,1,285.09,227.33Z" transform="translate(0 0)"/><path class="cls-115" d="M284.52,229c-.11,0,3.44-8.46-.82-16.73-2.68-5.2-7.31-8.13-7.46-8s7,5.16,9.11,13.16A17.33,17.33,0,0,1,284.52,229Z" transform="translate(0 0)"/><path class="cls-116" d="M286.88,226.7c.11,0,.12-11.34,7.71-19.61,4.78-5.19,10.53-7,10.63-6.8s-9,3.55-14.35,12.29A25.89,25.89,0,0,0,286.88,226.7Z" transform="translate(0 0)"/><path class="cls-117" d="M290.08,226.12c.1,0-4.24-8.09-.78-16.73,2.18-5.43,6.52-8.78,6.67-8.7s-6.46,5.79-7.82,13.95A17.22,17.22,0,0,0,290.08,226.12Z" transform="translate(0 0)"/><path class="cls-118" d="M289.54,226.14c.11,0,1.07-11.29,9.32-18.9,5.2-4.78,11.07-6.06,11.16-5.88s-9.23,2.78-15.33,11A26,26,0,0,0,289.54,226.14Z" transform="translate(0 0)"/><path class="cls-119" d="M284.33,227.16a12,12,0,0,0-2.52-11.88,19.66,19.66,0,0,0-8.28-5c-.17.11,7.51,3,10.45,8.54A9.19,9.19,0,0,1,284.33,227.16Z" transform="translate(0 0)"/><path class="cls-120" d="M289.39,223.58c.11,0-4.93-10.21-1.8-21,2-6.78,6.33-10.93,6.5-10.82s-6.46,7.16-7.4,17.39A26,26,0,0,0,289.39,223.58Z" transform="translate(0 0)"/><path class="cls-121" d="M290.54,227.29c.1,0,.15-9.13,7.32-15.06,4.51-3.73,9.92-4.6,10-4.45s-8.44,2-13.53,8.51A17.28,17.28,0,0,0,290.54,227.29Z" transform="translate(0 0)"/><path class="cls-122" d="M280.37,227.9c-.11,0,3.51-10.79-1.06-21.05-2.87-6.45-7.76-10-7.9-9.83s7.37,6.22,9.69,16.22A26,26,0,0,1,280.37,227.9Z" transform="translate(0 0)"/><path class="cls-123" d="M279.8,229.55c-.11,0,3.44-8.46-.82-16.73-2.68-5.2-7.31-8.13-7.46-8s7,5.15,9.11,13.15A17.33,17.33,0,0,1,279.8,229.55Z" transform="translate(0 0)"/><path class="cls-124" d="M282.16,227.27c.11,0,.12-11.34,7.71-19.61,4.78-5.19,10.53-7,10.63-6.79s-9,3.54-14.35,12.28A26,26,0,0,0,282.16,227.27Z" transform="translate(0 0)"/><path class="cls-125" d="M285.36,226.69c.1,0-4.23-8.09-.78-16.73,2.18-5.43,6.52-8.78,6.67-8.7s-6.46,5.79-7.82,14A17.22,17.22,0,0,0,285.36,226.69Z" transform="translate(0 0)"/><path class="cls-126" d="M284.82,226.71c.11,0,1.07-11.29,9.32-18.89,5.2-4.78,11.07-6.06,11.16-5.89s-9.23,2.78-15.33,11A26,26,0,0,0,284.82,226.71Z" transform="translate(0 0)"/><path class="cls-127" d="M279.61,227.73a12,12,0,0,0-2.52-11.88,19.66,19.66,0,0,0-8.28-5c-.17.11,7.51,3,10.45,8.55A9.17,9.17,0,0,1,279.61,227.73Z" transform="translate(0 0)"/><path class="cls-128" d="M284.67,224.15c.11,0-4.93-10.21-1.8-21,2-6.78,6.33-10.93,6.5-10.82s-6.46,7.16-7.4,17.39A26,26,0,0,0,284.67,224.15Z" transform="translate(0 0)"/><path class="cls-129" d="M285.82,227.86c.1,0,.15-9.13,7.32-15.06,4.51-3.73,9.92-4.6,10-4.45s-8.44,2-13.53,8.51A17.28,17.28,0,0,0,285.82,227.86Z" transform="translate(0 0)"/></g></g></svg>