<svg xmlns="http://www.w3.org/2000/svg" xmlns:xlink="http://www.w3.org/1999/xlink" viewBox="0 0 47.53 39.41"><defs><style>.cls-1{fill:url(#Orchid);}</style><linearGradient id="Orchid" x1="-440.86" y1="191.59" x2="-409.37" y2="227.11" gradientTransform="matrix(0.81, 0.01, -0.02, 0.85, 371.82, -157.1)" gradientUnits="userSpaceOnUse"><stop offset="0" stop-color="#ff7bac"/><stop offset="0.22" stop-color="#ff7bac" stop-opacity="0.76"/><stop offset="0.6" stop-color="#ff7bac" stop-opacity="0.36"/><stop offset="0.87" stop-color="#ff7bac" stop-opacity="0.1"/><stop offset="1" stop-color="#ff7bac" stop-opacity="0"/></linearGradient></defs><title>Asset 7</title><g id="Layer_2" data-name="Layer 2"><g id="Layer_1-2" data-name="Layer 1"><path class="cls-1" d="M18.36,39.35C16.78,39,16.58,37.49,13.93,34c-3-4-5-5-7.12-7.15-5-5.29-9.25-16.11-5.17-22.24C3.88,1.24,8.39-.36,12.33.07c.51.06,5.52.68,8.32,4.88s1.7,9.28,2.55,9.36.85-3.75,3-7C29.08,2.92,36.29-1.16,41.92,2c4.74,2.61,6.32,9.18,5.32,13.87-1.13,5.29-5.57,8.29-9.64,11s-4.46,1.6-8.49,4.44C22.9,35.67,21.18,40,18.36,39.35Z"/></g></g></svg>