<svg xmlns="http://www.w3.org/2000/svg" xmlns:xlink="http://www.w3.org/1999/xlink" viewBox="0 0 441.2 534.93"><defs><style>.cls-1{fill:url(#linear-gradient);}</style><linearGradient id="linear-gradient" x1="-1970.03" y1="2019.75" x2="-1535.7" y2="2509.51" gradientTransform="translate(2114.78 -2072.16) rotate(0.25)" gradientUnits="userSpaceOnUse"><stop offset="0.3" stop-color="#ff7bac"/><stop offset="0.38" stop-color="#ff7bac" stop-opacity="0.91"/><stop offset="0.55" stop-color="#ff7bac" stop-opacity="0.69"/><stop offset="0.79" stop-color="#ff7bac" stop-opacity="0.33"/><stop offset="1" stop-color="#ff7bac" stop-opacity="0"/></linearGradient></defs><title>Asset 3</title><g id="Layer_2" data-name="Layer 2"><g id="Layer_1-2" data-name="Layer 1"><path class="cls-1" d="M0,2C4.4,22.38,13.92,51.35,37,76.13c43.05,46.15,110.33,53.69,186.51,60.27,89,7.68,122.81-4.37,152.73,25,21.05,20.7,26.4,48.63,31,72.72,7.28,38,1.23,68.49-9.91,122A769,769,0,0,1,376,436.57c-2.1,7.9-9.56,39.45,8.39,65.94,16.2,23.9,48.22,36.46,53,31.25,1.94-2.12.12-8,0-8s0,7.94,0,8,0-.78,3.81-522.94L437.39.15,437.2,0l.19.15L437.2,0Z"/></g></g></svg>