<?xml version="1.0" encoding="utf-8"?>
<!-- Generator: Adobe Illustrator 24.0.1, SVG Export Plug-In . SVG Version: 6.00 Build 0)  -->
<svg version="1.1" xmlns="http://www.w3.org/2000/svg" xmlns:xlink="http://www.w3.org/1999/xlink" x="0px" y="0px"
	 viewBox="0 0 500 500" style="enable-background:new 0 0 500 500;" xml:space="preserve">
<style type="text/css">
	.st0{fill:#FFFFFF;}
	.st1{fill:url(#SVGID_1_);}
	.st2{fill:none;stroke:#EBE1FF;stroke-width:3;stroke-linecap:round;stroke-linejoin:round;stroke-miterlimit:10;}
	.st3{fill:url(#SVGID_2_);}
	.st4{fill:url(#SVGID_3_);}
	.st5{fill:url(#SVGID_4_);}
	.st6{fill:#EBE1FF;}
	.st7{opacity:5.000000e-02;fill:#FF3162;}
	.st8{opacity:5.000000e-02;}
	.st9{fill:#2B144F;}
	.st10{fill:url(#SVGID_5_);}
	.st11{opacity:0.15;}
	.st12{fill:url(#SVGID_6_);}
	.st13{fill:url(#SVGID_7_);}
	.st14{fill:url(#SVGID_8_);}
	.st15{fill:url(#SVGID_9_);}
	.st16{fill:url(#SVGID_10_);}
	.st17{fill:url(#SVGID_11_);}
	.st18{fill:none;stroke:#000000;stroke-miterlimit:10;}
	.st19{opacity:0.25;}
	.st20{fill:none;stroke:#2B144F;stroke-miterlimit:10;}
	.st21{fill:#FFC5C5;}
	.st22{fill:url(#SVGID_12_);}
	.st23{fill:url(#SVGID_13_);}
	.st24{fill:url(#SVGID_14_);}
	.st25{fill:url(#SVGID_15_);}
	.st26{fill:url(#SVGID_16_);}
	.st27{fill:none;stroke:url(#SVGID_17_);stroke-miterlimit:10;}
	.st28{fill:none;stroke:url(#SVGID_18_);stroke-miterlimit:10;}
	.st29{fill:url(#SVGID_19_);}
	.st30{fill:url(#SVGID_20_);}
	.st31{fill:#FF3162;}
	.st32{fill:url(#SVGID_21_);}
	.st33{fill:none;stroke:#FFFFFF;stroke-miterlimit:10;}
	.st34{fill:url(#SVGID_22_);}
</style>
<g id="BACKGROUND">
	<rect class="st0" width="500" height="500"/>
</g>
<g id="OBJECTS">
	<g>
		<g>
			<g>
				<linearGradient id="SVGID_1_" gradientUnits="userSpaceOnUse" x1="80.5261" y1="282.4949" x2="198.1898" y2="385.9502">
					<stop  offset="2.700000e-07" style="stop-color:#FAF8FF"/>
					<stop  offset="1" style="stop-color:#EEE9FF"/>
				</linearGradient>
				<path class="st1" d="M181.9,400.8c-12.2-14.9-95.3-49.9-109-91.5c-13.7-41.5,8.8-57.4,34.5-46.4c25.7,10.9,32.4,76.2,56.7,97.9
					c24.3,21.7,35,14.7,35,14.7"/>
				<path class="st2" d="M82.2,261.5c0,0,58.9,104.7,98.4,127.1"/>
				<path class="st2" d="M77,318.3c0,0,24.5-8.2,37.7-4.4c2.2-22.8,10.8-31,10.8-31"/>
				<path class="st2" d="M109,351.6c0,0,11.9-8,28.2-6.3c-1-11.6,5.5-21.3,5.5-21.3"/>
				<path class="st2" d="M135.6,370c0,0,13.2-6.2,18.5-4.2c-2.4-6.9,2.2-14.1,2.2-14.1"/>
			</g>
			<g>
				
					<linearGradient id="SVGID_2_" gradientUnits="userSpaceOnUse" x1="521.9661" y1="101.1232" x2="639.6298" y2="204.5785" gradientTransform="matrix(-1 0 0 1 921.7749 0)">
					<stop  offset="2.700000e-07" style="stop-color:#FAF8FF"/>
					<stop  offset="1" style="stop-color:#EEE9FF"/>
				</linearGradient>
				<path class="st3" d="M298.5,219.4c12.2-14.9,95.3-49.9,109-91.5c13.7-41.5-8.8-57.4-34.5-46.4s-32.4,76.2-56.7,97.9
					c-24.3,21.7-35,14.7-35,14.7"/>
				<path class="st2" d="M398.2,80.2c0,0-58.9,104.7-98.4,127.1"/>
				<path class="st2" d="M403.4,137c0,0-24.5-8.2-37.7-4.4c-2.2-22.8-10.8-31-10.8-31"/>
				<path class="st2" d="M371.4,170.2c0,0-11.9-8-28.2-6.3c1-11.6-5.5-21.3-5.5-21.3"/>
				<path class="st2" d="M344.7,188.6c0,0-13.2-6.2-18.5-4.2c2.4-6.9-2.2-14.1-2.2-14.1"/>
			</g>
			<g>
				
					<linearGradient id="SVGID_3_" gradientUnits="userSpaceOnUse" x1="536.2812" y1="356.6365" x2="653.9448" y2="460.0917" gradientTransform="matrix(-0.7725 -0.635 -0.635 0.7725 1061.254 409.7835)">
					<stop  offset="2.700000e-07" style="stop-color:#FAF8FF"/>
					<stop  offset="1" style="stop-color:#EEE9FF"/>
				</linearGradient>
				<path class="st4" d="M267.1,371.8c18.9-3.8,105.3,21.9,142.3-1.5c37-23.4,29.6-49.9,2.8-57.8s-73.4,38.3-106,39.6
					c-32.6,1.3-36.4-10.9-36.4-10.9"/>
				<path class="st2" d="M432.6,327.5c0,0-112,43.5-156.7,35.7"/>
				<path class="st2" d="M400.5,374.7c0,0-13.7-21.9-26.3-27.3c12.8-19.1,11.3-30.8,11.3-30.8"/>
				<path class="st2" d="M354.6,380.1c0,0-4.1-13.7-17.8-22.8c8.2-8.3,9.3-19.9,9.3-19.9"/>
				<path class="st2" d="M322.4,377.3c0,0-6.2-13.2-11.6-15c6.2-3.8,7.2-12.3,7.2-12.3"/>
			</g>
			<g>
				
					<linearGradient id="SVGID_4_" gradientUnits="userSpaceOnUse" x1="1050.5015" y1="383.0753" x2="1136.8328" y2="458.9818" gradientTransform="matrix(0.9998 2.220000e-02 -2.220000e-02 0.9998 -917.4651 -322.9192)">
					<stop  offset="2.700000e-07" style="stop-color:#FAF8FF"/>
					<stop  offset="1" style="stop-color:#EEE9FF"/>
				</linearGradient>
				<path class="st5" d="M196.7,171.8c-8.7-11.1-69.1-38.2-78.4-68.9c-9.4-30.7,7.4-41.9,26.1-33.5c18.7,8.4,22.5,56.4,40,72.7
					c17.5,16.3,25.5,11.4,25.5,11.4"/>
				<path class="st2" d="M125.9,68c0,0,41.5,77.8,70.1,94.8"/>
				<path class="st2" d="M121.1,109.6c0,0,18.1-5.7,27.7-2.6c2-16.7,8.4-22.5,8.4-22.5"/>
				<path class="st2" d="M144.1,134.6c0,0,8.9-5.7,20.8-4.2c-0.6-8.5,4.4-15.6,4.4-15.6"/>
				<path class="st2" d="M163.3,148.5c0,0,9.8-4.4,13.7-2.8c-1.6-5.1,1.9-10.3,1.9-10.3"/>
			</g>
		</g>
		<g>
			<path class="st6" d="M334,429.9H178.6c-6.4,0-11.6-5.2-11.6-11.6V94c0-6.4,5.2-11.6,11.6-11.6H334c6.4,0,11.6,5.2,11.6,11.6
				v324.2C345.6,424.7,340.4,429.9,334,429.9z"/>
			<path class="st0" d="M328.6,419.2H184c-6,0-10.9-4.9-10.9-10.9V103.9c0-6,4.9-10.9,10.9-10.9h144.6c6,0,10.9,4.9,10.9,10.9v304.4
				C339.5,414.4,334.6,419.2,328.6,419.2z"/>
			<g>
				<g>
					<path class="st7" d="M287.5,115.5h-88.1h-3.2h-10.1c-1.1,0-1.6,1.3-0.9,2.1l7.6,7.6v20.3c0,1.8,1.5,3.3,3.3,3.3h91.3
						c1.8,0,3.3-1.5,3.3-3.3v-26.6C290.9,116.9,289.4,115.5,287.5,115.5z"/>
					<g>
						<path class="st8" d="M272.8,123.4h-60.7c-0.3,0-0.5-0.2-0.5-0.5l0,0c0-0.3,0.2-0.5,0.5-0.5h60.7c0.3,0,0.5,0.2,0.5,0.5l0,0
							C273.3,123.1,273.1,123.4,272.8,123.4z"/>
						<path class="st8" d="M272.8,129.2h-60.7c-0.3,0-0.5-0.2-0.5-0.5l0,0c0-0.3,0.2-0.5,0.5-0.5h60.7c0.3,0,0.5,0.2,0.5,0.5l0,0
							C273.3,129,273.1,129.2,272.8,129.2z"/>
						<path class="st8" d="M272.8,135h-60.7c-0.3,0-0.5-0.2-0.5-0.5l0,0c0-0.3,0.2-0.5,0.5-0.5h60.7c0.3,0,0.5,0.2,0.5,0.5l0,0
							C273.3,134.8,273.1,135,272.8,135z"/>
						<path class="st8" d="M272.8,140.8h-60.7c-0.3,0-0.5-0.2-0.5-0.5l0,0c0-0.3,0.2-0.5,0.5-0.5h60.7c0.3,0,0.5,0.2,0.5,0.5l0,0
							C273.3,140.6,273.1,140.8,272.8,140.8z"/>
					</g>
				</g>
				<g>
					<path class="st7" d="M287.5,242.6h-88.1h-3.2h-10.1c-1.1,0-1.6,1.3-0.9,2.1l7.6,7.6v20.3c0,1.8,1.5,3.3,3.3,3.3h91.3
						c1.8,0,3.3-1.5,3.3-3.3v-26.6C290.9,244.1,289.4,242.6,287.5,242.6z"/>
					<g>
						<path class="st8" d="M272.8,250.5h-60.7c-0.3,0-0.5-0.2-0.5-0.5l0,0c0-0.3,0.2-0.5,0.5-0.5h60.7c0.3,0,0.5,0.2,0.5,0.5l0,0
							C273.3,250.3,273.1,250.5,272.8,250.5z"/>
						<path class="st8" d="M272.8,256.3h-60.7c-0.3,0-0.5-0.2-0.5-0.5l0,0c0-0.3,0.2-0.5,0.5-0.5h60.7c0.3,0,0.5,0.2,0.5,0.5l0,0
							C273.3,256.1,273.1,256.3,272.8,256.3z"/>
						<path class="st8" d="M272.8,262.1h-60.7c-0.3,0-0.5-0.2-0.5-0.5l0,0c0-0.3,0.2-0.5,0.5-0.5h60.7c0.3,0,0.5,0.2,0.5,0.5l0,0
							C273.3,261.9,273.1,262.1,272.8,262.1z"/>
						<path class="st8" d="M272.8,267.9h-60.7c-0.3,0-0.5-0.2-0.5-0.5l0,0c0-0.3,0.2-0.5,0.5-0.5h60.7c0.3,0,0.5,0.2,0.5,0.5l0,0
							C273.3,267.7,273.1,267.9,272.8,267.9z"/>
					</g>
				</g>
				<g>
					<path class="st7" d="M287.5,355h-88.1h-3.2h-10.1c-1.1,0-1.6,1.3-0.9,2.1l7.6,7.6V385c0,1.8,1.5,3.3,3.3,3.3h91.3
						c1.8,0,3.3-1.5,3.3-3.3v-26.6C290.9,356.5,289.4,355,287.5,355z"/>
					<g>
						<path class="st8" d="M272.8,363h-60.7c-0.3,0-0.5-0.2-0.5-0.5l0,0c0-0.3,0.2-0.5,0.5-0.5h60.7c0.3,0,0.5,0.2,0.5,0.5l0,0
							C273.3,362.7,273.1,363,272.8,363z"/>
						<path class="st8" d="M272.8,368.8h-60.7c-0.3,0-0.5-0.2-0.5-0.5l0,0c0-0.3,0.2-0.5,0.5-0.5h60.7c0.3,0,0.5,0.2,0.5,0.5l0,0
							C273.3,368.5,273.1,368.8,272.8,368.8z"/>
						<path class="st8" d="M272.8,374.6h-60.7c-0.3,0-0.5-0.2-0.5-0.5l0,0c0-0.3,0.2-0.5,0.5-0.5h60.7c0.3,0,0.5,0.2,0.5,0.5l0,0
							C273.3,374.4,273.1,374.6,272.8,374.6z"/>
						<path class="st8" d="M272.8,380.4h-60.7c-0.3,0-0.5-0.2-0.5-0.5l0,0c0-0.3,0.2-0.5,0.5-0.5h60.7c0.3,0,0.5,0.2,0.5,0.5l0,0
							C273.3,380.2,273.1,380.4,272.8,380.4z"/>
					</g>
				</g>
				<g>
					<path class="st7" d="M226.7,187.7h88.1h3.2h10.1c1.1,0,1.6,1.3,0.9,2.1l-7.6,7.6v20.3c0,1.8-1.5,3.3-3.3,3.3h-91.3
						c-1.8,0-3.3-1.5-3.3-3.3V191C223.4,189.2,224.9,187.7,226.7,187.7z"/>
					<g>
						<path class="st8" d="M241.5,195.6h60.7c0.3,0,0.5-0.2,0.5-0.5l0,0c0-0.3-0.2-0.5-0.5-0.5h-60.7c-0.3,0-0.5,0.2-0.5,0.5l0,0
							C240.9,195.4,241.2,195.6,241.5,195.6z"/>
						<path class="st8" d="M241.5,201.4h60.7c0.3,0,0.5-0.2,0.5-0.5l0,0c0-0.3-0.2-0.5-0.5-0.5h-60.7c-0.3,0-0.5,0.2-0.5,0.5l0,0
							C240.9,201.2,241.2,201.4,241.5,201.4z"/>
						<path class="st8" d="M241.5,207.2h60.7c0.3,0,0.5-0.2,0.5-0.5l0,0c0-0.3-0.2-0.5-0.5-0.5h-60.7c-0.3,0-0.5,0.2-0.5,0.5l0,0
							C240.9,207,241.2,207.2,241.5,207.2z"/>
						<path class="st8" d="M241.5,213h60.7c0.3,0,0.5-0.2,0.5-0.5l0,0c0-0.3-0.2-0.5-0.5-0.5h-60.7c-0.3,0-0.5,0.2-0.5,0.5l0,0
							C240.9,212.8,241.2,213,241.5,213z"/>
					</g>
				</g>
				<g>
					<path class="st7" d="M226.7,299.9h88.1h3.2h10.1c1.1,0,1.6,1.3,0.9,2.1l-7.6,7.6v20.3c0,1.8-1.5,3.3-3.3,3.3h-91.3
						c-1.8,0-3.3-1.5-3.3-3.3v-26.6C223.4,301.4,224.9,299.9,226.7,299.9z"/>
					<g>
						<path class="st8" d="M241.5,307.8h60.7c0.3,0,0.5-0.2,0.5-0.5l0,0c0-0.3-0.2-0.5-0.5-0.5h-60.7c-0.3,0-0.5,0.2-0.5,0.5l0,0
							C240.9,307.6,241.2,307.8,241.5,307.8z"/>
						<path class="st8" d="M241.5,313.6h60.7c0.3,0,0.5-0.2,0.5-0.5l0,0c0-0.3-0.2-0.5-0.5-0.5h-60.7c-0.3,0-0.5,0.2-0.5,0.5l0,0
							C240.9,313.4,241.2,313.6,241.5,313.6z"/>
						<path class="st8" d="M241.5,319.4h60.7c0.3,0,0.5-0.2,0.5-0.5l0,0c0-0.3-0.2-0.5-0.5-0.5h-60.7c-0.3,0-0.5,0.2-0.5,0.5l0,0
							C240.9,319.2,241.2,319.4,241.5,319.4z"/>
						<path class="st8" d="M241.5,325.3h60.7c0.3,0,0.5-0.2,0.5-0.5l0,0c0-0.3-0.2-0.5-0.5-0.5h-60.7c-0.3,0-0.5,0.2-0.5,0.5l0,0
							C240.9,325,241.2,325.3,241.5,325.3z"/>
					</g>
				</g>
			</g>
		</g>
		<g>
			<path class="st9" d="M183.1,169.5c0,0,4.5,3,5.6,11.3c1.1,8.3,4.7,23.4-7.4,27.1c-12.1,3.7-20.2-4.7-20.2-4.7s-1.2-9.5-1.3-11.5
				c-0.1-2,0.6-8.6,0.6-8.6s0.9-9,2.9-9.5C165.2,173.1,183.1,169.5,183.1,169.5z"/>
			<path class="st9" d="M186.9,167.6c-0.8,1.9-2,3.2-3.5,4.1c-4.6,2.8-11.3,1.8-12.2,1.8c-1.8,5.5-1.2,8.8-1.7,8
				c-0.4-0.8-3.7-2.3-4.6,0.2c-0.9,2.3,1.2,4,4.5,3.7c0.3,0,0.6-0.1,1-0.2c0.1,0.6,0.1,1.8-0.1,3.2c-0.7,5.8,7.2,15.5,7.2,15.5
				s-23.6,16.4-28.3,17.7c-4.7,1.3-9.9-4.3-4.9-11.2c5-6.9,9.8-24.3,9.5-34.6c-0.3-10.3,5.6-11.4,9.2-11.8c3.7-0.4,4.6-6.4,11.9-7.8
				C182.1,154.6,190,160,186.9,167.6z"/>
			<linearGradient id="SVGID_5_" gradientUnits="userSpaceOnUse" x1="206.8942" y1="295.0513" x2="192.9821" y2="181.9781">
				<stop  offset="2.700000e-07" style="stop-color:#FF5A5A"/>
				<stop  offset="1" style="stop-color:#FF8585"/>
			</linearGradient>
			<path class="st10" d="M254.5,194.9c-4.6,5.1-14,10.6-23.7,14.6c-9.7,4-19.7,6.6-25.5,5.7c0.6,1.7,0.7,4,0.6,6.6
				c0,1.3-0.1,2.6-0.2,3.9c-0.1,2.3-0.3,4.4-0.2,6.1c0,0.5,0.1,1,0.3,1.6c0.2,0.9,0.6,2,1.1,3.2c0.8,1.8,1.8,3.9,2.9,6.1
				c0.5,1,1,2,1.5,3c1,2,2.1,4.1,3.1,6.1c0.5,1,1,2,1.4,3c0.2,0.4,0.4,0.8,0.5,1.2c-1.1,0.1-2.3,0.2-3.5,0.5
				c-9.2,2-20.4,9.8-28.1,15.5c-0.9,0.7-1.7,1.3-2.5,1.9c-3.8,2.9-6.3,4.8-6.4,4.4c0-0.1-0.1-0.3-0.2-0.7c-0.1-0.7-0.3-1.9-0.6-3.5
				c-0.3-1.9-0.7-4.4-1.2-7.1c-0.2-1.1-0.4-2.3-0.6-3.4c-0.4-2.2-0.9-4.6-1.4-7c-0.2-1.1-0.5-2.2-0.8-3.4c-0.5-2.3-1.1-4.6-1.8-6.8
				c-0.3-1.1-0.7-2.2-1-3.2c-0.4-1.3-0.9-2.6-1.4-3.7c-1.9,1.9-3.3,4.3-4.2,6.9c0,0.1,0,0.1-0.1,0.2c-4.4,13,1.9,31.9,2.3,34.2
				c-3.6,1.5-4.3,4.6-5.5,5.3v0c-0.2,0.1-0.4,0.2-0.6,0.2c-1.7,0-16.8-4.4-16.8-33.8c0-26.1,16.9-50.5,28.6-57.8
				c1.5-0.9,2.9-1.6,4.2-1.9c3.7-1,6.7-1.6,9.4-2c12.5-1.7,16.2,2.6,26.4,5.2c12.3,3.2,34.5-8,37.5-8c0.5,0,1,0.1,1.5,0.2
				C252.3,188.6,254.4,190.8,254.5,194.9z"/>
			<path class="st11" d="M180.5,201.9c-7.7,0-9.4-4.6-9.8-7.4c1.5-0.9,2.9-1.6,4.2-1.9c3.7-1,6.7-1.6,9.4-2
				C186.2,195.6,187.1,201.9,180.5,201.9z"/>
			<linearGradient id="SVGID_6_" gradientUnits="userSpaceOnUse" x1="193.9842" y1="187.2446" x2="151.9503" y2="171.5559">
				<stop  offset="2.700000e-07" style="stop-color:#FFC5C5"/>
				<stop  offset="1" style="stop-color:#F7ADAD"/>
			</linearGradient>
			<path class="st12" d="M182.3,190.3c-0.9,0.6-2.1,1-3.4,1.2c-3,0.5-5.1,0-6.5-0.9c-1-0.6-1.7-1.5-2.2-2.3c0.2-1.4,0.2-2.5,0.1-3.2
				c-0.3,0.1-0.6,0.1-1,0.2c-3.3,0.3-5.4-1.4-4.5-3.7c0.9-2.5,4.2-1,4.6-0.2c0.4,0.8-0.1-2.1,1.4-7c0.1-0.3,0.2-0.6,0.3-0.9
				c0.9,0,7.6,1,12.2-1.8c0.6,0.9,1.1,1.9,1.6,3C187.1,180,187,187.3,182.3,190.3z"/>
			<linearGradient id="SVGID_7_" gradientUnits="userSpaceOnUse" x1="188.4428" y1="204.4248" x2="176.2077" y2="191.795">
				<stop  offset="2.700000e-07" style="stop-color:#FFC5C5"/>
				<stop  offset="1" style="stop-color:#F7ADAD"/>
			</linearGradient>
			<path class="st13" d="M183,195.1c-1.7,4.1-6.8,3.8-8.7,2.4c-0.8-0.6-1.2-1.6-1.4-2.7c-0.3-1.4-0.3-3.1-0.5-4.3
				c1.4,0.9,3.5,1.3,6.5,0.9c1.3-0.2,2.4-0.6,3.4-1.2c0,0.5,0.1,0.9,0.1,1.3C182.7,193.3,183.3,194.6,183,195.1z"/>
			<linearGradient id="SVGID_8_" gradientUnits="userSpaceOnUse" x1="268.5124" y1="179.7595" x2="244.3876" y2="195.152">
				<stop  offset="2.700000e-07" style="stop-color:#FFC5C5"/>
				<stop  offset="1" style="stop-color:#F7ADAD"/>
			</linearGradient>
			<path class="st14" d="M254.5,194.9c-0.1-4.1-2.3-6.3-4.7-6.9c0,0,3.4-5.8,5.2-6.2c1.8-0.5,0.8,5.3,0.8,5.3s8.7-5.6,14-4
				C275.2,184.6,255.7,193,254.5,194.9z"/>
			<linearGradient id="SVGID_9_" gradientUnits="userSpaceOnUse" x1="173.0033" y1="302.493" x2="151.888" y2="263.2224">
				<stop  offset="2.700000e-07" style="stop-color:#FFC5C5"/>
				<stop  offset="1" style="stop-color:#F7ADAD"/>
			</linearGradient>
			<path class="st15" d="M170.2,288.8c1.2,1.7-0.4,7.8-5,7.7c-4.6-0.1-6.1-5.5-5.6-10.5v0c1.2-0.8,1.9-3.9,5.5-5.3
				c0,0,3.3,1.1,5,2.9C171.9,285.3,169,287.1,170.2,288.8z"/>
			<path class="st9" d="M232.6,368.9c-0.6,0.6-1.2,1.1-1.9,1.5c-1.8,1.2-3.7,1.6-5.5,1.4c-3.6-0.2-6.7-2.5-8-4.2
				c-0.2-0.3-0.4-0.6-0.6-0.9c-1.3-2.8,6.7-38.8,3.4-44.3c-3.1,9.5-20.3,37.9-27.1,35.4c0,0,0,0-0.1,0c-3.6-1.4-6.7-4.4-8.7-7.3
				c-0.7-1-1.2-2-1.5-2.9c-0.5-1.3-0.6-2.4-0.2-3c1.3-2.2,10.4-10.8,13.2-22.2c2.8-11.4,0.7-18.4-8-24c-8.7-5.6-12.3-11.2-11.7-20.3
				c0.2,0.5,3.7-2.4,8.9-6.2c8.7-6.4,21.9-15.5,31.6-16C261.2,305.8,239.3,362.4,232.6,368.9z"/>
			<linearGradient id="SVGID_10_" gradientUnits="userSpaceOnUse" x1="171.8087" y1="369.2629" x2="192.8757" y2="369.2629">
				<stop  offset="2.700000e-07" style="stop-color:#C3ABFF"/>
				<stop  offset="1" style="stop-color:#DFCFFF"/>
			</linearGradient>
			<path class="st16" d="M188.9,371.8c1.4,9.3-2.8,18.9-6.2,19.1c-3.5,0.2-5.4-3.8-5.4-10.3c0.1-6.4-6.5-19-5.4-22.6
				c1.1-3.6,9.1-7.4,10.8-10.4c1.3,3.4,5.3,8.3,10.2,10.2C190.4,361.2,188.1,366.2,188.9,371.8z"/>
			<linearGradient id="SVGID_11_" gradientUnits="userSpaceOnUse" x1="211.0942" y1="384.4081" x2="230.7465" y2="384.4081">
				<stop  offset="2.700000e-07" style="stop-color:#C3ABFF"/>
				<stop  offset="1" style="stop-color:#DFCFFF"/>
			</linearGradient>
			<path class="st17" d="M230.7,370.4c-0.6,2.1-1.5,5.5-2,8.8c-0.7,5,0.5,21.5-2.8,22c-3.3,0.5-6.1-1.7-8.3-8.9
				c-2.2-7.2-6.4-16.5-6.6-18.4c-0.2-1.9,3.9-3.7,6.1-6.4C219.3,370.2,225.2,373.9,230.7,370.4z"/>
			<line class="st18" x1="217.2" y1="367.6" x2="217.2" y2="367.6"/>
			<path class="st19" d="M230.7,319.9c-1,8.4-8,31.6-7.7,39.7c0.2,6.7,1.6,9.2,2.2,12.2c-3.6-0.2-6.7-2.5-8-4.2
				c-0.2-0.3-0.4-0.6-0.6-0.9c-1.3-2.8,6.7-38.8,3.4-44.3c4-15.4,3.7-22.6-2.8-30.6c-6.5-8-4.7-13.2-4.7-13.2s0,4.4,8.4,11.2
				C229.4,296.7,232.2,308,230.7,319.9z"/>
			<path class="st19" d="M202.9,304.8c-0.4,14.9-8.2,37.2-18.6,45.7c-0.7-1-1.2-2-1.5-2.9c-0.5-1.3-0.6-2.4-0.2-3
				c1.3-2.2,10.4-10.8,13.2-22.2c2.8-11.4,0.7-18.4-8-24c-8.7-5.6-12.3-11.2-11.7-20.3c0.2,0.5,3.7-2.4,8.9-6.2
				c0.4,1.4,0.6,2.7,0.6,3.9C185.5,282.9,203.3,288.7,202.9,304.8z"/>
			<path class="st11" d="M184.8,271.9c-5.2,3.8-8.7,6.7-8.9,6.2c-0.5-1.3-3.3-24.8-8.9-38.8c0,0,6.4,1.6,8.8,10
				C177.9,256.3,183.1,265,184.8,271.9z"/>
			<path class="st11" d="M230.8,209.5c-9.7,4-19.7,6.6-25.5,5.7c0,0-0.9-4.8-5.4-7.2C207,207.3,219.3,210.5,230.8,209.5z"/>
			<path class="st9" d="M177.3,179.7c0,0.6-0.4,1.1-0.9,1.1c-0.5,0-0.9-0.5-0.9-1.1s0.4-1.1,0.9-1.1
				C176.9,178.5,177.3,179,177.3,179.7z"/>
			<path class="st9" d="M183.4,178.7c0.1,0.6-0.3,1.2-0.8,1.2c-0.5,0.1-0.9-0.4-1-1c-0.1-0.6,0.3-1.2,0.8-1.2
				C182.8,177.6,183.3,178.1,183.4,178.7z"/>
			<path class="st20" d="M175,183.9c0,0,1,2.6,5.6,1.5"/>
			<path class="st20" d="M222.3,379.8c0,0,9-1.1,8.9,1.1c-0.2,2.2-7.4,1-8.4,3.3c-1,2.2,7.4,0,7.5,1.5c0.2,1.5-7.1,3-7.1,3"/>
			<path class="st20" d="M183.8,364.3c0,0,8,1.5,8.1,3.8c0.1,2.3-7.3-0.8-8.7,1.7c-1.5,2.5,8.7,1,8.7,3.8c0,2.7-6.1,1.1-8.1,2.1"/>
			<path class="st11" d="M184.9,174.7c-5.1,2-11.4,0.5-14-0.2c0.1-0.3,0.2-0.6,0.3-0.9c0.9,0,7.6,1,12.2-1.8
				C184,172.6,184.5,173.6,184.9,174.7z"/>
			<path class="st11" d="M182.4,191.6c-1.8,0.8-6.5,2.7-9.4,3.3c-0.3-1.4-0.3-3.1-0.5-4.3c1.4,0.9,3.5,1.3,6.5,0.9
				c1.3-0.2,2.4-0.6,3.4-1.2C182.3,190.8,182.3,191.2,182.4,191.6z"/>
			<path class="st21" d="M162.7,246.2l0.1-0.1c0,0.1,0,0.1-0.1,0.2L162.7,246.2z"/>
			<g class="st11">
				<path class="st0" d="M205.9,221.8c0,1.3-0.1,2.6-0.2,3.9l-36.4,20.6c-0.3-1.1-0.7-2.2-1-3.2L205.9,221.8z"/>
				<path class="st0" d="M207,236.6l-35.1,19.9c-0.2-1.1-0.5-2.2-0.8-3.4l34.7-19.7C206.1,234.3,206.5,235.4,207,236.6z"/>
				<path class="st0" d="M211.4,245.6L174,266.9c-0.2-1.1-0.4-2.3-0.6-3.4l36.6-20.7C210.4,243.7,210.9,244.6,211.4,245.6z"/>
				<path class="st0" d="M215.9,254.7l-3,1.7c-9.2,2-20.4,9.8-28.1,15.5c-0.9,0.7-1.7,1.3-2.5,1.9l-6.6,3.7
					c-0.1-0.7-0.3-1.9-0.6-3.5l39.3-22.3C215,252.7,215.5,253.7,215.9,254.7z"/>
			</g>
		</g>
		<g>
			
				<linearGradient id="SVGID_12_" gradientUnits="userSpaceOnUse" x1="310.3504" y1="188.7687" x2="371.5623" y2="188.7687" gradientTransform="matrix(0.986 -0.1666 0.1666 0.986 -41.8512 70.9445)">
				<stop  offset="2.700000e-07" style="stop-color:#FFC5C5"/>
				<stop  offset="1" style="stop-color:#F7ADAD"/>
			</linearGradient>
			<path class="st22" d="M355,189.7c-0.3,3.1-0.9,9.4-1.3,15.1c-0.2,2.7-0.3,5.3-0.4,7.4c-13.3,0.2-23.4-5-29.6-9
				c-4-2.6-6.4-4.8-6.8-4.8c-1.3,0.1-19.1-3.1-21.7-4.7c-2.5-1.5-3.5-4.5,1.7-4.8c5.1-0.3,12.9,1.5,13.2,1.6
				c-0.1-0.2-2.7-4.4-0.7-4.2c2.1,0.2,3,2.8,12.1,6.1C328.2,195,341,193.1,355,189.7z"/>
			<path class="st9" d="M427,209.6c0.9,5,1,10.5,0.8,16c-0.1,2-0.3,4.1-0.5,6.1c-7,5.2-13.7,6-17.6,5.8c0-0.8,0-1.6,0-2.4
				c-0.2-4.6-1-9.2-3-13.3c-6.7,3.8-15.1,39.2-19.2,42.8c-0.2,0.2-0.5,0.3-0.7,0.3c0,0,0,0,0,0c-4-1.4-16.6-10-23.4-19.2
				c-0.6-0.8-1.1-1.6-1.6-2.3c-0.2-0.3-0.4-0.6-0.6-0.9c-5.8-10.4-15.3-8.1-15.5-9.3c-0.2-1.2,9.3-8.3,16.9-21.9
				c-3,0.6-5.9,0.9-8.6,1c-0.2,0-0.3,0-0.4,0c0.1-2.1,0.2-4.7,0.4-7.4c0.4-5.8,1-12,1.3-15.1c0,0,0.1,0,0.1,0
				c5.2-1.3,10.7-2.8,16-4.3c19.7-5.7,21.9-6.1,21.9-6.1S422.4,182.5,427,209.6z"/>
			
				<linearGradient id="SVGID_13_" gradientUnits="userSpaceOnUse" x1="394.3808" y1="182.715" x2="428.5211" y2="154.2976" gradientTransform="matrix(0.986 -0.1666 0.1666 0.986 -41.8512 70.9445)">
				<stop  offset="2.700000e-07" style="stop-color:#FFC5C5"/>
				<stop  offset="1" style="stop-color:#F7ADAD"/>
			</linearGradient>
			<path class="st23" d="M399.6,171.6c-0.7,1.5,0.8,9.2,0.8,10.7c-2.2,5.3-11.4,4.8-11.3,2.2c0.1-2.6-0.1-5.3-0.1-5.3
				s-6.8,2.2-10.4-4.2s1.1-15.9,1.1-15.9c3.6,1.9,10,1.2,11,1.6c1,0.3,1.7,3.9,2.4,4.2c0.7,0.3,0.5-2.8,3-1.9c2.5,0.9,1,3.5,1,4.4
				C396.9,168.2,397.4,169.9,399.6,171.6z"/>
			<path class="st9" d="M399.6,171.6c-2.2-1.7-2.7-3.4-2.7-4.3c0-0.9,1.5-3.5-1-4.4c-2.5-0.9-2.4,2.2-3,1.9
				c-0.7-0.3-1.3-3.9-2.4-4.2c-1-0.3-7.4,0.3-11-1.6c-7.9-1.3-17.2-9.3-11.6-15.6c5.6-6.3,14.5-4.4,19.4,1.2c4.9,5.6,7,7.9,9.8,8
				c2.7,0.1,7.2-0.9,8.7,2.6C407.3,158.7,402.9,172.4,399.6,171.6z"/>
			
				<linearGradient id="SVGID_14_" gradientUnits="userSpaceOnUse" x1="396.7665" y1="262.787" x2="435.7655" y2="262.787" gradientTransform="matrix(0.986 -0.1666 0.1666 0.986 -41.8512 70.9445)">
				<stop  offset="2.700000e-07" style="stop-color:#FFC5C5"/>
				<stop  offset="1" style="stop-color:#F7ADAD"/>
			</linearGradient>
			<path class="st24" d="M409.6,237.6c-0.2,16.2-5.3,28-7.2,35.6c0,0-3.5,0.8-4.8,2.8c-1.3,2,0.7,3.4,0.4,4.4
				c-0.2,1-2.5,4.8-0.4,6.9c2.1,2,12.5,1.3,14.2-1.6c1.3-2.4,1.7-7.3,1.8-9.3c2.3-4.9,11.3-22.8,13.7-44.6
				C420.2,236.9,413.6,237.7,409.6,237.6z"/>
			<path class="st19" d="M373.5,195.8c-2.9,1.9-11,15.5-11,15.5c-3,0.6-5.9,0.9-8.6,1c-0.2,0-0.3,0-0.4,0c-13.3,0.2-23.4-5-29.6-9
				c4.7,1,12.5,3.4,17.2,2.4c4.3-1,8.6-0.7,12.8-0.7c1.8,0,3.5-0.1,5.3-0.4C365.1,203.4,366.7,197.1,373.5,195.8z"/>
			<path class="st19" d="M406.6,221.9c-7.1,4.1-16.1,43.5-19.9,43.1c0,0,0,0,0,0c1.4-6.1,1.2-13.6,1.2-19.2c0-7,8-9.7,7.7-18.2
				c-0.2-8.6,6.1-10.1,5.4-16.8C403.6,213.9,406.6,221.9,406.6,221.9z"/>
			
				<linearGradient id="SVGID_15_" gradientUnits="userSpaceOnUse" x1="276.5798" y1="331.3866" x2="388.178" y2="199.3635" gradientTransform="matrix(0.986 -0.1666 0.1666 0.986 -41.8512 70.9445)">
				<stop  offset="2.700000e-07" style="stop-color:#C3ABFF"/>
				<stop  offset="1" style="stop-color:#DFCFFF"/>
			</linearGradient>
			<path class="st25" d="M363.3,245.8c-38.9,29.4-59.5,118.2-60,119.1c-0.1,0.2-0.5,0.4-1.1,0.8c-1.6,0.9-4.9,2.3-8.3,2.9
				c-2.3,0.4-4.7,0.4-6.7-0.4c-1.1-0.4-2.1-1.1-2.9-2c-1.8-42.4,10.3-73.5,24.2-94.9c17.1-26.4,37-38.1,37-38.1
				c0.2,1.2,9.7-1.1,15.5,9.3c0.2,0.3,0.4,0.6,0.6,0.9C362.2,244.2,362.7,245,363.3,245.8z"/>
			<path class="st19" d="M363.3,245.8c-38.9,29.4-59.5,118.2-60,119.1c-0.2,0.5-4.6,2.9-9.4,3.7c0.6-9.5,6.5-33.8,5.3-49.2
				c-1.3-17.4,4.6-27.4,4.6-27.4l4.8-20.7c17.1-26.4,37-38.1,37-38.1c0.2,1.2,9.7-1.1,15.5,9.3c0.2,0.3,0.4,0.6,0.6,0.9
				C362.2,244.2,362.7,245,363.3,245.8z"/>
			
				<linearGradient id="SVGID_16_" gradientUnits="userSpaceOnUse" x1="280.015" y1="334.2915" x2="391.6143" y2="202.267" gradientTransform="matrix(0.986 -0.1666 0.1666 0.986 -41.8512 70.9445)">
				<stop  offset="2.700000e-07" style="stop-color:#C3ABFF"/>
				<stop  offset="1" style="stop-color:#DFCFFF"/>
			</linearGradient>
			<path class="st26" d="M387.4,264.7c-0.6,3.7-2.3,8-6.5,10.9c-1.6,1.1-3.5,1.9-5.8,2.5c-14.8,3.4-22.2-8.1-36.1,0.6
				c-13.9,8.7-4.2,44.1-5.9,48.2c-0.1,0.2-0.2,0.3-0.3,0.5c-1.8,2.8-9,6.6-14.7,7.6c-2.8,0.5-5.3,0.3-6.6-1.1
				c-4.1-4.3-23.2-74.5-2.2-87.6c16.2-10.1,40.1-5.9,50.2-3.5c0.8,0.2,1.6,0.4,2.2,0.6c6.1,10,20.6,20.1,25,21.5c0,0,0,0,0,0
				C386.9,265,387.2,264.9,387.4,264.7z"/>
			<path class="st19" d="M387.4,264.7c-0.6,3.7-2.3,8-6.5,10.9c-7.1-2.6-16.2-11.2-17.8-20.6c-0.9-5.1-2.3-9.1-3.6-12.1
				c0.8,0.2,1.6,0.4,2.2,0.6c6.1,10,20.6,20.1,25,21.5c0,0,0,0,0,0C386.9,265,387.2,264.9,387.4,264.7z"/>
			<path class="st9" d="M304.9,383.9c-8.8,1.9-28.7,11.9-34,12.4c-5.3,0.5-6.7-3.5-4.8-7.4c1.6-3.4,16.9-16.2,21.1-20.7
				c2,0.8,4.4,0.7,6.7,0.4c3.4-0.6,6.6-1.9,8.3-2.9C305.5,372.8,311.8,382.4,304.9,383.9z"/>
			<path class="st9" d="M342.9,342.4c-2.3,2.7-19.1,22.2-22.8,25.1c-3.7,2.9-7.9,2.8-7.7-4.1c0.1-6,5.4-23,5.8-28.4
				c5.8-1,12.9-4.9,14.7-7.6C335.9,330.6,344.8,340.2,342.9,342.4z"/>
			
				<linearGradient id="SVGID_17_" gradientUnits="userSpaceOnUse" x1="301.6288" y1="335.1034" x2="312.633" y2="335.1034" gradientTransform="matrix(0.986 -0.1666 0.1666 0.986 -41.8512 70.9445)">
				<stop  offset="2.700000e-07" style="stop-color:#FF5A5A"/>
				<stop  offset="1" style="stop-color:#FF8585"/>
			</linearGradient>
			<path class="st27" d="M314.9,346.3c0,0,3.8-2.2,6.1,0.1c2.3,2.3-7.7,2-7.6,4.5c0,2.5,6.3-1.4,6.7,1.7c0.4,3.1-6,2.2-7.8,3"/>
			
				<linearGradient id="SVGID_18_" gradientUnits="userSpaceOnUse" x1="258.4284" y1="356.3278" x2="270.7982" y2="356.3278" gradientTransform="matrix(0.986 -0.1666 0.1666 0.986 -41.8512 70.9445)">
				<stop  offset="2.700000e-07" style="stop-color:#FF5A5A"/>
				<stop  offset="1" style="stop-color:#FF8585"/>
			</linearGradient>
			<path class="st28" d="M272.7,378.9c0,0,3.5,6.1,5.6,4.9c2.1-1.3-4.5-6.1-1.3-7.4c3.3-1.3,4.1,4.5,6.5,3.9
				c2.4-0.6-2.1-8.5-2.1-8.5"/>
			<path class="st9" d="M384.2,166.5c-0.1,0.7-0.5,1.2-1,1.1c-0.5,0-0.8-0.6-0.8-1.3c0.1-0.7,0.5-1.2,1-1.1
				C384,165.2,384.3,165.8,384.2,166.5z"/>
			<path class="st0" d="M381.5,171.5l8.1-2c0,0-0.2,3.6-3.4,4.5S381.5,171.5,381.5,171.5z"/>
		</g>
		<g>
			<linearGradient id="SVGID_19_" gradientUnits="userSpaceOnUse" x1="436.1521" y1="182.6117" x2="432.304" y2="126.074">
				<stop  offset="2.700000e-07" style="stop-color:#FF5A5A"/>
				<stop  offset="1" style="stop-color:#FF8585"/>
			</linearGradient>
			<circle class="st29" cx="433.5" cy="143" r="12.4"/>
			<path class="st0" d="M440.2,145.4c0,3.7-3,6.7-6.7,6.7s-6.7-3-6.7-6.7H440.2z"/>
			<g>
				<g>
					<path class="st0" d="M431,139.2c0.5,0.5,0.5,1.2,0,1.7l-0.3,0.3l-1.5,1.5c-0.1,0.1-0.2,0.1-0.3,0l-1.6-1.6l-0.2-0.2
						c-0.5-0.5-0.5-1.2,0-1.7l0,0c0.5-0.5,1.2-0.5,1.7,0l0.3,0.3l0.3-0.3C429.8,138.7,430.6,138.7,431,139.2L431,139.2z"/>
				</g>
				<g>
					<path class="st0" d="M439.8,139.2c0.5,0.5,0.5,1.2,0,1.7l-0.3,0.3l-1.5,1.5c-0.1,0.1-0.2,0.1-0.3,0l-1.6-1.6l-0.2-0.2
						c-0.5-0.5-0.5-1.2,0-1.7l0,0c0.5-0.5,1.2-0.5,1.7,0l0.3,0.3l0.3-0.3C438.6,138.7,439.3,138.7,439.8,139.2L439.8,139.2z"/>
				</g>
			</g>
		</g>
		<g>
			<linearGradient id="SVGID_20_" gradientUnits="userSpaceOnUse" x1="112.4664" y1="198.4744" x2="118.3866" y2="238.4357">
				<stop  offset="2.700000e-07" style="stop-color:#FAF8FF"/>
				<stop  offset="1" style="stop-color:#EEE9FF"/>
			</linearGradient>
			<circle class="st30" cx="116.8" cy="227.7" r="12.4"/>
			<path class="st0" d="M123.7,229.5c0.3,3.7-2.4,7-6.1,7.3c-3.7,0.3-7-2.4-7.3-6.1L123.7,229.5z"/>
			<g>
				<g>
					<path class="st31" d="M114,224.2c0.5,0.4,0.6,1.2,0.2,1.7l-0.3,0.3l-1.4,1.7c-0.1,0.1-0.2,0.1-0.3,0l-1.7-1.4l-0.2-0.2
						c-0.5-0.4-0.6-1.2-0.2-1.7l0,0c0.4-0.5,1.2-0.6,1.7-0.2l0.3,0.3l0.3-0.3C112.8,223.8,113.5,223.8,114,224.2L114,224.2z"/>
				</g>
				<g>
					<path class="st31" d="M122.7,223.4c0.5,0.4,0.6,1.2,0.2,1.7l-0.3,0.3l-1.4,1.7c-0.1,0.1-0.2,0.1-0.3,0l-1.7-1.4l-0.2-0.2
						c-0.5-0.4-0.6-1.2-0.2-1.7l0,0c0.4-0.5,1.2-0.6,1.7-0.2l0.3,0.3l0.3-0.3C121.5,223,122.2,223,122.7,223.4L122.7,223.4z"/>
				</g>
			</g>
		</g>
		<g>
			
				<linearGradient id="SVGID_21_" gradientUnits="userSpaceOnUse" x1="109.4284" y1="227.0153" x2="105.5801" y2="170.475" gradientTransform="matrix(0.9863 -0.1647 0.1647 0.9863 -15.981 4.8618)">
				<stop  offset="2.700000e-07" style="stop-color:#FF5A5A"/>
				<stop  offset="1" style="stop-color:#FF8585"/>
			</linearGradient>
			<circle class="st32" cx="120.1" cy="172.1" r="12.4"/>
			<path class="st33" d="M126.9,173.6c-0.3,2.1-1.5,4.1-3.5,5.1c-3.3,1.7-7.4,0.5-9.1-2.8"/>
			<g>
				<path class="st0" d="M118.1,171.1c0.1,0.7-0.4,1.4-1.1,1.5c-0.7,0.1-1.4-0.4-1.5-1.1c-0.1-0.7,0.4-1.4,1.1-1.5
					C117.3,170,117.9,170.4,118.1,171.1z"/>
				<path class="st0" d="M124.3,170.1c0.1,0.7-0.4,1.4-1.1,1.5c-0.7,0.1-1.4-0.4-1.5-1.1c-0.1-0.7,0.4-1.4,1.1-1.5
					C123.6,168.9,124.2,169.4,124.3,170.1z"/>
			</g>
		</g>
		<g>
			
				<linearGradient id="SVGID_22_" gradientUnits="userSpaceOnUse" x1="453.2172" y1="172.8192" x2="447.0009" y2="217.5171" gradientTransform="matrix(0.9927 0.1205 -0.1205 0.9927 19.26 -68.6831)">
				<stop  offset="2.700000e-07" style="stop-color:#FAF8FF"/>
				<stop  offset="1" style="stop-color:#EEE9FF"/>
			</linearGradient>
			<path class="st34" d="M452.3,190.8c-1.4,6.7-7.9,11-14.6,9.6c-6.7-1.4-11-7.9-9.6-14.6c1.4-6.7,7.9-11,14.6-9.6
				C449.4,177.6,453.7,184.1,452.3,190.8z"/>
			<path class="st20" d="M445.9,192.2c-1,1.9-2.9,3.2-5.1,3.5c-3.7,0.4-7-2.2-7.5-5.9"/>
			<g>
				<path class="st9" d="M438.6,186.6c-0.1,0.7-0.8,1.1-1.5,1c-0.7-0.1-1.1-0.8-1-1.5s0.8-1.1,1.5-1
					C438.3,185.2,438.7,185.9,438.6,186.6z"/>
				<path class="st9" d="M444.8,187.9c-0.1,0.7-0.8,1.1-1.5,1c-0.7-0.1-1.1-0.8-1-1.5c0.1-0.7,0.8-1.1,1.5-1
					C444.5,186.5,445,187.2,444.8,187.9z"/>
			</g>
		</g>
		<g>
			<g>
				<path class="st31" d="M321.2,173.7c0.4,1.2-0.3,2.5-1.5,2.9l-0.8,0.3l-4.1,1.3c-0.2,0.1-0.4-0.1-0.5-0.3l-1.3-4.2l-0.2-0.6
					c-0.4-1.2,0.3-2.5,1.5-2.9l0,0c1.2-0.4,2.5,0.3,2.9,1.5l0.2,0.7l0.8-0.3C319.5,171.8,320.8,172.5,321.2,173.7L321.2,173.7z"/>
			</g>
			<g>
				<path class="st31" d="M254.4,158.5c1.3,0.2,2.1,1.4,1.9,2.7l-0.1,0.8l-0.7,4.2c0,0.2-0.2,0.3-0.4,0.3l-4.4-0.8l-0.6-0.1
					c-1.3-0.2-2.1-1.4-1.9-2.7l0,0c0.2-1.3,1.4-2.1,2.7-1.9l0.7,0.1l0.1-0.8C252,159.1,253.2,158.2,254.4,158.5L254.4,158.5z"/>
			</g>
			<g>
				<path class="st31" d="M296.2,152.6c4.1,2.3,5.5,7.6,3.2,11.7l-1.6,2.8l-7.8,13.6c-0.4,0.7-1.3,0.9-1.9,0.5L274,173l-1.9-1.1
					c-4.1-2.3-5.5-7.6-3.2-11.7l0,0c2.3-4.1,7.6-5.5,11.7-3.2l2.4,1.4l1.6-2.7C286.9,151.7,292.1,150.3,296.2,152.6L296.2,152.6z"/>
			</g>
		</g>
	</g>
</g>
<g id="DESIGNED_BY_FREEPIK">
</g>
</svg>
